G04 #@! TF.GenerationSoftware,KiCad,Pcbnew,(5.0.2)-1*
G04 #@! TF.CreationDate,2019-08-17T15:57:10+01:00*
G04 #@! TF.ProjectId,SoliCamb Rev 4 PCB,536f6c69-4361-46d6-9220-526576203420,rev?*
G04 #@! TF.SameCoordinates,Original*
G04 #@! TF.FileFunction,Other,User*
%FSLAX46Y46*%
G04 Gerber Fmt 4.6, Leading zero omitted, Abs format (unit mm)*
G04 Created by KiCad (PCBNEW (5.0.2)-1) date 8/17/2019 3:57:10 PM*
%MOMM*%
%LPD*%
G01*
G04 APERTURE LIST*
%ADD10C,0.050000*%
G04 APERTURE END LIST*
D10*
G04 #@! TO.C,F4*
X156820000Y-118850000D02*
X156820000Y-122750000D01*
X156820000Y-122750000D02*
X150580000Y-122750000D01*
X150580000Y-122750000D02*
X150580000Y-118850000D01*
X150580000Y-118850000D02*
X156820000Y-118850000D01*
G04 #@! TO.C,F5*
X126710000Y-113735000D02*
X126710000Y-119975000D01*
X122810000Y-113735000D02*
X126710000Y-113735000D01*
X122810000Y-119975000D02*
X122810000Y-113735000D01*
X126710000Y-119975000D02*
X122810000Y-119975000D01*
G04 #@! TO.C,Q1*
X108000000Y-128250000D02*
X113400000Y-128250000D01*
X113400000Y-128250000D02*
X113400000Y-131750000D01*
X113400000Y-131750000D02*
X108000000Y-131750000D01*
X108000000Y-131750000D02*
X108000000Y-128250000D01*
G04 #@! TO.C,Q2*
X80588000Y-131920000D02*
X85988000Y-131920000D01*
X85988000Y-131920000D02*
X85988000Y-135420000D01*
X85988000Y-135420000D02*
X80588000Y-135420000D01*
X80588000Y-135420000D02*
X80588000Y-131920000D01*
G04 #@! TO.C,Q3*
X148300000Y-95950000D02*
X148300000Y-92450000D01*
X153700000Y-95950000D02*
X148300000Y-95950000D01*
X153700000Y-92450000D02*
X153700000Y-95950000D01*
X148300000Y-92450000D02*
X153700000Y-92450000D01*
G04 #@! TO.C,J1*
X141595000Y-131680000D02*
X141595000Y-137780000D01*
X141595000Y-137780000D02*
X148495000Y-137780000D01*
X148495000Y-137780000D02*
X148495000Y-131680000D01*
X148495000Y-131680000D02*
X141595000Y-131680000D01*
G04 #@! TO.C,J2*
X65530000Y-87228000D02*
X65530000Y-94128000D01*
X71630000Y-87228000D02*
X65530000Y-87228000D01*
X71630000Y-94128000D02*
X71630000Y-87228000D01*
X65530000Y-94128000D02*
X71630000Y-94128000D01*
G04 #@! TO.C,Q4*
X118754000Y-81054000D02*
X118754000Y-84554000D01*
X113354000Y-81054000D02*
X118754000Y-81054000D01*
X113354000Y-84554000D02*
X113354000Y-81054000D01*
X118754000Y-84554000D02*
X113354000Y-84554000D01*
G04 #@! TO.C,Q5*
X134035555Y-104992969D02*
X139435555Y-104992969D01*
X139435555Y-104992969D02*
X139435555Y-108492969D01*
X139435555Y-108492969D02*
X134035555Y-108492969D01*
X134035555Y-108492969D02*
X134035555Y-104992969D01*
G04 #@! TO.C,U7*
X90319000Y-73003000D02*
X71469000Y-73003000D01*
X71469000Y-73003000D02*
X71469000Y-76603000D01*
X71469000Y-76603000D02*
X90319000Y-76603000D01*
X90319000Y-76603000D02*
X90319000Y-73003000D01*
G04 #@! TO.C,J9*
X149384000Y-73131000D02*
X140684000Y-73131000D01*
X140684000Y-73131000D02*
X140684000Y-80031000D01*
X140684000Y-80031000D02*
X149384000Y-80031000D01*
X149384000Y-80031000D02*
X149384000Y-73131000D01*
G04 #@! TO.C,J10*
X140367000Y-79904000D02*
X140367000Y-73004000D01*
X131667000Y-79904000D02*
X140367000Y-79904000D01*
X131667000Y-73004000D02*
X131667000Y-79904000D01*
X140367000Y-73004000D02*
X131667000Y-73004000D01*
G04 #@! TO.C,J11*
X131604000Y-73008000D02*
X122904000Y-73008000D01*
X122904000Y-73008000D02*
X122904000Y-79908000D01*
X122904000Y-79908000D02*
X131604000Y-79908000D01*
X131604000Y-79908000D02*
X131604000Y-73008000D01*
G04 #@! TO.C,U6*
X66780000Y-98828000D02*
X118630000Y-98828000D01*
X118630000Y-98828000D02*
X118630000Y-95228000D01*
X66780000Y-95228000D02*
X66780000Y-98828000D01*
X118630000Y-95228000D02*
X66780000Y-95228000D01*
X66780000Y-114068000D02*
X118630000Y-114068000D01*
X118630000Y-114068000D02*
X118630000Y-110468000D01*
X66780000Y-110468000D02*
X66780000Y-114068000D01*
X118630000Y-110468000D02*
X66780000Y-110468000D01*
G04 #@! TO.C,C1*
X138650000Y-97900000D02*
G75*
G03X138650000Y-97900000I-2250000J0D01*
G01*
G04 #@! TO.C,C2*
X138550000Y-102600000D02*
G75*
G03X138550000Y-102600000I-2250000J0D01*
G01*
G04 #@! TO.C,R1*
X146750000Y-79950000D02*
X143050000Y-79950000D01*
X143050000Y-79950000D02*
X143050000Y-94750000D01*
X143050000Y-94750000D02*
X146750000Y-94750000D01*
X146750000Y-94750000D02*
X146750000Y-79950000D01*
G04 #@! TO.C,R2*
X135050000Y-93750000D02*
X120250000Y-93750000D01*
X135050000Y-97450000D02*
X135050000Y-93750000D01*
X120250000Y-97450000D02*
X135050000Y-97450000D01*
X120250000Y-93750000D02*
X120250000Y-97450000D01*
G04 #@! TO.C,R3*
X137370000Y-78630000D02*
X133670000Y-78630000D01*
X133670000Y-78630000D02*
X133670000Y-93430000D01*
X133670000Y-93430000D02*
X137370000Y-93430000D01*
X137370000Y-93430000D02*
X137370000Y-78630000D01*
G04 #@! TO.C,R4*
X126460000Y-78400000D02*
X122360000Y-78400000D01*
X122360000Y-78400000D02*
X122360000Y-94000000D01*
X122360000Y-94000000D02*
X126460000Y-94000000D01*
X126460000Y-94000000D02*
X126460000Y-78400000D01*
G04 #@! TO.C,R5*
X83500000Y-130810000D02*
X87200000Y-130810000D01*
X87200000Y-130810000D02*
X87200000Y-116010000D01*
X87200000Y-116010000D02*
X83500000Y-116010000D01*
X83500000Y-116010000D02*
X83500000Y-130810000D01*
G04 #@! TO.C,R6*
X158230000Y-103260000D02*
X158230000Y-88460000D01*
X154530000Y-103260000D02*
X158230000Y-103260000D01*
X154530000Y-88460000D02*
X154530000Y-103260000D01*
X158230000Y-88460000D02*
X154530000Y-88460000D01*
G04 #@! TO.C,R7*
X123510000Y-113720000D02*
X138310000Y-113720000D01*
X123510000Y-110020000D02*
X123510000Y-113720000D01*
X138310000Y-110020000D02*
X123510000Y-110020000D01*
X138310000Y-113720000D02*
X138310000Y-110020000D01*
G04 #@! TO.C,REF\002A\002A*
X159760000Y-84290000D02*
G75*
G03X159760000Y-84290000I-3450000J0D01*
G01*
X159830000Y-127840000D02*
G75*
G03X159830000Y-127840000I-3450000J0D01*
G01*
X68230000Y-127680000D02*
G75*
G03X68230000Y-127680000I-3450000J0D01*
G01*
X68200000Y-84320000D02*
G75*
G03X68200000Y-84320000I-3450000J0D01*
G01*
G04 #@! TD*
M02*
