G04 #@! TF.GenerationSoftware,KiCad,Pcbnew,(5.0.2)-1*
G04 #@! TF.CreationDate,2019-08-17T15:57:10+01:00*
G04 #@! TF.ProjectId,SoliCamb Rev 4 PCB,536f6c69-4361-46d6-9220-526576203420,rev?*
G04 #@! TF.SameCoordinates,Original*
G04 #@! TF.FileFunction,Legend,Top*
G04 #@! TF.FilePolarity,Positive*
%FSLAX46Y46*%
G04 Gerber Fmt 4.6, Leading zero omitted, Abs format (unit mm)*
G04 Created by KiCad (PCBNEW (5.0.2)-1) date 8/17/2019 3:57:10 PM*
%MOMM*%
%LPD*%
G01*
G04 APERTURE LIST*
%ADD10C,0.120000*%
%ADD11C,0.150000*%
G04 APERTURE END LIST*
D10*
G04 #@! TO.C,F4*
X155086252Y-122510000D02*
X152313748Y-122510000D01*
X155086252Y-119090000D02*
X152313748Y-119090000D01*
G04 #@! TO.C,F5*
X126470000Y-118241252D02*
X126470000Y-115468748D01*
X123050000Y-118241252D02*
X123050000Y-115468748D01*
G04 #@! TO.C,Q1*
X111460000Y-131580000D02*
X111460000Y-130650000D01*
X111460000Y-128420000D02*
X111460000Y-129350000D01*
X111460000Y-128420000D02*
X108300000Y-128420000D01*
X111460000Y-131580000D02*
X110000000Y-131580000D01*
G04 #@! TO.C,Q2*
X84048000Y-135250000D02*
X84048000Y-134320000D01*
X84048000Y-132090000D02*
X84048000Y-133020000D01*
X84048000Y-132090000D02*
X80888000Y-132090000D01*
X84048000Y-135250000D02*
X82588000Y-135250000D01*
G04 #@! TO.C,Q3*
X151760000Y-95780000D02*
X150300000Y-95780000D01*
X151760000Y-92620000D02*
X148600000Y-92620000D01*
X151760000Y-92620000D02*
X151760000Y-93550000D01*
X151760000Y-95780000D02*
X151760000Y-94850000D01*
G04 #@! TO.C,J1*
X143715000Y-132130000D02*
X146375000Y-132130000D01*
X143715000Y-137330000D02*
X146375000Y-137330000D01*
X146375000Y-132130000D02*
X146375000Y-135240000D01*
X143715000Y-132700000D02*
X142195000Y-132700000D01*
X143715000Y-132130000D02*
X143715000Y-132700000D01*
X146375000Y-136760000D02*
X146375000Y-137330000D01*
X143715000Y-134220000D02*
X143715000Y-137330000D01*
G04 #@! TO.C,J2*
X68070000Y-92008000D02*
X71180000Y-92008000D01*
X70610000Y-89348000D02*
X71180000Y-89348000D01*
X65980000Y-92008000D02*
X66550000Y-92008000D01*
X66550000Y-92008000D02*
X66550000Y-93528000D01*
X65980000Y-89348000D02*
X69090000Y-89348000D01*
X71180000Y-92008000D02*
X71180000Y-89348000D01*
X65980000Y-92008000D02*
X65980000Y-89348000D01*
G04 #@! TO.C,Q4*
X115294000Y-81224000D02*
X116754000Y-81224000D01*
X115294000Y-84384000D02*
X118454000Y-84384000D01*
X115294000Y-84384000D02*
X115294000Y-83454000D01*
X115294000Y-81224000D02*
X115294000Y-82154000D01*
G04 #@! TO.C,Q5*
X137495555Y-108322969D02*
X137495555Y-107392969D01*
X137495555Y-105162969D02*
X137495555Y-106092969D01*
X137495555Y-105162969D02*
X134335555Y-105162969D01*
X137495555Y-108322969D02*
X136035555Y-108322969D01*
G04 #@! TO.C,U7*
X71949000Y-73473000D02*
X71949000Y-76133000D01*
X87249000Y-73473000D02*
X71949000Y-73473000D01*
X87249000Y-76133000D02*
X71949000Y-76133000D01*
X87249000Y-73473000D02*
X87249000Y-76133000D01*
X88519000Y-73473000D02*
X89849000Y-73473000D01*
X89849000Y-73473000D02*
X89849000Y-74803000D01*
G04 #@! TO.C,J9*
X148904000Y-75251000D02*
X148904000Y-77911000D01*
X141164000Y-75251000D02*
X141164000Y-77911000D01*
X148904000Y-77911000D02*
X145794000Y-77911000D01*
X148334000Y-75251000D02*
X148334000Y-73731000D01*
X148904000Y-75251000D02*
X148334000Y-75251000D01*
X141734000Y-77911000D02*
X141164000Y-77911000D01*
X144274000Y-77911000D02*
X141164000Y-77911000D01*
X146814000Y-75251000D02*
X143254000Y-75251000D01*
G04 #@! TO.C,J10*
X137797000Y-75124000D02*
X134237000Y-75124000D01*
X135257000Y-77784000D02*
X132147000Y-77784000D01*
X132717000Y-77784000D02*
X132147000Y-77784000D01*
X139887000Y-75124000D02*
X139317000Y-75124000D01*
X139317000Y-75124000D02*
X139317000Y-73604000D01*
X139887000Y-77784000D02*
X136777000Y-77784000D01*
X132147000Y-75124000D02*
X132147000Y-77784000D01*
X139887000Y-75124000D02*
X139887000Y-77784000D01*
G04 #@! TO.C,J11*
X131124000Y-75128000D02*
X131124000Y-77788000D01*
X123384000Y-75128000D02*
X123384000Y-77788000D01*
X131124000Y-77788000D02*
X128014000Y-77788000D01*
X130554000Y-75128000D02*
X130554000Y-73608000D01*
X131124000Y-75128000D02*
X130554000Y-75128000D01*
X123954000Y-77788000D02*
X123384000Y-77788000D01*
X126494000Y-77788000D02*
X123384000Y-77788000D01*
X129034000Y-75128000D02*
X125474000Y-75128000D01*
D11*
G04 #@! TO.C,U1*
X132800000Y-121600000D02*
X132800000Y-138100000D01*
X108300000Y-121600000D02*
X132800000Y-121600000D01*
X108300000Y-138100000D02*
X108300000Y-121600000D01*
X132800000Y-138100000D02*
X108300000Y-138100000D01*
G04 #@! TO.C,U2*
X93996000Y-74446000D02*
X118496000Y-74446000D01*
X118496000Y-74446000D02*
X118496000Y-90946000D01*
X118496000Y-90946000D02*
X93996000Y-90946000D01*
X93996000Y-90946000D02*
X93996000Y-74446000D01*
D10*
G04 #@! TO.C,U6*
X67250000Y-98358000D02*
X67250000Y-97028000D01*
X69850000Y-98358000D02*
X118170000Y-98358000D01*
X118170000Y-98358000D02*
X118170000Y-95698000D01*
X68580000Y-98358000D02*
X67250000Y-98358000D01*
X69850000Y-95698000D02*
X118170000Y-95698000D01*
X69850000Y-98358000D02*
X69850000Y-95698000D01*
X67250000Y-113598000D02*
X67250000Y-112268000D01*
X69850000Y-113598000D02*
X118170000Y-113598000D01*
X118170000Y-113598000D02*
X118170000Y-110938000D01*
X68580000Y-113598000D02*
X67250000Y-113598000D01*
X69850000Y-110938000D02*
X118170000Y-110938000D01*
X69850000Y-113598000D02*
X69850000Y-110938000D01*
D11*
X66040000Y-93218000D02*
X66040000Y-116078000D01*
X66040000Y-116078000D02*
X119380000Y-116078000D01*
X119380000Y-116078000D02*
X119380000Y-93218000D01*
X119380000Y-93218000D02*
X66040000Y-93218000D01*
D10*
G04 #@! TO.C,C1*
X138520000Y-97900000D02*
G75*
G03X138520000Y-97900000I-2120000J0D01*
G01*
X138480000Y-97900000D02*
X134320000Y-97900000D01*
X138480000Y-97940000D02*
X134320000Y-97940000D01*
X138479000Y-97980000D02*
X134321000Y-97980000D01*
X138477000Y-98020000D02*
X134323000Y-98020000D01*
X138474000Y-98060000D02*
X134326000Y-98060000D01*
X138471000Y-98100000D02*
X137240000Y-98100000D01*
X135560000Y-98100000D02*
X134329000Y-98100000D01*
X138467000Y-98140000D02*
X137240000Y-98140000D01*
X135560000Y-98140000D02*
X134333000Y-98140000D01*
X138462000Y-98180000D02*
X137240000Y-98180000D01*
X135560000Y-98180000D02*
X134338000Y-98180000D01*
X138456000Y-98220000D02*
X137240000Y-98220000D01*
X135560000Y-98220000D02*
X134344000Y-98220000D01*
X138450000Y-98260000D02*
X137240000Y-98260000D01*
X135560000Y-98260000D02*
X134350000Y-98260000D01*
X138442000Y-98300000D02*
X137240000Y-98300000D01*
X135560000Y-98300000D02*
X134358000Y-98300000D01*
X138434000Y-98340000D02*
X137240000Y-98340000D01*
X135560000Y-98340000D02*
X134366000Y-98340000D01*
X138425000Y-98380000D02*
X137240000Y-98380000D01*
X135560000Y-98380000D02*
X134375000Y-98380000D01*
X138416000Y-98420000D02*
X137240000Y-98420000D01*
X135560000Y-98420000D02*
X134384000Y-98420000D01*
X138405000Y-98460000D02*
X137240000Y-98460000D01*
X135560000Y-98460000D02*
X134395000Y-98460000D01*
X138394000Y-98500000D02*
X137240000Y-98500000D01*
X135560000Y-98500000D02*
X134406000Y-98500000D01*
X138382000Y-98540000D02*
X137240000Y-98540000D01*
X135560000Y-98540000D02*
X134418000Y-98540000D01*
X138368000Y-98580000D02*
X137240000Y-98580000D01*
X135560000Y-98580000D02*
X134432000Y-98580000D01*
X138354000Y-98621000D02*
X137240000Y-98621000D01*
X135560000Y-98621000D02*
X134446000Y-98621000D01*
X138340000Y-98661000D02*
X137240000Y-98661000D01*
X135560000Y-98661000D02*
X134460000Y-98661000D01*
X138324000Y-98701000D02*
X137240000Y-98701000D01*
X135560000Y-98701000D02*
X134476000Y-98701000D01*
X138307000Y-98741000D02*
X137240000Y-98741000D01*
X135560000Y-98741000D02*
X134493000Y-98741000D01*
X138289000Y-98781000D02*
X137240000Y-98781000D01*
X135560000Y-98781000D02*
X134511000Y-98781000D01*
X138270000Y-98821000D02*
X137240000Y-98821000D01*
X135560000Y-98821000D02*
X134530000Y-98821000D01*
X138251000Y-98861000D02*
X137240000Y-98861000D01*
X135560000Y-98861000D02*
X134549000Y-98861000D01*
X138230000Y-98901000D02*
X137240000Y-98901000D01*
X135560000Y-98901000D02*
X134570000Y-98901000D01*
X138208000Y-98941000D02*
X137240000Y-98941000D01*
X135560000Y-98941000D02*
X134592000Y-98941000D01*
X138185000Y-98981000D02*
X137240000Y-98981000D01*
X135560000Y-98981000D02*
X134615000Y-98981000D01*
X138160000Y-99021000D02*
X137240000Y-99021000D01*
X135560000Y-99021000D02*
X134640000Y-99021000D01*
X138135000Y-99061000D02*
X137240000Y-99061000D01*
X135560000Y-99061000D02*
X134665000Y-99061000D01*
X138108000Y-99101000D02*
X137240000Y-99101000D01*
X135560000Y-99101000D02*
X134692000Y-99101000D01*
X138080000Y-99141000D02*
X137240000Y-99141000D01*
X135560000Y-99141000D02*
X134720000Y-99141000D01*
X138050000Y-99181000D02*
X137240000Y-99181000D01*
X135560000Y-99181000D02*
X134750000Y-99181000D01*
X138019000Y-99221000D02*
X137240000Y-99221000D01*
X135560000Y-99221000D02*
X134781000Y-99221000D01*
X137987000Y-99261000D02*
X137240000Y-99261000D01*
X135560000Y-99261000D02*
X134813000Y-99261000D01*
X137952000Y-99301000D02*
X137240000Y-99301000D01*
X135560000Y-99301000D02*
X134848000Y-99301000D01*
X137916000Y-99341000D02*
X137240000Y-99341000D01*
X135560000Y-99341000D02*
X134884000Y-99341000D01*
X137878000Y-99381000D02*
X137240000Y-99381000D01*
X135560000Y-99381000D02*
X134922000Y-99381000D01*
X137838000Y-99421000D02*
X137240000Y-99421000D01*
X135560000Y-99421000D02*
X134962000Y-99421000D01*
X137796000Y-99461000D02*
X137240000Y-99461000D01*
X135560000Y-99461000D02*
X135004000Y-99461000D01*
X137751000Y-99501000D02*
X137240000Y-99501000D01*
X135560000Y-99501000D02*
X135049000Y-99501000D01*
X137704000Y-99541000D02*
X137240000Y-99541000D01*
X135560000Y-99541000D02*
X135096000Y-99541000D01*
X137654000Y-99581000D02*
X137240000Y-99581000D01*
X135560000Y-99581000D02*
X135146000Y-99581000D01*
X137600000Y-99621000D02*
X137240000Y-99621000D01*
X135560000Y-99621000D02*
X135200000Y-99621000D01*
X137542000Y-99661000D02*
X137240000Y-99661000D01*
X135560000Y-99661000D02*
X135258000Y-99661000D01*
X137480000Y-99701000D02*
X137240000Y-99701000D01*
X135560000Y-99701000D02*
X135320000Y-99701000D01*
X137413000Y-99741000D02*
X135387000Y-99741000D01*
X137340000Y-99781000D02*
X135460000Y-99781000D01*
X137259000Y-99821000D02*
X135541000Y-99821000D01*
X137168000Y-99861000D02*
X135632000Y-99861000D01*
X137064000Y-99901000D02*
X135736000Y-99901000D01*
X136937000Y-99941000D02*
X135863000Y-99941000D01*
X136770000Y-99981000D02*
X136030000Y-99981000D01*
X137595000Y-95630199D02*
X137595000Y-96030199D01*
X137795000Y-95830199D02*
X137395000Y-95830199D01*
G04 #@! TO.C,C2*
X134905000Y-104669801D02*
X135305000Y-104669801D01*
X135105000Y-104869801D02*
X135105000Y-104469801D01*
X135930000Y-100519000D02*
X136670000Y-100519000D01*
X135763000Y-100559000D02*
X136837000Y-100559000D01*
X135636000Y-100599000D02*
X136964000Y-100599000D01*
X135532000Y-100639000D02*
X137068000Y-100639000D01*
X135441000Y-100679000D02*
X137159000Y-100679000D01*
X135360000Y-100719000D02*
X137240000Y-100719000D01*
X135287000Y-100759000D02*
X137313000Y-100759000D01*
X137140000Y-100799000D02*
X137380000Y-100799000D01*
X135220000Y-100799000D02*
X135460000Y-100799000D01*
X137140000Y-100839000D02*
X137442000Y-100839000D01*
X135158000Y-100839000D02*
X135460000Y-100839000D01*
X137140000Y-100879000D02*
X137500000Y-100879000D01*
X135100000Y-100879000D02*
X135460000Y-100879000D01*
X137140000Y-100919000D02*
X137554000Y-100919000D01*
X135046000Y-100919000D02*
X135460000Y-100919000D01*
X137140000Y-100959000D02*
X137604000Y-100959000D01*
X134996000Y-100959000D02*
X135460000Y-100959000D01*
X137140000Y-100999000D02*
X137651000Y-100999000D01*
X134949000Y-100999000D02*
X135460000Y-100999000D01*
X137140000Y-101039000D02*
X137696000Y-101039000D01*
X134904000Y-101039000D02*
X135460000Y-101039000D01*
X137140000Y-101079000D02*
X137738000Y-101079000D01*
X134862000Y-101079000D02*
X135460000Y-101079000D01*
X137140000Y-101119000D02*
X137778000Y-101119000D01*
X134822000Y-101119000D02*
X135460000Y-101119000D01*
X137140000Y-101159000D02*
X137816000Y-101159000D01*
X134784000Y-101159000D02*
X135460000Y-101159000D01*
X137140000Y-101199000D02*
X137852000Y-101199000D01*
X134748000Y-101199000D02*
X135460000Y-101199000D01*
X137140000Y-101239000D02*
X137887000Y-101239000D01*
X134713000Y-101239000D02*
X135460000Y-101239000D01*
X137140000Y-101279000D02*
X137919000Y-101279000D01*
X134681000Y-101279000D02*
X135460000Y-101279000D01*
X137140000Y-101319000D02*
X137950000Y-101319000D01*
X134650000Y-101319000D02*
X135460000Y-101319000D01*
X137140000Y-101359000D02*
X137980000Y-101359000D01*
X134620000Y-101359000D02*
X135460000Y-101359000D01*
X137140000Y-101399000D02*
X138008000Y-101399000D01*
X134592000Y-101399000D02*
X135460000Y-101399000D01*
X137140000Y-101439000D02*
X138035000Y-101439000D01*
X134565000Y-101439000D02*
X135460000Y-101439000D01*
X137140000Y-101479000D02*
X138060000Y-101479000D01*
X134540000Y-101479000D02*
X135460000Y-101479000D01*
X137140000Y-101519000D02*
X138085000Y-101519000D01*
X134515000Y-101519000D02*
X135460000Y-101519000D01*
X137140000Y-101559000D02*
X138108000Y-101559000D01*
X134492000Y-101559000D02*
X135460000Y-101559000D01*
X137140000Y-101599000D02*
X138130000Y-101599000D01*
X134470000Y-101599000D02*
X135460000Y-101599000D01*
X137140000Y-101639000D02*
X138151000Y-101639000D01*
X134449000Y-101639000D02*
X135460000Y-101639000D01*
X137140000Y-101679000D02*
X138170000Y-101679000D01*
X134430000Y-101679000D02*
X135460000Y-101679000D01*
X137140000Y-101719000D02*
X138189000Y-101719000D01*
X134411000Y-101719000D02*
X135460000Y-101719000D01*
X137140000Y-101759000D02*
X138207000Y-101759000D01*
X134393000Y-101759000D02*
X135460000Y-101759000D01*
X137140000Y-101799000D02*
X138224000Y-101799000D01*
X134376000Y-101799000D02*
X135460000Y-101799000D01*
X137140000Y-101839000D02*
X138240000Y-101839000D01*
X134360000Y-101839000D02*
X135460000Y-101839000D01*
X137140000Y-101879000D02*
X138254000Y-101879000D01*
X134346000Y-101879000D02*
X135460000Y-101879000D01*
X137140000Y-101920000D02*
X138268000Y-101920000D01*
X134332000Y-101920000D02*
X135460000Y-101920000D01*
X137140000Y-101960000D02*
X138282000Y-101960000D01*
X134318000Y-101960000D02*
X135460000Y-101960000D01*
X137140000Y-102000000D02*
X138294000Y-102000000D01*
X134306000Y-102000000D02*
X135460000Y-102000000D01*
X137140000Y-102040000D02*
X138305000Y-102040000D01*
X134295000Y-102040000D02*
X135460000Y-102040000D01*
X137140000Y-102080000D02*
X138316000Y-102080000D01*
X134284000Y-102080000D02*
X135460000Y-102080000D01*
X137140000Y-102120000D02*
X138325000Y-102120000D01*
X134275000Y-102120000D02*
X135460000Y-102120000D01*
X137140000Y-102160000D02*
X138334000Y-102160000D01*
X134266000Y-102160000D02*
X135460000Y-102160000D01*
X137140000Y-102200000D02*
X138342000Y-102200000D01*
X134258000Y-102200000D02*
X135460000Y-102200000D01*
X137140000Y-102240000D02*
X138350000Y-102240000D01*
X134250000Y-102240000D02*
X135460000Y-102240000D01*
X137140000Y-102280000D02*
X138356000Y-102280000D01*
X134244000Y-102280000D02*
X135460000Y-102280000D01*
X137140000Y-102320000D02*
X138362000Y-102320000D01*
X134238000Y-102320000D02*
X135460000Y-102320000D01*
X137140000Y-102360000D02*
X138367000Y-102360000D01*
X134233000Y-102360000D02*
X135460000Y-102360000D01*
X137140000Y-102400000D02*
X138371000Y-102400000D01*
X134229000Y-102400000D02*
X135460000Y-102400000D01*
X134226000Y-102440000D02*
X138374000Y-102440000D01*
X134223000Y-102480000D02*
X138377000Y-102480000D01*
X134221000Y-102520000D02*
X138379000Y-102520000D01*
X134220000Y-102560000D02*
X138380000Y-102560000D01*
X134220000Y-102600000D02*
X138380000Y-102600000D01*
X138420000Y-102600000D02*
G75*
G03X138420000Y-102600000I-2120000J0D01*
G01*
G04 #@! TO.C,R1*
X146620000Y-82730000D02*
X143180000Y-82730000D01*
X143180000Y-82730000D02*
X143180000Y-91970000D01*
X143180000Y-91970000D02*
X146620000Y-91970000D01*
X146620000Y-91970000D02*
X146620000Y-82730000D01*
X144900000Y-82040000D02*
X144900000Y-82730000D01*
X144900000Y-92660000D02*
X144900000Y-91970000D01*
G04 #@! TO.C,R2*
X132960000Y-95600000D02*
X132270000Y-95600000D01*
X122340000Y-95600000D02*
X123030000Y-95600000D01*
X132270000Y-93880000D02*
X123030000Y-93880000D01*
X132270000Y-97320000D02*
X132270000Y-93880000D01*
X123030000Y-97320000D02*
X132270000Y-97320000D01*
X123030000Y-93880000D02*
X123030000Y-97320000D01*
G04 #@! TO.C,R3*
X137240000Y-81410000D02*
X133800000Y-81410000D01*
X133800000Y-81410000D02*
X133800000Y-90650000D01*
X133800000Y-90650000D02*
X137240000Y-90650000D01*
X137240000Y-90650000D02*
X137240000Y-81410000D01*
X135520000Y-80720000D02*
X135520000Y-81410000D01*
X135520000Y-91340000D02*
X135520000Y-90650000D01*
G04 #@! TO.C,R4*
X125850000Y-81130000D02*
X126330000Y-81130000D01*
X126330000Y-81130000D02*
X126330000Y-91270000D01*
X126330000Y-91270000D02*
X125850000Y-91270000D01*
X122970000Y-81130000D02*
X122490000Y-81130000D01*
X122490000Y-81130000D02*
X122490000Y-91270000D01*
X122490000Y-91270000D02*
X122970000Y-91270000D01*
G04 #@! TO.C,R5*
X83630000Y-128030000D02*
X87070000Y-128030000D01*
X87070000Y-128030000D02*
X87070000Y-118790000D01*
X87070000Y-118790000D02*
X83630000Y-118790000D01*
X83630000Y-118790000D02*
X83630000Y-128030000D01*
X85350000Y-128720000D02*
X85350000Y-128030000D01*
X85350000Y-118100000D02*
X85350000Y-118790000D01*
G04 #@! TO.C,R6*
X156380000Y-101170000D02*
X156380000Y-100480000D01*
X156380000Y-90550000D02*
X156380000Y-91240000D01*
X158100000Y-100480000D02*
X158100000Y-91240000D01*
X154660000Y-100480000D02*
X158100000Y-100480000D01*
X154660000Y-91240000D02*
X154660000Y-100480000D01*
X158100000Y-91240000D02*
X154660000Y-91240000D01*
G04 #@! TO.C,R7*
X125600000Y-111870000D02*
X126290000Y-111870000D01*
X136220000Y-111870000D02*
X135530000Y-111870000D01*
X126290000Y-113590000D02*
X135530000Y-113590000D01*
X126290000Y-110150000D02*
X126290000Y-113590000D01*
X135530000Y-110150000D02*
X126290000Y-110150000D01*
X135530000Y-113590000D02*
X135530000Y-110150000D01*
D11*
G04 #@! TO.C,U3*
X120503555Y-107697969D02*
X120503555Y-97537969D01*
X120503555Y-97537969D02*
X133838555Y-97537969D01*
X133838555Y-97537969D02*
X133838555Y-107697969D01*
X120503555Y-107697969D02*
X120503555Y-108332969D01*
X120503555Y-108332969D02*
X133838555Y-108332969D01*
X133838555Y-108332969D02*
X133838555Y-107697969D01*
G04 #@! TO.C,U5*
X71374000Y-139192000D02*
X94234000Y-139192000D01*
X94234000Y-103632000D02*
X71374000Y-103632000D01*
X71374000Y-103632000D02*
X71374000Y-139192000D01*
X96774000Y-139192000D02*
X71374000Y-139192000D01*
X71374000Y-139192000D02*
X96774000Y-139192000D01*
X96774000Y-103632000D02*
X96774000Y-139192000D01*
X96774000Y-139192000D02*
X96774000Y-103632000D01*
X96774000Y-103632000D02*
X94234000Y-103632000D01*
G04 #@! TO.C,U8*
X154432000Y-129540000D02*
X154432000Y-82550000D01*
X154432000Y-82550000D02*
X109982000Y-82550000D01*
X109982000Y-82550000D02*
X109982000Y-129540000D01*
X109982000Y-129540000D02*
X154432000Y-129540000D01*
G04 #@! TO.C,F4*
X155366666Y-117628571D02*
X155033333Y-117628571D01*
X155033333Y-118152380D02*
X155033333Y-117152380D01*
X155509523Y-117152380D01*
X156319047Y-117485714D02*
X156319047Y-118152380D01*
X156080952Y-117104761D02*
X155842857Y-117819047D01*
X156461904Y-117819047D01*
G04 #@! TO.C,F5*
X122038571Y-117188333D02*
X122038571Y-117521666D01*
X122562380Y-117521666D02*
X121562380Y-117521666D01*
X121562380Y-117045476D01*
X121562380Y-116188333D02*
X121562380Y-116664523D01*
X122038571Y-116712142D01*
X121990952Y-116664523D01*
X121943333Y-116569285D01*
X121943333Y-116331190D01*
X121990952Y-116235952D01*
X122038571Y-116188333D01*
X122133809Y-116140714D01*
X122371904Y-116140714D01*
X122467142Y-116188333D01*
X122514761Y-116235952D01*
X122562380Y-116331190D01*
X122562380Y-116569285D01*
X122514761Y-116664523D01*
X122467142Y-116712142D01*
G04 #@! TO.C,Q1*
X107104761Y-130447619D02*
X107009523Y-130400000D01*
X106914285Y-130304761D01*
X106771428Y-130161904D01*
X106676190Y-130114285D01*
X106580952Y-130114285D01*
X106628571Y-130352380D02*
X106533333Y-130304761D01*
X106438095Y-130209523D01*
X106390476Y-130019047D01*
X106390476Y-129685714D01*
X106438095Y-129495238D01*
X106533333Y-129400000D01*
X106628571Y-129352380D01*
X106819047Y-129352380D01*
X106914285Y-129400000D01*
X107009523Y-129495238D01*
X107057142Y-129685714D01*
X107057142Y-130019047D01*
X107009523Y-130209523D01*
X106914285Y-130304761D01*
X106819047Y-130352380D01*
X106628571Y-130352380D01*
X108009523Y-130352380D02*
X107438095Y-130352380D01*
X107723809Y-130352380D02*
X107723809Y-129352380D01*
X107628571Y-129495238D01*
X107533333Y-129590476D01*
X107438095Y-129638095D01*
G04 #@! TO.C,Q2*
X83192761Y-131717619D02*
X83097523Y-131670000D01*
X83002285Y-131574761D01*
X82859428Y-131431904D01*
X82764190Y-131384285D01*
X82668952Y-131384285D01*
X82716571Y-131622380D02*
X82621333Y-131574761D01*
X82526095Y-131479523D01*
X82478476Y-131289047D01*
X82478476Y-130955714D01*
X82526095Y-130765238D01*
X82621333Y-130670000D01*
X82716571Y-130622380D01*
X82907047Y-130622380D01*
X83002285Y-130670000D01*
X83097523Y-130765238D01*
X83145142Y-130955714D01*
X83145142Y-131289047D01*
X83097523Y-131479523D01*
X83002285Y-131574761D01*
X82907047Y-131622380D01*
X82716571Y-131622380D01*
X83526095Y-130717619D02*
X83573714Y-130670000D01*
X83668952Y-130622380D01*
X83907047Y-130622380D01*
X84002285Y-130670000D01*
X84049904Y-130717619D01*
X84097523Y-130812857D01*
X84097523Y-130908095D01*
X84049904Y-131050952D01*
X83478476Y-131622380D01*
X84097523Y-131622380D01*
G04 #@! TO.C,Q3*
X147204761Y-94847619D02*
X147109523Y-94800000D01*
X147014285Y-94704761D01*
X146871428Y-94561904D01*
X146776190Y-94514285D01*
X146680952Y-94514285D01*
X146728571Y-94752380D02*
X146633333Y-94704761D01*
X146538095Y-94609523D01*
X146490476Y-94419047D01*
X146490476Y-94085714D01*
X146538095Y-93895238D01*
X146633333Y-93800000D01*
X146728571Y-93752380D01*
X146919047Y-93752380D01*
X147014285Y-93800000D01*
X147109523Y-93895238D01*
X147157142Y-94085714D01*
X147157142Y-94419047D01*
X147109523Y-94609523D01*
X147014285Y-94704761D01*
X146919047Y-94752380D01*
X146728571Y-94752380D01*
X147490476Y-93752380D02*
X148109523Y-93752380D01*
X147776190Y-94133333D01*
X147919047Y-94133333D01*
X148014285Y-94180952D01*
X148061904Y-94228571D01*
X148109523Y-94323809D01*
X148109523Y-94561904D01*
X148061904Y-94657142D01*
X148014285Y-94704761D01*
X147919047Y-94752380D01*
X147633333Y-94752380D01*
X147538095Y-94704761D01*
X147490476Y-94657142D01*
G04 #@! TO.C,J1*
X144666666Y-130652380D02*
X144666666Y-131366666D01*
X144619047Y-131509523D01*
X144523809Y-131604761D01*
X144380952Y-131652380D01*
X144285714Y-131652380D01*
X145666666Y-131652380D02*
X145095238Y-131652380D01*
X145380952Y-131652380D02*
X145380952Y-130652380D01*
X145285714Y-130795238D01*
X145190476Y-130890476D01*
X145095238Y-130938095D01*
G04 #@! TO.C,J2*
X64352380Y-90833333D02*
X65066666Y-90833333D01*
X65209523Y-90880952D01*
X65304761Y-90976190D01*
X65352380Y-91119047D01*
X65352380Y-91214285D01*
X64447619Y-90404761D02*
X64400000Y-90357142D01*
X64352380Y-90261904D01*
X64352380Y-90023809D01*
X64400000Y-89928571D01*
X64447619Y-89880952D01*
X64542857Y-89833333D01*
X64638095Y-89833333D01*
X64780952Y-89880952D01*
X65352380Y-90452380D01*
X65352380Y-89833333D01*
G04 #@! TO.C,Q4*
X119904761Y-83347619D02*
X119809523Y-83300000D01*
X119714285Y-83204761D01*
X119571428Y-83061904D01*
X119476190Y-83014285D01*
X119380952Y-83014285D01*
X119428571Y-83252380D02*
X119333333Y-83204761D01*
X119238095Y-83109523D01*
X119190476Y-82919047D01*
X119190476Y-82585714D01*
X119238095Y-82395238D01*
X119333333Y-82300000D01*
X119428571Y-82252380D01*
X119619047Y-82252380D01*
X119714285Y-82300000D01*
X119809523Y-82395238D01*
X119857142Y-82585714D01*
X119857142Y-82919047D01*
X119809523Y-83109523D01*
X119714285Y-83204761D01*
X119619047Y-83252380D01*
X119428571Y-83252380D01*
X120714285Y-82585714D02*
X120714285Y-83252380D01*
X120476190Y-82204761D02*
X120238095Y-82919047D01*
X120857142Y-82919047D01*
G04 #@! TO.C,Q5*
X136640316Y-104790588D02*
X136545078Y-104742969D01*
X136449840Y-104647730D01*
X136306983Y-104504873D01*
X136211745Y-104457254D01*
X136116507Y-104457254D01*
X136164126Y-104695349D02*
X136068888Y-104647730D01*
X135973650Y-104552492D01*
X135926031Y-104362016D01*
X135926031Y-104028683D01*
X135973650Y-103838207D01*
X136068888Y-103742969D01*
X136164126Y-103695349D01*
X136354602Y-103695349D01*
X136449840Y-103742969D01*
X136545078Y-103838207D01*
X136592697Y-104028683D01*
X136592697Y-104362016D01*
X136545078Y-104552492D01*
X136449840Y-104647730D01*
X136354602Y-104695349D01*
X136164126Y-104695349D01*
X137497459Y-103695349D02*
X137021269Y-103695349D01*
X136973650Y-104171540D01*
X137021269Y-104123921D01*
X137116507Y-104076302D01*
X137354602Y-104076302D01*
X137449840Y-104123921D01*
X137497459Y-104171540D01*
X137545078Y-104266778D01*
X137545078Y-104504873D01*
X137497459Y-104600111D01*
X137449840Y-104647730D01*
X137354602Y-104695349D01*
X137116507Y-104695349D01*
X137021269Y-104647730D01*
X136973650Y-104600111D01*
G04 #@! TO.C,U7*
X90301380Y-75564904D02*
X91110904Y-75564904D01*
X91206142Y-75517285D01*
X91253761Y-75469666D01*
X91301380Y-75374428D01*
X91301380Y-75183952D01*
X91253761Y-75088714D01*
X91206142Y-75041095D01*
X91110904Y-74993476D01*
X90301380Y-74993476D01*
X90301380Y-74612523D02*
X90301380Y-73945857D01*
X91301380Y-74374428D01*
G04 #@! TO.C,J9*
X144766666Y-73752380D02*
X144766666Y-74466666D01*
X144719047Y-74609523D01*
X144623809Y-74704761D01*
X144480952Y-74752380D01*
X144385714Y-74752380D01*
X145290476Y-74752380D02*
X145480952Y-74752380D01*
X145576190Y-74704761D01*
X145623809Y-74657142D01*
X145719047Y-74514285D01*
X145766666Y-74323809D01*
X145766666Y-73942857D01*
X145719047Y-73847619D01*
X145671428Y-73800000D01*
X145576190Y-73752380D01*
X145385714Y-73752380D01*
X145290476Y-73800000D01*
X145242857Y-73847619D01*
X145195238Y-73942857D01*
X145195238Y-74180952D01*
X145242857Y-74276190D01*
X145290476Y-74323809D01*
X145385714Y-74371428D01*
X145576190Y-74371428D01*
X145671428Y-74323809D01*
X145719047Y-74276190D01*
X145766666Y-74180952D01*
G04 #@! TO.C,J10*
X135190476Y-73752380D02*
X135190476Y-74466666D01*
X135142857Y-74609523D01*
X135047619Y-74704761D01*
X134904761Y-74752380D01*
X134809523Y-74752380D01*
X136190476Y-74752380D02*
X135619047Y-74752380D01*
X135904761Y-74752380D02*
X135904761Y-73752380D01*
X135809523Y-73895238D01*
X135714285Y-73990476D01*
X135619047Y-74038095D01*
X136809523Y-73752380D02*
X136904761Y-73752380D01*
X137000000Y-73800000D01*
X137047619Y-73847619D01*
X137095238Y-73942857D01*
X137142857Y-74133333D01*
X137142857Y-74371428D01*
X137095238Y-74561904D01*
X137047619Y-74657142D01*
X137000000Y-74704761D01*
X136904761Y-74752380D01*
X136809523Y-74752380D01*
X136714285Y-74704761D01*
X136666666Y-74657142D01*
X136619047Y-74561904D01*
X136571428Y-74371428D01*
X136571428Y-74133333D01*
X136619047Y-73942857D01*
X136666666Y-73847619D01*
X136714285Y-73800000D01*
X136809523Y-73752380D01*
G04 #@! TO.C,J11*
X126390476Y-73652380D02*
X126390476Y-74366666D01*
X126342857Y-74509523D01*
X126247619Y-74604761D01*
X126104761Y-74652380D01*
X126009523Y-74652380D01*
X127390476Y-74652380D02*
X126819047Y-74652380D01*
X127104761Y-74652380D02*
X127104761Y-73652380D01*
X127009523Y-73795238D01*
X126914285Y-73890476D01*
X126819047Y-73938095D01*
X128342857Y-74652380D02*
X127771428Y-74652380D01*
X128057142Y-74652380D02*
X128057142Y-73652380D01*
X127961904Y-73795238D01*
X127866666Y-73890476D01*
X127771428Y-73938095D01*
G04 #@! TO.C,U1*
X118538095Y-128652380D02*
X118538095Y-129461904D01*
X118585714Y-129557142D01*
X118633333Y-129604761D01*
X118728571Y-129652380D01*
X118919047Y-129652380D01*
X119014285Y-129604761D01*
X119061904Y-129557142D01*
X119109523Y-129461904D01*
X119109523Y-128652380D01*
X120109523Y-129652380D02*
X119538095Y-129652380D01*
X119823809Y-129652380D02*
X119823809Y-128652380D01*
X119728571Y-128795238D01*
X119633333Y-128890476D01*
X119538095Y-128938095D01*
G04 #@! TO.C,U2*
X106038095Y-81652380D02*
X106038095Y-82461904D01*
X106085714Y-82557142D01*
X106133333Y-82604761D01*
X106228571Y-82652380D01*
X106419047Y-82652380D01*
X106514285Y-82604761D01*
X106561904Y-82557142D01*
X106609523Y-82461904D01*
X106609523Y-81652380D01*
X107038095Y-81747619D02*
X107085714Y-81700000D01*
X107180952Y-81652380D01*
X107419047Y-81652380D01*
X107514285Y-81700000D01*
X107561904Y-81747619D01*
X107609523Y-81842857D01*
X107609523Y-81938095D01*
X107561904Y-82080952D01*
X106990476Y-82652380D01*
X107609523Y-82652380D01*
G04 #@! TO.C,U6*
X93218095Y-105870380D02*
X93218095Y-106679904D01*
X93265714Y-106775142D01*
X93313333Y-106822761D01*
X93408571Y-106870380D01*
X93599047Y-106870380D01*
X93694285Y-106822761D01*
X93741904Y-106775142D01*
X93789523Y-106679904D01*
X93789523Y-105870380D01*
X94694285Y-105870380D02*
X94503809Y-105870380D01*
X94408571Y-105918000D01*
X94360952Y-105965619D01*
X94265714Y-106108476D01*
X94218095Y-106298952D01*
X94218095Y-106679904D01*
X94265714Y-106775142D01*
X94313333Y-106822761D01*
X94408571Y-106870380D01*
X94599047Y-106870380D01*
X94694285Y-106822761D01*
X94741904Y-106775142D01*
X94789523Y-106679904D01*
X94789523Y-106441809D01*
X94741904Y-106346571D01*
X94694285Y-106298952D01*
X94599047Y-106251333D01*
X94408571Y-106251333D01*
X94313333Y-106298952D01*
X94265714Y-106346571D01*
X94218095Y-106441809D01*
G04 #@! TO.C,C1*
X140007142Y-98066666D02*
X140054761Y-98114285D01*
X140102380Y-98257142D01*
X140102380Y-98352380D01*
X140054761Y-98495238D01*
X139959523Y-98590476D01*
X139864285Y-98638095D01*
X139673809Y-98685714D01*
X139530952Y-98685714D01*
X139340476Y-98638095D01*
X139245238Y-98590476D01*
X139150000Y-98495238D01*
X139102380Y-98352380D01*
X139102380Y-98257142D01*
X139150000Y-98114285D01*
X139197619Y-98066666D01*
X140102380Y-97114285D02*
X140102380Y-97685714D01*
X140102380Y-97400000D02*
X139102380Y-97400000D01*
X139245238Y-97495238D01*
X139340476Y-97590476D01*
X139388095Y-97685714D01*
G04 #@! TO.C,C2*
X133407142Y-102766666D02*
X133454761Y-102814285D01*
X133502380Y-102957142D01*
X133502380Y-103052380D01*
X133454761Y-103195238D01*
X133359523Y-103290476D01*
X133264285Y-103338095D01*
X133073809Y-103385714D01*
X132930952Y-103385714D01*
X132740476Y-103338095D01*
X132645238Y-103290476D01*
X132550000Y-103195238D01*
X132502380Y-103052380D01*
X132502380Y-102957142D01*
X132550000Y-102814285D01*
X132597619Y-102766666D01*
X132597619Y-102385714D02*
X132550000Y-102338095D01*
X132502380Y-102242857D01*
X132502380Y-102004761D01*
X132550000Y-101909523D01*
X132597619Y-101861904D01*
X132692857Y-101814285D01*
X132788095Y-101814285D01*
X132930952Y-101861904D01*
X133502380Y-102433333D01*
X133502380Y-101814285D01*
G04 #@! TO.C,R1*
X148072380Y-87516666D02*
X147596190Y-87850000D01*
X148072380Y-88088095D02*
X147072380Y-88088095D01*
X147072380Y-87707142D01*
X147120000Y-87611904D01*
X147167619Y-87564285D01*
X147262857Y-87516666D01*
X147405714Y-87516666D01*
X147500952Y-87564285D01*
X147548571Y-87611904D01*
X147596190Y-87707142D01*
X147596190Y-88088095D01*
X148072380Y-86564285D02*
X148072380Y-87135714D01*
X148072380Y-86850000D02*
X147072380Y-86850000D01*
X147215238Y-86945238D01*
X147310476Y-87040476D01*
X147358095Y-87135714D01*
G04 #@! TO.C,R2*
X127483333Y-93332380D02*
X127150000Y-92856190D01*
X126911904Y-93332380D02*
X126911904Y-92332380D01*
X127292857Y-92332380D01*
X127388095Y-92380000D01*
X127435714Y-92427619D01*
X127483333Y-92522857D01*
X127483333Y-92665714D01*
X127435714Y-92760952D01*
X127388095Y-92808571D01*
X127292857Y-92856190D01*
X126911904Y-92856190D01*
X127864285Y-92427619D02*
X127911904Y-92380000D01*
X128007142Y-92332380D01*
X128245238Y-92332380D01*
X128340476Y-92380000D01*
X128388095Y-92427619D01*
X128435714Y-92522857D01*
X128435714Y-92618095D01*
X128388095Y-92760952D01*
X127816666Y-93332380D01*
X128435714Y-93332380D01*
G04 #@! TO.C,R3*
X138692380Y-86196666D02*
X138216190Y-86530000D01*
X138692380Y-86768095D02*
X137692380Y-86768095D01*
X137692380Y-86387142D01*
X137740000Y-86291904D01*
X137787619Y-86244285D01*
X137882857Y-86196666D01*
X138025714Y-86196666D01*
X138120952Y-86244285D01*
X138168571Y-86291904D01*
X138216190Y-86387142D01*
X138216190Y-86768095D01*
X137692380Y-85863333D02*
X137692380Y-85244285D01*
X138073333Y-85577619D01*
X138073333Y-85434761D01*
X138120952Y-85339523D01*
X138168571Y-85291904D01*
X138263809Y-85244285D01*
X138501904Y-85244285D01*
X138597142Y-85291904D01*
X138644761Y-85339523D01*
X138692380Y-85434761D01*
X138692380Y-85720476D01*
X138644761Y-85815714D01*
X138597142Y-85863333D01*
G04 #@! TO.C,R4*
X127782380Y-86366666D02*
X127306190Y-86700000D01*
X127782380Y-86938095D02*
X126782380Y-86938095D01*
X126782380Y-86557142D01*
X126830000Y-86461904D01*
X126877619Y-86414285D01*
X126972857Y-86366666D01*
X127115714Y-86366666D01*
X127210952Y-86414285D01*
X127258571Y-86461904D01*
X127306190Y-86557142D01*
X127306190Y-86938095D01*
X127115714Y-85509523D02*
X127782380Y-85509523D01*
X126734761Y-85747619D02*
X127449047Y-85985714D01*
X127449047Y-85366666D01*
G04 #@! TO.C,R5*
X83082380Y-123576666D02*
X82606190Y-123910000D01*
X83082380Y-124148095D02*
X82082380Y-124148095D01*
X82082380Y-123767142D01*
X82130000Y-123671904D01*
X82177619Y-123624285D01*
X82272857Y-123576666D01*
X82415714Y-123576666D01*
X82510952Y-123624285D01*
X82558571Y-123671904D01*
X82606190Y-123767142D01*
X82606190Y-124148095D01*
X82082380Y-122671904D02*
X82082380Y-123148095D01*
X82558571Y-123195714D01*
X82510952Y-123148095D01*
X82463333Y-123052857D01*
X82463333Y-122814761D01*
X82510952Y-122719523D01*
X82558571Y-122671904D01*
X82653809Y-122624285D01*
X82891904Y-122624285D01*
X82987142Y-122671904D01*
X83034761Y-122719523D01*
X83082380Y-122814761D01*
X83082380Y-123052857D01*
X83034761Y-123148095D01*
X82987142Y-123195714D01*
G04 #@! TO.C,R6*
X159552380Y-96026666D02*
X159076190Y-96360000D01*
X159552380Y-96598095D02*
X158552380Y-96598095D01*
X158552380Y-96217142D01*
X158600000Y-96121904D01*
X158647619Y-96074285D01*
X158742857Y-96026666D01*
X158885714Y-96026666D01*
X158980952Y-96074285D01*
X159028571Y-96121904D01*
X159076190Y-96217142D01*
X159076190Y-96598095D01*
X158552380Y-95169523D02*
X158552380Y-95360000D01*
X158600000Y-95455238D01*
X158647619Y-95502857D01*
X158790476Y-95598095D01*
X158980952Y-95645714D01*
X159361904Y-95645714D01*
X159457142Y-95598095D01*
X159504761Y-95550476D01*
X159552380Y-95455238D01*
X159552380Y-95264761D01*
X159504761Y-95169523D01*
X159457142Y-95121904D01*
X159361904Y-95074285D01*
X159123809Y-95074285D01*
X159028571Y-95121904D01*
X158980952Y-95169523D01*
X158933333Y-95264761D01*
X158933333Y-95455238D01*
X158980952Y-95550476D01*
X159028571Y-95598095D01*
X159123809Y-95645714D01*
G04 #@! TO.C,R7*
X130743333Y-115042380D02*
X130410000Y-114566190D01*
X130171904Y-115042380D02*
X130171904Y-114042380D01*
X130552857Y-114042380D01*
X130648095Y-114090000D01*
X130695714Y-114137619D01*
X130743333Y-114232857D01*
X130743333Y-114375714D01*
X130695714Y-114470952D01*
X130648095Y-114518571D01*
X130552857Y-114566190D01*
X130171904Y-114566190D01*
X131076666Y-114042380D02*
X131743333Y-114042380D01*
X131314761Y-115042380D01*
G04 #@! TO.C,U3*
X128442075Y-102917593D02*
X129251599Y-102917593D01*
X129346837Y-102869974D01*
X129394456Y-102822355D01*
X129442075Y-102727117D01*
X129442075Y-102536641D01*
X129394456Y-102441403D01*
X129346837Y-102393784D01*
X129251599Y-102346165D01*
X128442075Y-102346165D01*
X128442075Y-101965212D02*
X128442075Y-101346165D01*
X128823028Y-101679498D01*
X128823028Y-101536641D01*
X128870647Y-101441403D01*
X128918266Y-101393784D01*
X129013504Y-101346165D01*
X129251599Y-101346165D01*
X129346837Y-101393784D01*
X129394456Y-101441403D01*
X129442075Y-101536641D01*
X129442075Y-101822355D01*
X129394456Y-101917593D01*
X129346837Y-101965212D01*
G04 #@! TO.C,U5*
X83312095Y-133064380D02*
X83312095Y-133873904D01*
X83359714Y-133969142D01*
X83407333Y-134016761D01*
X83502571Y-134064380D01*
X83693047Y-134064380D01*
X83788285Y-134016761D01*
X83835904Y-133969142D01*
X83883523Y-133873904D01*
X83883523Y-133064380D01*
X84835904Y-133064380D02*
X84359714Y-133064380D01*
X84312095Y-133540571D01*
X84359714Y-133492952D01*
X84454952Y-133445333D01*
X84693047Y-133445333D01*
X84788285Y-133492952D01*
X84835904Y-133540571D01*
X84883523Y-133635809D01*
X84883523Y-133873904D01*
X84835904Y-133969142D01*
X84788285Y-134016761D01*
X84693047Y-134064380D01*
X84454952Y-134064380D01*
X84359714Y-134016761D01*
X84312095Y-133969142D01*
G04 #@! TO.C,U8*
X131024380Y-107441904D02*
X131833904Y-107441904D01*
X131929142Y-107394285D01*
X131976761Y-107346666D01*
X132024380Y-107251428D01*
X132024380Y-107060952D01*
X131976761Y-106965714D01*
X131929142Y-106918095D01*
X131833904Y-106870476D01*
X131024380Y-106870476D01*
X131452952Y-106251428D02*
X131405333Y-106346666D01*
X131357714Y-106394285D01*
X131262476Y-106441904D01*
X131214857Y-106441904D01*
X131119619Y-106394285D01*
X131072000Y-106346666D01*
X131024380Y-106251428D01*
X131024380Y-106060952D01*
X131072000Y-105965714D01*
X131119619Y-105918095D01*
X131214857Y-105870476D01*
X131262476Y-105870476D01*
X131357714Y-105918095D01*
X131405333Y-105965714D01*
X131452952Y-106060952D01*
X131452952Y-106251428D01*
X131500571Y-106346666D01*
X131548190Y-106394285D01*
X131643428Y-106441904D01*
X131833904Y-106441904D01*
X131929142Y-106394285D01*
X131976761Y-106346666D01*
X132024380Y-106251428D01*
X132024380Y-106060952D01*
X131976761Y-105965714D01*
X131929142Y-105918095D01*
X131833904Y-105870476D01*
X131643428Y-105870476D01*
X131548190Y-105918095D01*
X131500571Y-105965714D01*
X131452952Y-106060952D01*
G04 #@! TO.C,REF\002A\002A*
X154976666Y-80542380D02*
X154643333Y-80066190D01*
X154405238Y-80542380D02*
X154405238Y-79542380D01*
X154786190Y-79542380D01*
X154881428Y-79590000D01*
X154929047Y-79637619D01*
X154976666Y-79732857D01*
X154976666Y-79875714D01*
X154929047Y-79970952D01*
X154881428Y-80018571D01*
X154786190Y-80066190D01*
X154405238Y-80066190D01*
X155405238Y-80018571D02*
X155738571Y-80018571D01*
X155881428Y-80542380D02*
X155405238Y-80542380D01*
X155405238Y-79542380D01*
X155881428Y-79542380D01*
X156643333Y-80018571D02*
X156310000Y-80018571D01*
X156310000Y-80542380D02*
X156310000Y-79542380D01*
X156786190Y-79542380D01*
X157310000Y-79542380D02*
X157310000Y-79780476D01*
X157071904Y-79685238D02*
X157310000Y-79780476D01*
X157548095Y-79685238D01*
X157167142Y-79970952D02*
X157310000Y-79780476D01*
X157452857Y-79970952D01*
X158071904Y-79542380D02*
X158071904Y-79780476D01*
X157833809Y-79685238D02*
X158071904Y-79780476D01*
X158310000Y-79685238D01*
X157929047Y-79970952D02*
X158071904Y-79780476D01*
X158214761Y-79970952D01*
X155046666Y-124092380D02*
X154713333Y-123616190D01*
X154475238Y-124092380D02*
X154475238Y-123092380D01*
X154856190Y-123092380D01*
X154951428Y-123140000D01*
X154999047Y-123187619D01*
X155046666Y-123282857D01*
X155046666Y-123425714D01*
X154999047Y-123520952D01*
X154951428Y-123568571D01*
X154856190Y-123616190D01*
X154475238Y-123616190D01*
X155475238Y-123568571D02*
X155808571Y-123568571D01*
X155951428Y-124092380D02*
X155475238Y-124092380D01*
X155475238Y-123092380D01*
X155951428Y-123092380D01*
X156713333Y-123568571D02*
X156380000Y-123568571D01*
X156380000Y-124092380D02*
X156380000Y-123092380D01*
X156856190Y-123092380D01*
X157380000Y-123092380D02*
X157380000Y-123330476D01*
X157141904Y-123235238D02*
X157380000Y-123330476D01*
X157618095Y-123235238D01*
X157237142Y-123520952D02*
X157380000Y-123330476D01*
X157522857Y-123520952D01*
X158141904Y-123092380D02*
X158141904Y-123330476D01*
X157903809Y-123235238D02*
X158141904Y-123330476D01*
X158380000Y-123235238D01*
X157999047Y-123520952D02*
X158141904Y-123330476D01*
X158284761Y-123520952D01*
X63446666Y-123932380D02*
X63113333Y-123456190D01*
X62875238Y-123932380D02*
X62875238Y-122932380D01*
X63256190Y-122932380D01*
X63351428Y-122980000D01*
X63399047Y-123027619D01*
X63446666Y-123122857D01*
X63446666Y-123265714D01*
X63399047Y-123360952D01*
X63351428Y-123408571D01*
X63256190Y-123456190D01*
X62875238Y-123456190D01*
X63875238Y-123408571D02*
X64208571Y-123408571D01*
X64351428Y-123932380D02*
X63875238Y-123932380D01*
X63875238Y-122932380D01*
X64351428Y-122932380D01*
X65113333Y-123408571D02*
X64780000Y-123408571D01*
X64780000Y-123932380D02*
X64780000Y-122932380D01*
X65256190Y-122932380D01*
X65780000Y-122932380D02*
X65780000Y-123170476D01*
X65541904Y-123075238D02*
X65780000Y-123170476D01*
X66018095Y-123075238D01*
X65637142Y-123360952D02*
X65780000Y-123170476D01*
X65922857Y-123360952D01*
X66541904Y-122932380D02*
X66541904Y-123170476D01*
X66303809Y-123075238D02*
X66541904Y-123170476D01*
X66780000Y-123075238D01*
X66399047Y-123360952D02*
X66541904Y-123170476D01*
X66684761Y-123360952D01*
X63416666Y-80572380D02*
X63083333Y-80096190D01*
X62845238Y-80572380D02*
X62845238Y-79572380D01*
X63226190Y-79572380D01*
X63321428Y-79620000D01*
X63369047Y-79667619D01*
X63416666Y-79762857D01*
X63416666Y-79905714D01*
X63369047Y-80000952D01*
X63321428Y-80048571D01*
X63226190Y-80096190D01*
X62845238Y-80096190D01*
X63845238Y-80048571D02*
X64178571Y-80048571D01*
X64321428Y-80572380D02*
X63845238Y-80572380D01*
X63845238Y-79572380D01*
X64321428Y-79572380D01*
X65083333Y-80048571D02*
X64750000Y-80048571D01*
X64750000Y-80572380D02*
X64750000Y-79572380D01*
X65226190Y-79572380D01*
X65750000Y-79572380D02*
X65750000Y-79810476D01*
X65511904Y-79715238D02*
X65750000Y-79810476D01*
X65988095Y-79715238D01*
X65607142Y-80000952D02*
X65750000Y-79810476D01*
X65892857Y-80000952D01*
X66511904Y-79572380D02*
X66511904Y-79810476D01*
X66273809Y-79715238D02*
X66511904Y-79810476D01*
X66750000Y-79715238D01*
X66369047Y-80000952D02*
X66511904Y-79810476D01*
X66654761Y-80000952D01*
G04 #@! TD*
M02*
