G04 #@! TF.GenerationSoftware,KiCad,Pcbnew,(5.0.2)-1*
G04 #@! TF.CreationDate,2019-08-17T15:57:10+01:00*
G04 #@! TF.ProjectId,SoliCamb Rev 4 PCB,536f6c69-4361-46d6-9220-526576203420,rev?*
G04 #@! TF.SameCoordinates,Original*
G04 #@! TF.FileFunction,Legend,Bot*
G04 #@! TF.FilePolarity,Positive*
%FSLAX46Y46*%
G04 Gerber Fmt 4.6, Leading zero omitted, Abs format (unit mm)*
G04 Created by KiCad (PCBNEW (5.0.2)-1) date 8/17/2019 3:57:10 PM*
%MOMM*%
%LPD*%
G01*
G04 APERTURE LIST*
%ADD10C,0.120000*%
%ADD11C,0.150000*%
G04 APERTURE END LIST*
D10*
G04 #@! TO.C,BT2*
X68030000Y-90348000D02*
X68030000Y-92848000D01*
X66780000Y-91598000D02*
X69280000Y-91598000D01*
X154280000Y-91598000D02*
X151780000Y-91598000D01*
X149170000Y-89038000D02*
X149170000Y-96018000D01*
X149170000Y-96038000D02*
X71890000Y-96038000D01*
X71890000Y-96038000D02*
X71890000Y-89038000D01*
X149170000Y-82158000D02*
X149170000Y-75158000D01*
X149170000Y-75158000D02*
X71890000Y-75158000D01*
X71890000Y-75158000D02*
X71890000Y-82158000D01*
X71890000Y-89038000D02*
X67530000Y-89038000D01*
G04 #@! TO.C,BT1*
X148916000Y-122798000D02*
X153276000Y-122798000D01*
X148916000Y-136678000D02*
X148916000Y-129678000D01*
X71636000Y-136678000D02*
X148916000Y-136678000D01*
X71636000Y-129678000D02*
X71636000Y-136678000D01*
X148916000Y-115798000D02*
X148916000Y-122798000D01*
X71636000Y-115798000D02*
X148916000Y-115798000D01*
X71636000Y-122798000D02*
X71636000Y-115818000D01*
X66526000Y-120238000D02*
X69026000Y-120238000D01*
X154026000Y-120238000D02*
X151526000Y-120238000D01*
X152776000Y-121488000D02*
X152776000Y-118988000D01*
G04 #@! TO.C,U4*
X65592000Y-120456000D02*
X62932000Y-120456000D01*
X65592000Y-102616000D02*
X65592000Y-120456000D01*
X62932000Y-102616000D02*
X62932000Y-120456000D01*
X65592000Y-102616000D02*
X62932000Y-102616000D01*
X65592000Y-101346000D02*
X65592000Y-100016000D01*
X65592000Y-100016000D02*
X64262000Y-100016000D01*
D11*
G04 #@! TO.C,U9*
X139800000Y-105950000D02*
X139800000Y-96950000D01*
X139800000Y-96950000D02*
X139800000Y-114950000D01*
X139800000Y-114950000D02*
X158400000Y-114950000D01*
X158400000Y-114950000D02*
X158400000Y-96950000D01*
X158400000Y-96950000D02*
X139800000Y-96950000D01*
G04 #@! TO.C,BT2*
X111315714Y-97026571D02*
X111172857Y-97074190D01*
X111125238Y-97121809D01*
X111077619Y-97217047D01*
X111077619Y-97359904D01*
X111125238Y-97455142D01*
X111172857Y-97502761D01*
X111268095Y-97550380D01*
X111649047Y-97550380D01*
X111649047Y-96550380D01*
X111315714Y-96550380D01*
X111220476Y-96598000D01*
X111172857Y-96645619D01*
X111125238Y-96740857D01*
X111125238Y-96836095D01*
X111172857Y-96931333D01*
X111220476Y-96978952D01*
X111315714Y-97026571D01*
X111649047Y-97026571D01*
X110791904Y-96550380D02*
X110220476Y-96550380D01*
X110506190Y-97550380D02*
X110506190Y-96550380D01*
X109934761Y-96645619D02*
X109887142Y-96598000D01*
X109791904Y-96550380D01*
X109553809Y-96550380D01*
X109458571Y-96598000D01*
X109410952Y-96645619D01*
X109363333Y-96740857D01*
X109363333Y-96836095D01*
X109410952Y-96978952D01*
X109982380Y-97550380D01*
X109363333Y-97550380D01*
G04 #@! TO.C,BT1*
X111061714Y-114666571D02*
X110918857Y-114714190D01*
X110871238Y-114761809D01*
X110823619Y-114857047D01*
X110823619Y-114999904D01*
X110871238Y-115095142D01*
X110918857Y-115142761D01*
X111014095Y-115190380D01*
X111395047Y-115190380D01*
X111395047Y-114190380D01*
X111061714Y-114190380D01*
X110966476Y-114238000D01*
X110918857Y-114285619D01*
X110871238Y-114380857D01*
X110871238Y-114476095D01*
X110918857Y-114571333D01*
X110966476Y-114618952D01*
X111061714Y-114666571D01*
X111395047Y-114666571D01*
X110537904Y-114190380D02*
X109966476Y-114190380D01*
X110252190Y-115190380D02*
X110252190Y-114190380D01*
X109109333Y-115190380D02*
X109680761Y-115190380D01*
X109395047Y-115190380D02*
X109395047Y-114190380D01*
X109490285Y-114333238D01*
X109585523Y-114428476D01*
X109680761Y-114476095D01*
G04 #@! TO.C,U4*
X65023904Y-98468380D02*
X65023904Y-99277904D01*
X64976285Y-99373142D01*
X64928666Y-99420761D01*
X64833428Y-99468380D01*
X64642952Y-99468380D01*
X64547714Y-99420761D01*
X64500095Y-99373142D01*
X64452476Y-99277904D01*
X64452476Y-98468380D01*
X63547714Y-98801714D02*
X63547714Y-99468380D01*
X63785809Y-98420761D02*
X64023904Y-99135047D01*
X63404857Y-99135047D01*
G04 #@! TO.C,U9*
X151777380Y-105188095D02*
X152586904Y-105188095D01*
X152682142Y-105235714D01*
X152729761Y-105283333D01*
X152777380Y-105378571D01*
X152777380Y-105569047D01*
X152729761Y-105664285D01*
X152682142Y-105711904D01*
X152586904Y-105759523D01*
X151777380Y-105759523D01*
X152777380Y-106283333D02*
X152777380Y-106473809D01*
X152729761Y-106569047D01*
X152682142Y-106616666D01*
X152539285Y-106711904D01*
X152348809Y-106759523D01*
X151967857Y-106759523D01*
X151872619Y-106711904D01*
X151825000Y-106664285D01*
X151777380Y-106569047D01*
X151777380Y-106378571D01*
X151825000Y-106283333D01*
X151872619Y-106235714D01*
X151967857Y-106188095D01*
X152205952Y-106188095D01*
X152301190Y-106235714D01*
X152348809Y-106283333D01*
X152396428Y-106378571D01*
X152396428Y-106569047D01*
X152348809Y-106664285D01*
X152301190Y-106711904D01*
X152205952Y-106759523D01*
G04 #@! TD*
M02*
