G04 #@! TF.GenerationSoftware,KiCad,Pcbnew,(5.0.2)-1*
G04 #@! TF.CreationDate,2019-08-17T15:57:10+01:00*
G04 #@! TF.ProjectId,SoliCamb Rev 4 PCB,536f6c69-4361-46d6-9220-526576203420,rev?*
G04 #@! TF.SameCoordinates,Original*
G04 #@! TF.FileFunction,Copper,L2,Bot*
G04 #@! TF.FilePolarity,Positive*
%FSLAX46Y46*%
G04 Gerber Fmt 4.6, Leading zero omitted, Abs format (unit mm)*
G04 Created by KiCad (PCBNEW (5.0.2)-1) date 8/17/2019 3:57:10 PM*
%MOMM*%
%LPD*%
G01*
G04 APERTURE LIST*
G04 #@! TA.AperFunction,SMDPad,CuDef*
%ADD10R,7.340000X6.350000*%
G04 #@! TD*
G04 #@! TA.AperFunction,ComponentPad*
%ADD11R,1.700000X1.700000*%
G04 #@! TD*
G04 #@! TA.AperFunction,ComponentPad*
%ADD12O,1.700000X1.700000*%
G04 #@! TD*
G04 #@! TA.AperFunction,ComponentPad*
%ADD13R,1.200000X1.200000*%
G04 #@! TD*
G04 #@! TA.AperFunction,ComponentPad*
%ADD14C,1.200000*%
G04 #@! TD*
G04 #@! TA.AperFunction,ComponentPad*
%ADD15C,1.600000*%
G04 #@! TD*
G04 #@! TA.AperFunction,ComponentPad*
%ADD16O,1.600000X1.600000*%
G04 #@! TD*
G04 #@! TA.AperFunction,ComponentPad*
%ADD17C,2.400000*%
G04 #@! TD*
G04 #@! TA.AperFunction,ComponentPad*
%ADD18O,2.400000X2.400000*%
G04 #@! TD*
G04 #@! TA.AperFunction,ComponentPad*
%ADD19C,2.000000*%
G04 #@! TD*
G04 #@! TA.AperFunction,ComponentPad*
%ADD20C,1.524000*%
G04 #@! TD*
G04 #@! TA.AperFunction,ComponentPad*
%ADD21C,1.300000*%
G04 #@! TD*
G04 #@! TA.AperFunction,ComponentPad*
%ADD22C,3.000000*%
G04 #@! TD*
G04 #@! TA.AperFunction,ViaPad*
%ADD23C,0.800000*%
G04 #@! TD*
G04 #@! TA.AperFunction,Conductor*
%ADD24C,4.000000*%
G04 #@! TD*
G04 #@! TA.AperFunction,Conductor*
%ADD25C,2.000000*%
G04 #@! TD*
G04 #@! TA.AperFunction,Conductor*
%ADD26C,1.000000*%
G04 #@! TD*
G04 #@! TA.AperFunction,Conductor*
%ADD27C,0.500000*%
G04 #@! TD*
G04 #@! TA.AperFunction,Conductor*
%ADD28C,0.250000*%
G04 #@! TD*
G04 #@! TA.AperFunction,Conductor*
%ADD29C,0.254000*%
G04 #@! TD*
G04 APERTURE END LIST*
D10*
G04 #@! TO.P,BT2,2*
G04 #@! TO.N,Net-(BT2-Pad2)*
X149860000Y-85598000D03*
G04 #@! TO.P,BT2,1*
G04 #@! TO.N,Net-(BT2-Pad1)*
X71200000Y-85598000D03*
G04 #@! TD*
G04 #@! TO.P,BT1,1*
G04 #@! TO.N,Net-(BT1-Pad1)*
X149606000Y-126238000D03*
G04 #@! TO.P,BT1,2*
G04 #@! TO.N,Net-(BT1-Pad2)*
X70946000Y-126238000D03*
G04 #@! TD*
D11*
G04 #@! TO.P,U4,1*
G04 #@! TO.N,Net-(U4-Pad1)*
X64262000Y-101346000D03*
D12*
G04 #@! TO.P,U4,2*
G04 #@! TO.N,SCK*
X64262000Y-103886000D03*
G04 #@! TO.P,U4,3*
G04 #@! TO.N,MOSI*
X64262000Y-106426000D03*
G04 #@! TO.P,U4,4*
G04 #@! TO.N,MISO*
X64262000Y-108966000D03*
G04 #@! TO.P,U4,5*
G04 #@! TO.N,N/C*
X64262000Y-111506000D03*
G04 #@! TO.P,U4,6*
G04 #@! TO.N,GND*
X64262000Y-114046000D03*
G04 #@! TO.P,U4,7*
G04 #@! TO.N,Net-(U4-Pad7)*
X64262000Y-116586000D03*
G04 #@! TO.P,U4,8*
G04 #@! TO.N,+3V3*
X64262000Y-119126000D03*
G04 #@! TD*
D11*
G04 #@! TO.P,U7,1*
G04 #@! TO.N,Net-(U6-Pad12)*
X88519000Y-74803000D03*
D12*
G04 #@! TO.P,U7,2*
G04 #@! TO.N,Net-(U6-Pad9)*
X85979000Y-74803000D03*
G04 #@! TO.P,U7,3*
G04 #@! TO.N,+3V3*
X83439000Y-74803000D03*
G04 #@! TO.P,U7,4*
G04 #@! TO.N,Net-(U6-Pad11)*
X80899000Y-74803000D03*
G04 #@! TO.P,U7,5*
G04 #@! TO.N,GND*
X78359000Y-74803000D03*
G04 #@! TO.P,U7,6*
G04 #@! TO.N,Net-(U6-Pad10)*
X75819000Y-74803000D03*
G04 #@! TO.P,U7,7*
G04 #@! TO.N,N/C*
X73279000Y-74803000D03*
G04 #@! TD*
D13*
G04 #@! TO.P,C1,1*
G04 #@! TO.N,Net-(C1-Pad1)*
X136400000Y-96900000D03*
D14*
G04 #@! TO.P,C1,2*
G04 #@! TO.N,GND*
X136400000Y-98900000D03*
G04 #@! TD*
G04 #@! TO.P,C2,2*
G04 #@! TO.N,GND*
X136300000Y-101600000D03*
D13*
G04 #@! TO.P,C2,1*
G04 #@! TO.N,Net-(C2-Pad1)*
X136300000Y-103600000D03*
G04 #@! TD*
D15*
G04 #@! TO.P,R1,1*
G04 #@! TO.N,Net-(J9-Pad2)*
X144900000Y-81000000D03*
D16*
G04 #@! TO.P,R1,2*
G04 #@! TO.N,GND*
X144900000Y-93700000D03*
G04 #@! TD*
G04 #@! TO.P,R2,2*
G04 #@! TO.N,GND*
X134000000Y-95600000D03*
D15*
G04 #@! TO.P,R2,1*
G04 #@! TO.N,Net-(R2-Pad1)*
X121300000Y-95600000D03*
G04 #@! TD*
G04 #@! TO.P,R3,1*
G04 #@! TO.N,Net-(J10-Pad2)*
X135520000Y-79680000D03*
D16*
G04 #@! TO.P,R3,2*
G04 #@! TO.N,GND*
X135520000Y-92380000D03*
G04 #@! TD*
D17*
G04 #@! TO.P,R4,1*
G04 #@! TO.N,Net-(J11-Pad2)*
X124410000Y-79850000D03*
D18*
G04 #@! TO.P,R4,2*
G04 #@! TO.N,GND*
X124410000Y-92550000D03*
G04 #@! TD*
D15*
G04 #@! TO.P,R5,1*
G04 #@! TO.N,Net-(Q2-Pad1)*
X85350000Y-129760000D03*
D16*
G04 #@! TO.P,R5,2*
G04 #@! TO.N,Net-(R5-Pad2)*
X85350000Y-117060000D03*
G04 #@! TD*
G04 #@! TO.P,R6,2*
G04 #@! TO.N,Net-(R6-Pad2)*
X156380000Y-102210000D03*
D15*
G04 #@! TO.P,R6,1*
G04 #@! TO.N,Net-(Q3-Pad3)*
X156380000Y-89510000D03*
G04 #@! TD*
D16*
G04 #@! TO.P,R7,2*
G04 #@! TO.N,Net-(R7-Pad2)*
X124560000Y-111870000D03*
D15*
G04 #@! TO.P,R7,1*
G04 #@! TO.N,Net-(Q3-Pad1)*
X137260000Y-111870000D03*
G04 #@! TD*
D19*
G04 #@! TO.P,U3,1*
G04 #@! TO.N,Net-(C2-Pad1)*
X131704955Y-106377169D03*
G04 #@! TO.P,U3,5*
G04 #@! TO.N,GND*
X131702415Y-102816089D03*
G04 #@! TO.P,U3,4*
G04 #@! TO.N,Net-(C1-Pad1)*
X131704955Y-99255009D03*
G04 #@! TO.P,U3,2*
G04 #@! TO.N,N/C*
X122185035Y-106377169D03*
G04 #@! TO.P,U3,3*
G04 #@! TO.N,Net-(R2-Pad1)*
X122187575Y-99252469D03*
G04 #@! TD*
D20*
G04 #@! TO.P,U5,1*
G04 #@! TO.N,N/C*
X89074000Y-136612000D03*
G04 #@! TO.P,U5,2*
G04 #@! TO.N,Net-(U5-Pad2)*
X86614000Y-136652000D03*
G04 #@! TO.P,U5,3*
G04 #@! TO.N,Net-(U5-Pad3)*
X84074000Y-136652000D03*
G04 #@! TO.P,U5,4*
G04 #@! TO.N,Net-(Q2-Pad2)*
X81534000Y-136652000D03*
G04 #@! TO.P,U5,5*
G04 #@! TO.N,+3V3*
X78994000Y-136652000D03*
G04 #@! TD*
G04 #@! TO.P,U8,1*
G04 #@! TO.N,Net-(R6-Pad2)*
X153162000Y-96520000D03*
G04 #@! TO.P,U8,2*
G04 #@! TO.N,Net-(U6-Pad24)*
X153162000Y-99060000D03*
G04 #@! TO.P,U8,3*
G04 #@! TO.N,Net-(U6-Pad25)*
X153162000Y-101600000D03*
G04 #@! TO.P,U8,4*
G04 #@! TO.N,Net-(U6-Pad26)*
X153162000Y-104140000D03*
G04 #@! TO.P,U8,5*
G04 #@! TO.N,Net-(U6-Pad27)*
X153162000Y-106680000D03*
G04 #@! TO.P,U8,6*
G04 #@! TO.N,Net-(U6-Pad28)*
X153162000Y-109220000D03*
G04 #@! TO.P,U8,7*
G04 #@! TO.N,GND*
X153162000Y-111760000D03*
G04 #@! TO.P,U8,8*
G04 #@! TO.N,+3V3*
X153162000Y-114300000D03*
G04 #@! TD*
D21*
G04 #@! TO.P,U9,2*
G04 #@! TO.N,USB_DM*
X147800000Y-104950000D03*
G04 #@! TO.P,U9,3*
G04 #@! TO.N,USB_DP*
X147800000Y-106950000D03*
G04 #@! TO.P,U9,4*
G04 #@! TO.N,USB_GND*
X147800000Y-109450000D03*
G04 #@! TO.P,U9,1*
G04 #@! TO.N,+5V*
X147800000Y-102450000D03*
G04 #@! TO.P,U9,7*
G04 #@! TO.N,SCK*
X146300000Y-105950000D03*
G04 #@! TO.P,U9,6*
G04 #@! TO.N,CS1*
X146300000Y-107950000D03*
G04 #@! TO.P,U9,8*
G04 #@! TO.N,MOSI*
X146300000Y-103950000D03*
G04 #@! TO.P,U9,5*
G04 #@! TO.N,USB_3V*
X146300000Y-109950000D03*
G04 #@! TO.P,U9,9*
G04 #@! TO.N,MISO*
X146300000Y-101950000D03*
G04 #@! TO.P,U9,10*
G04 #@! TO.N,+5V*
X144600000Y-102450000D03*
G04 #@! TO.P,U9,11*
G04 #@! TO.N,CS3*
X144600000Y-104950000D03*
G04 #@! TO.P,U9,13*
G04 #@! TO.N,USB_GND*
X144600000Y-109450000D03*
G04 #@! TO.P,U9,15*
G04 #@! TO.N,CS2*
X143100000Y-107950000D03*
G04 #@! TO.P,U9,12*
G04 #@! TO.N,CS4*
X144600000Y-106950000D03*
G04 #@! TO.P,U9,16*
G04 #@! TO.N,SCK*
X143100000Y-105950000D03*
G04 #@! TO.P,U9,17*
G04 #@! TO.N,MOSI*
X143100000Y-103950000D03*
G04 #@! TO.P,U9,14*
G04 #@! TO.N,USB_3V*
X143100000Y-109950000D03*
G04 #@! TO.P,U9,18*
G04 #@! TO.N,MISO*
X143100000Y-101950000D03*
D22*
G04 #@! TO.P,U9,19*
G04 #@! TO.N,N/C*
X149800000Y-99380000D03*
G04 #@! TO.P,U9,20*
X149810000Y-112510000D03*
G04 #@! TD*
D23*
G04 #@! TO.N,Net-(BT1-Pad1)*
X114900000Y-130000000D03*
G04 #@! TO.N,Net-(BT1-Pad2)*
X73406000Y-126100000D03*
X73406000Y-128524000D03*
X71004000Y-126100000D03*
X69110000Y-124206000D03*
X69110000Y-127694990D03*
X109300000Y-126100000D03*
X87800000Y-125700000D03*
G04 #@! TO.N,GND*
X131800000Y-125704000D03*
X115062000Y-124245010D03*
X112000000Y-91900000D03*
X97800000Y-87600000D03*
X97000000Y-86800000D03*
X97700000Y-86100000D03*
X98400000Y-86800000D03*
X129794000Y-74803000D03*
X138557000Y-74799000D03*
X147574000Y-74926000D03*
X101900010Y-122999990D03*
X103712748Y-131487252D03*
X88400000Y-133400000D03*
X71120000Y-98298000D03*
X68580000Y-95748000D03*
X81300000Y-80400000D03*
X84800000Y-83334315D03*
X87134315Y-83334315D03*
X92500000Y-93700000D03*
X94092804Y-92107196D03*
G04 #@! TO.N,+3V3*
X133500000Y-77600000D03*
X124700000Y-77600000D03*
X142494000Y-77181000D03*
X149500000Y-95150000D03*
X147300000Y-93200000D03*
X66554989Y-110000000D03*
X73600000Y-97800000D03*
G04 #@! TO.N,Net-(BT2-Pad2)*
X124500000Y-85000000D03*
G04 #@! TO.N,Net-(BT2-Pad1)*
X111500000Y-82800000D03*
G04 #@! TO.N,MISO*
X72200000Y-110900000D03*
G04 #@! TO.N,+5V*
X120800000Y-111700000D03*
X93800000Y-87000010D03*
G04 #@! TO.N,USB_DM*
X86360000Y-120142000D03*
G04 #@! TO.N,USB_DP*
X88900000Y-119380000D03*
X143289763Y-119423069D03*
G04 #@! TO.N,Net-(U4-Pad7)*
X78900000Y-113600000D03*
G04 #@! TO.N,Net-(U5-Pad2)*
X83900000Y-131200000D03*
X79600000Y-123000000D03*
X79900000Y-107600000D03*
X81200000Y-100600000D03*
G04 #@! TO.N,Net-(U5-Pad3)*
X78200000Y-128700000D03*
X78200000Y-123000000D03*
X77800000Y-107433000D03*
X78800000Y-97800000D03*
G04 #@! TO.N,Net-(U6-Pad24)*
X109474000Y-118073000D03*
G04 #@! TO.N,Net-(U6-Pad28)*
X100584000Y-112014000D03*
G04 #@! TO.N,Net-(U6-Pad25)*
X106934304Y-117523815D03*
G04 #@! TO.N,SCK*
X70866000Y-119380000D03*
X142999587Y-121129579D03*
G04 #@! TO.N,MOSI*
X76200000Y-119380000D03*
X142000531Y-121173042D03*
G04 #@! TO.N,MISO*
X73914000Y-120592998D03*
X141003460Y-121096540D03*
G04 #@! TO.N,CS1*
X99568000Y-89916000D03*
G04 #@! TO.N,CS2*
X101854000Y-89916000D03*
G04 #@! TO.N,CS3*
X104140000Y-88900000D03*
G04 #@! TO.N,GND*
X81350000Y-92230000D03*
X87134315Y-88334315D03*
X135219923Y-105777337D03*
X148870000Y-121388520D03*
G04 #@! TO.N,+3V3*
X133840000Y-111830000D03*
X124780000Y-110030000D03*
X155956000Y-117094000D03*
X157430000Y-112180000D03*
X154838984Y-125908307D03*
X153500000Y-120900000D03*
G04 #@! TO.N,+5V*
X144189156Y-99270000D03*
G04 #@! TO.N,Net-(Q3-Pad3)*
X152500000Y-94200000D03*
G04 #@! TO.N,Net-(Q3-Pad1)*
X140099137Y-99802538D03*
X143423848Y-97656152D03*
G04 #@! TO.N,Net-(R7-Pad2)*
X115280000Y-114640000D03*
G04 #@! TO.N,MOSI*
X70395000Y-115610000D03*
X76200000Y-113548000D03*
G04 #@! TO.N,CS1*
X148009608Y-108184913D03*
G04 #@! TO.N,CS2*
X131754653Y-92375347D03*
X140719380Y-105101115D03*
G04 #@! TO.N,CS3*
X142029918Y-102596087D03*
X142583848Y-96816152D03*
G04 #@! TO.N,CS4*
X125904945Y-112485656D03*
G04 #@! TO.N,Net-(J1-Pad2)*
X98700000Y-117000000D03*
X107800000Y-83800000D03*
X105900000Y-83800000D03*
X103700000Y-83800000D03*
X136963001Y-137163001D03*
X138700000Y-137163001D03*
X140500000Y-137163001D03*
X114463001Y-137163001D03*
X115700000Y-137163001D03*
X117000000Y-137163001D03*
G04 #@! TO.N,Net-(U6-Pad27)*
X103124000Y-116112001D03*
G04 #@! TO.N,Net-(U6-Pad26)*
X104516001Y-116803000D03*
G04 #@! TO.N,USB_GND*
X124850000Y-114470000D03*
G04 #@! TO.N,USB_DM*
X143946990Y-120236990D03*
X143908065Y-114662001D03*
X150550000Y-109620000D03*
G04 #@! TO.N,USB_DP*
X143821354Y-113665765D03*
X149225010Y-109600990D03*
G04 #@! TD*
D24*
G04 #@! TO.N,Net-(BT1-Pad1)*
X145844000Y-130000000D02*
X149606000Y-126238000D01*
X114900000Y-130000000D02*
X145844000Y-130000000D01*
G04 #@! TO.N,Net-(BT1-Pad2)*
X102300000Y-126100000D02*
X101900000Y-125700000D01*
X109300000Y-126100000D02*
X102300000Y-126100000D01*
X101900000Y-125700000D02*
X87800000Y-125700000D01*
G04 #@! TO.N,GND*
X131800000Y-125704000D02*
X130341010Y-124245010D01*
X130341010Y-124245010D02*
X115062000Y-124245010D01*
D25*
X132294000Y-74803000D02*
X132297000Y-74800000D01*
X129794000Y-74803000D02*
X132294000Y-74803000D01*
X132297000Y-74800000D02*
X138556000Y-74800000D01*
X138556000Y-74800000D02*
X138557000Y-74799000D01*
X141057000Y-74799000D02*
X141058000Y-74800000D01*
X138557000Y-74799000D02*
X141057000Y-74799000D01*
X141058000Y-74800000D02*
X147448000Y-74800000D01*
X147448000Y-74800000D02*
X147574000Y-74926000D01*
D24*
X103712748Y-131487252D02*
X90312748Y-131487252D01*
X90312748Y-131487252D02*
X88400000Y-133400000D01*
D26*
X78359000Y-74803000D02*
X78359000Y-77459000D01*
X78359000Y-77459000D02*
X81300000Y-80400000D01*
X84800000Y-83334315D02*
X87134315Y-83334315D01*
X92500000Y-93700000D02*
X94092804Y-92107196D01*
D27*
X71120000Y-100073000D02*
X71120000Y-98298000D01*
X65562001Y-105630999D02*
X71120000Y-100073000D01*
X65562001Y-112745999D02*
X65562001Y-105630999D01*
X64262000Y-114046000D02*
X65562001Y-112745999D01*
D26*
G04 #@! TO.N,+3V3*
X133500000Y-77600000D02*
X124700000Y-77600000D01*
X142075000Y-77600000D02*
X142494000Y-77181000D01*
X133500000Y-77600000D02*
X142075000Y-77600000D01*
X149500000Y-93750000D02*
X148950000Y-93200000D01*
X149500000Y-95150000D02*
X149500000Y-93750000D01*
X148950000Y-93200000D02*
X147300000Y-93200000D01*
X77916370Y-136652000D02*
X76300000Y-135035630D01*
X78994000Y-136652000D02*
X77916370Y-136652000D01*
X76300000Y-123500000D02*
X75900000Y-123100000D01*
X76300000Y-135035630D02*
X76300000Y-123500000D01*
X75900000Y-123086998D02*
X75113002Y-122300000D01*
X75900000Y-123100000D02*
X75900000Y-123086998D01*
X75113002Y-122300000D02*
X64300000Y-122300000D01*
X64262000Y-122262000D02*
X64262000Y-119126000D01*
X64300000Y-122300000D02*
X64262000Y-122262000D01*
D27*
X66554989Y-110000000D02*
X73600000Y-102954989D01*
X73600000Y-102954989D02*
X73600000Y-97800000D01*
D25*
G04 #@! TO.N,Net-(BT2-Pad2)*
X149262000Y-85000000D02*
X149860000Y-85598000D01*
X124500000Y-85000000D02*
X149262000Y-85000000D01*
G04 #@! TO.N,Net-(BT2-Pad1)*
X84157012Y-80699990D02*
X109399990Y-80699990D01*
X71200000Y-85598000D02*
X79259002Y-85598000D01*
X79259002Y-85598000D02*
X84157012Y-80699990D01*
X109399990Y-80699990D02*
X111500000Y-82800000D01*
D28*
G04 #@! TO.N,MISO*
X67398081Y-110900000D02*
X72200000Y-110900000D01*
X67398081Y-112648921D02*
X67398081Y-110900000D01*
X64826001Y-115221001D02*
X67398081Y-112648921D01*
X63697999Y-115221001D02*
X64826001Y-115221001D01*
X62830010Y-114353012D02*
X63697999Y-115221001D01*
X62830010Y-110397990D02*
X62830010Y-114353012D01*
X64262000Y-108966000D02*
X62830010Y-110397990D01*
D24*
G04 #@! TO.N,+5V*
X115217997Y-109413999D02*
X93800000Y-87996002D01*
X120800000Y-111700000D02*
X118513999Y-109413999D01*
X118513999Y-109413999D02*
X115217997Y-109413999D01*
X93800000Y-87996002D02*
X93800000Y-87000010D01*
D28*
G04 #@! TO.N,USB_DM*
X86454990Y-120236990D02*
X86360000Y-120142000D01*
X135636000Y-120236990D02*
X86454990Y-120236990D01*
X135636000Y-120236990D02*
X139563010Y-120236990D01*
G04 #@! TO.N,USB_DP*
X88900000Y-119380000D02*
X89043013Y-119236987D01*
X89043013Y-119236987D02*
X143336987Y-119236987D01*
X143336987Y-119236987D02*
X143289763Y-119423069D01*
G04 #@! TO.N,Net-(U4-Pad7)*
X64262000Y-116586000D02*
X75914000Y-116586000D01*
X75914000Y-116586000D02*
X78900000Y-113600000D01*
G04 #@! TO.N,Net-(U5-Pad2)*
X83900000Y-130634315D02*
X79600000Y-126334315D01*
X83900000Y-131200000D02*
X83900000Y-130634315D01*
X79600000Y-126334315D02*
X79600000Y-123000000D01*
X79900000Y-107034315D02*
X81300000Y-105634315D01*
X79900000Y-107600000D02*
X79900000Y-107034315D01*
X81300000Y-105634315D02*
X81300000Y-100700000D01*
X81300000Y-100700000D02*
X81200000Y-100600000D01*
G04 #@! TO.N,Net-(U5-Pad3)*
X78200000Y-128700000D02*
X78200000Y-123100000D01*
X78200000Y-123100000D02*
X78200000Y-123000000D01*
X77800000Y-107433000D02*
X77800000Y-98800000D01*
X77800000Y-98800000D02*
X78800000Y-97800000D01*
G04 #@! TO.N,Net-(U6-Pad25)*
X155599028Y-115380964D02*
X153631992Y-117348000D01*
X153162000Y-101600000D02*
X155599028Y-104037028D01*
X155599028Y-104037028D02*
X155599028Y-115380964D01*
X144685999Y-118967601D02*
X144685999Y-117442001D01*
X145476399Y-119758001D02*
X144685999Y-118967601D01*
X146935601Y-119758001D02*
X145476399Y-119758001D01*
X153631992Y-117348000D02*
X149345602Y-117348000D01*
X149345602Y-117348000D02*
X146935601Y-119758001D01*
X144685999Y-117442001D02*
X144112001Y-117442001D01*
X144112001Y-117442001D02*
X144018000Y-117348000D01*
X144018000Y-117348000D02*
X107110119Y-117348000D01*
X107110119Y-117348000D02*
X106934304Y-117523815D01*
G04 #@! TO.N,SCK*
X71265999Y-119779999D02*
X70866000Y-119380000D01*
X76071590Y-121920000D02*
X75469589Y-121317999D01*
X142999587Y-121129579D02*
X142900000Y-121229166D01*
X75469589Y-121317999D02*
X72803999Y-121317999D01*
X142900000Y-121346575D02*
X141946575Y-122300000D01*
X142900000Y-121229166D02*
X142900000Y-121346575D01*
X138139590Y-122300000D02*
X137759590Y-121920000D01*
X72803999Y-121317999D02*
X71265999Y-119779999D01*
X141946575Y-122300000D02*
X138139590Y-122300000D01*
X137759590Y-121920000D02*
X76071590Y-121920000D01*
G04 #@! TO.N,MOSI*
X76200000Y-121412000D02*
X76200000Y-119634000D01*
X76200000Y-119634000D02*
X76200000Y-119380000D01*
X137160000Y-121412000D02*
X76200000Y-121412000D01*
X138297541Y-121821541D02*
X141351461Y-121821541D01*
X137160000Y-121412000D02*
X137888000Y-121412000D01*
X137888000Y-121412000D02*
X138297541Y-121821541D01*
X142000491Y-121173002D02*
X142000531Y-121173042D01*
X142000000Y-121173002D02*
X142000491Y-121173002D01*
X141351461Y-121821541D02*
X142000531Y-121173042D01*
G04 #@! TO.N,MISO*
X75851999Y-118654999D02*
X73914000Y-120592998D01*
X76548001Y-118654999D02*
X75851999Y-118654999D01*
X78854992Y-120961990D02*
X76548001Y-118654999D01*
X136019019Y-120961990D02*
X78854992Y-120961990D01*
X136738010Y-120961990D02*
X136800000Y-120900000D01*
X136019019Y-120961990D02*
X136738010Y-120961990D01*
X136800000Y-120900000D02*
X140806920Y-120900000D01*
X140806920Y-120900000D02*
X141003460Y-121096540D01*
D26*
G04 #@! TO.N,USB_GND*
X147800000Y-110448002D02*
X146742002Y-111506000D01*
X147800000Y-109450000D02*
X147800000Y-110448002D01*
X146742002Y-111506000D02*
X146050000Y-111506000D01*
D28*
G04 #@! TO.N,CS1*
X128780000Y-87630000D02*
X99822000Y-87630000D01*
X99822000Y-87630000D02*
X99822000Y-89662000D01*
X99822000Y-89662000D02*
X99568000Y-89916000D01*
D26*
G04 #@! TO.N,GND*
X81350000Y-92230000D02*
X83238630Y-92230000D01*
X83238630Y-92230000D02*
X87134315Y-88334315D01*
G04 #@! TO.N,+3V3*
X133770000Y-111760000D02*
X133840000Y-111830000D01*
X133274315Y-111830000D02*
X133840000Y-111830000D01*
X127145685Y-111830000D02*
X133274315Y-111830000D01*
X125345685Y-110030000D02*
X127145685Y-111830000D01*
X124780000Y-110030000D02*
X125345685Y-110030000D01*
X156355999Y-116427143D02*
X157430000Y-115353142D01*
X155956000Y-117094000D02*
X156355999Y-116694001D01*
X156355999Y-116694001D02*
X156355999Y-116427143D01*
X157430000Y-115353142D02*
X157430000Y-112180000D01*
D27*
X154838984Y-125908307D02*
X154838984Y-122238984D01*
X154838984Y-122238984D02*
X153500000Y-120900000D01*
D25*
G04 #@! TO.N,+5V*
X140406990Y-101905008D02*
X143041998Y-99270000D01*
X140406990Y-102853012D02*
X140406990Y-101905008D01*
X134682832Y-108577170D02*
X140406990Y-102853012D01*
X126284736Y-108577170D02*
X134682832Y-108577170D01*
X143041998Y-99270000D02*
X144189156Y-99270000D01*
D26*
X123922830Y-108577170D02*
X126284736Y-108577170D01*
X120800000Y-111700000D02*
X123922830Y-108577170D01*
D25*
G04 #@! TO.N,Net-(Q3-Pad3)*
X155248630Y-89510000D02*
X152520000Y-92238630D01*
X156380000Y-89510000D02*
X155248630Y-89510000D01*
X152520000Y-92238630D02*
X152520000Y-94180000D01*
X152520000Y-94180000D02*
X152500000Y-94200000D01*
D28*
G04 #@! TO.N,Net-(Q3-Pad1)*
X140099137Y-99802538D02*
X142261675Y-97640000D01*
X142261675Y-97640000D02*
X143407696Y-97640000D01*
X143407696Y-97640000D02*
X143423848Y-97656152D01*
D25*
G04 #@! TO.N,Net-(R6-Pad2)*
X154239630Y-96520000D02*
X153162000Y-96520000D01*
X156380000Y-98660370D02*
X154239630Y-96520000D01*
X156380000Y-102210000D02*
X156380000Y-98660370D01*
D28*
G04 #@! TO.N,Net-(R7-Pad2)*
X121763051Y-114025009D02*
X123125009Y-112663051D01*
X115280000Y-114640000D02*
X115894991Y-114025009D01*
X115894991Y-114025009D02*
X121763051Y-114025009D01*
X123428630Y-111870000D02*
X124560000Y-111870000D01*
X123125009Y-112173621D02*
X123428630Y-111870000D01*
X123125009Y-112663051D02*
X123125009Y-112173621D01*
G04 #@! TO.N,Net-(U6-Pad24)*
X154249001Y-100147001D02*
X153923999Y-99821999D01*
X156049038Y-115567364D02*
X156049038Y-103752885D01*
X153760402Y-117856000D02*
X156049038Y-115567364D01*
X149474012Y-117856000D02*
X153760402Y-117856000D01*
X147122002Y-120208010D02*
X149474012Y-117856000D01*
X109474000Y-118073000D02*
X109691000Y-117856000D01*
X109691000Y-117856000D02*
X143256000Y-117856000D01*
X154249001Y-101952848D02*
X154249001Y-100147001D01*
X143256000Y-117856000D02*
X144018000Y-118618000D01*
X156049038Y-103752885D02*
X154249001Y-101952848D01*
X144018000Y-118618000D02*
X144018000Y-119126000D01*
X144018000Y-119126000D02*
X145100011Y-120208011D01*
X153923999Y-99821999D02*
X153162000Y-99060000D01*
X145100011Y-120208011D02*
X147122002Y-120208010D01*
G04 #@! TO.N,Net-(U6-Pad28)*
X100584000Y-115214000D02*
X100584000Y-112014000D01*
X100757001Y-115387001D02*
X100584000Y-115214000D01*
X153683761Y-115387001D02*
X100757001Y-115387001D01*
X154249001Y-114821761D02*
X153683761Y-115387001D01*
X153162000Y-109220000D02*
X154249001Y-110307001D01*
X154249001Y-110307001D02*
X154249001Y-114821761D01*
G04 #@! TO.N,MOSI*
X70960685Y-115610000D02*
X73060685Y-113510000D01*
X70395000Y-115610000D02*
X70960685Y-115610000D01*
X73060685Y-113510000D02*
X76162000Y-113510000D01*
X76162000Y-113510000D02*
X76200000Y-113548000D01*
G04 #@! TO.N,MISO*
X145650001Y-101300001D02*
X146300000Y-101950000D01*
X143749999Y-101300001D02*
X145650001Y-101300001D01*
X143100000Y-101950000D02*
X143749999Y-101300001D01*
G04 #@! TO.N,CS1*
X136798001Y-95648001D02*
X128780000Y-87630000D01*
X142441003Y-95648001D02*
X136798001Y-95648001D01*
X148775001Y-101981999D02*
X142441003Y-95648001D01*
X148775001Y-107419520D02*
X148775001Y-101981999D01*
X148009608Y-108184913D02*
X148775001Y-107419520D01*
G04 #@! TO.N,CS2*
X101854000Y-88392000D02*
X101854000Y-89916000D01*
X102108000Y-88392000D02*
X101854000Y-88392000D01*
X102419990Y-88080010D02*
X102108000Y-88392000D01*
X131754653Y-92375347D02*
X127459316Y-88080010D01*
X127459316Y-88080010D02*
X102419990Y-88080010D01*
X141281990Y-106131990D02*
X141281990Y-105150992D01*
X143100000Y-107950000D02*
X141281990Y-106131990D01*
X141281990Y-105150992D02*
X141281990Y-104961990D01*
X141281990Y-104961990D02*
X140820000Y-104500000D01*
X140820000Y-104500000D02*
X140719380Y-104600620D01*
X140719380Y-104600620D02*
X140719380Y-105101115D01*
G04 #@! TO.N,CS3*
X142656998Y-104950000D02*
X142288998Y-104582000D01*
X144600000Y-104950000D02*
X142656998Y-104950000D01*
X142288998Y-104582000D02*
X142232000Y-104582000D01*
X142232000Y-104582000D02*
X141910000Y-104260000D01*
X141910000Y-104260000D02*
X141910000Y-102830000D01*
X141910000Y-102830000D02*
X142029918Y-102710082D01*
X142029918Y-102710082D02*
X142029918Y-102596087D01*
X126884020Y-88530020D02*
X104140000Y-88530020D01*
X133915002Y-93850000D02*
X132204000Y-93850000D01*
X135125001Y-95059999D02*
X133915002Y-93850000D01*
X104140000Y-88530020D02*
X104140000Y-88900000D01*
X137443848Y-96816152D02*
X137443848Y-97641154D01*
X142583848Y-96816152D02*
X137443848Y-96816152D01*
X137443848Y-97641154D02*
X137260001Y-97825001D01*
X137260001Y-97825001D02*
X135605001Y-97825001D01*
X135605001Y-97825001D02*
X135125001Y-97345001D01*
X132204000Y-93850000D02*
X126884020Y-88530020D01*
X135125001Y-97345001D02*
X135125001Y-95059999D01*
G04 #@! TO.N,CS4*
X125970000Y-112420601D02*
X125904945Y-112485656D01*
X144600000Y-107893002D02*
X143518003Y-108974999D01*
X144600000Y-106950000D02*
X144600000Y-107893002D01*
X143518003Y-108974999D02*
X140631999Y-108974999D01*
X140631999Y-108974999D02*
X139306998Y-110300000D01*
X139306998Y-111488004D02*
X139306998Y-110300000D01*
X137800001Y-112995001D02*
X139306998Y-111488004D01*
X126414290Y-112995001D02*
X137800001Y-112995001D01*
X125904945Y-112485656D02*
X126414290Y-112995001D01*
D25*
G04 #@! TO.N,Net-(J1-Pad2)*
X98700000Y-117000000D02*
X90200000Y-108500000D01*
X90200000Y-108500000D02*
X90200000Y-83800000D01*
X105900000Y-83800000D02*
X103800000Y-83800000D01*
X90200000Y-83800000D02*
X103800000Y-83800000D01*
X103800000Y-83800000D02*
X107800000Y-83800000D01*
X139934315Y-137163001D02*
X139897316Y-137200000D01*
X140500000Y-137163001D02*
X139934315Y-137163001D01*
X139860317Y-137163001D02*
X138700000Y-137163001D01*
X139897316Y-137200000D02*
X139860317Y-137163001D01*
X138700000Y-137163001D02*
X136963001Y-137163001D01*
X114463001Y-137163001D02*
X115700000Y-137163001D01*
X115700000Y-137163001D02*
X117000000Y-137163001D01*
X136963001Y-137163001D02*
X117000000Y-137163001D01*
D28*
G04 #@! TO.N,Net-(U6-Pad27)*
X154699010Y-115008162D02*
X153629172Y-116078000D01*
X153162000Y-106680000D02*
X154699010Y-108217010D01*
X154699010Y-108217010D02*
X154699010Y-115008162D01*
X153629172Y-116078000D02*
X103158001Y-116078000D01*
X103158001Y-116078000D02*
X103124000Y-116112001D01*
G04 #@! TO.N,Net-(U6-Pad26)*
X155149019Y-115194563D02*
X153625583Y-116717999D01*
X153162000Y-104140000D02*
X155149020Y-106127020D01*
X155149020Y-106127020D02*
X155149019Y-115194563D01*
X104516001Y-116717999D02*
X104516001Y-116803000D01*
X153625583Y-116717999D02*
X104516001Y-116803000D01*
D26*
G04 #@! TO.N,USB_GND*
X145736762Y-111506000D02*
X146742002Y-111506000D01*
X144600000Y-110369238D02*
X145736762Y-111506000D01*
X144600000Y-109450000D02*
X144600000Y-110369238D01*
X128580000Y-114470000D02*
X124850000Y-114470000D01*
X137491742Y-114470000D02*
X128580000Y-114470000D01*
X140661741Y-111300001D02*
X137491742Y-114470000D01*
X145530763Y-111300001D02*
X140661741Y-111300001D01*
X145736762Y-111506000D02*
X145530763Y-111300001D01*
D28*
G04 #@! TO.N,USB_DM*
X139563010Y-120236990D02*
X143946990Y-120236990D01*
X150359001Y-114662001D02*
X144800000Y-114662001D01*
X151635001Y-113386001D02*
X150359001Y-114662001D01*
X151635001Y-110705001D02*
X151635001Y-113386001D01*
X150550000Y-109620000D02*
X151635001Y-110705001D01*
X143908065Y-114662001D02*
X144800000Y-114662001D01*
X144800000Y-114662001D02*
X144956997Y-114662001D01*
G04 #@! TO.N,USB_DP*
X145748977Y-113665765D02*
X149270000Y-110144742D01*
X143821354Y-113665765D02*
X145748977Y-113665765D01*
X149270000Y-110144742D02*
X149270000Y-109645980D01*
X149270000Y-109645980D02*
X149225010Y-109600990D01*
G04 #@! TD*
D29*
G04 #@! TO.N,GND*
G36*
X157760001Y-126059234D02*
X157646026Y-125945259D01*
X156824569Y-125605000D01*
X155935431Y-125605000D01*
X155848535Y-125640994D01*
X155723984Y-125340300D01*
X155723984Y-122326143D01*
X155741321Y-122238983D01*
X155723984Y-122151823D01*
X155723984Y-122151819D01*
X155672636Y-121893674D01*
X155600599Y-121785864D01*
X155526408Y-121674829D01*
X155526407Y-121674828D01*
X155477033Y-121600935D01*
X155403140Y-121551561D01*
X154527431Y-120675853D01*
X154377431Y-120313720D01*
X154086280Y-120022569D01*
X153705874Y-119865000D01*
X153294126Y-119865000D01*
X152913720Y-120022569D01*
X152622569Y-120313720D01*
X152465000Y-120694126D01*
X152465000Y-121105874D01*
X152622569Y-121486280D01*
X152913720Y-121777431D01*
X153275853Y-121927431D01*
X153953985Y-122605564D01*
X153953984Y-125340300D01*
X153923440Y-125414040D01*
X153923440Y-123063000D01*
X153874157Y-122815235D01*
X153733809Y-122605191D01*
X153523765Y-122464843D01*
X153276000Y-122415560D01*
X145936000Y-122415560D01*
X145688235Y-122464843D01*
X145478191Y-122605191D01*
X145337843Y-122815235D01*
X145288560Y-123063000D01*
X145288560Y-126828988D01*
X144752548Y-127365000D01*
X114640479Y-127365000D01*
X113871874Y-127517885D01*
X113000271Y-128100271D01*
X112417885Y-128971874D01*
X112213378Y-130000000D01*
X112417885Y-131028126D01*
X113000271Y-131899729D01*
X113871874Y-132482115D01*
X114640479Y-132635000D01*
X136141456Y-132635000D01*
X135875289Y-132901167D01*
X135516000Y-133768567D01*
X135516000Y-134707433D01*
X135855891Y-135528001D01*
X114301970Y-135528001D01*
X113825056Y-135622865D01*
X113284232Y-135984232D01*
X112922865Y-136525056D01*
X112795970Y-137163001D01*
X112922865Y-137800946D01*
X113229595Y-138260000D01*
X72140000Y-138260000D01*
X72140000Y-131311199D01*
X72145431Y-131296042D01*
X72140000Y-131184444D01*
X72140000Y-131136967D01*
X72136941Y-131121589D01*
X72136179Y-131105928D01*
X72124665Y-131059873D01*
X72102867Y-130950285D01*
X72093921Y-130936896D01*
X72040082Y-130721541D01*
X72040132Y-130673364D01*
X72009486Y-130599161D01*
X72005603Y-130583627D01*
X71985469Y-130541007D01*
X71967476Y-130497439D01*
X71958594Y-130484116D01*
X71924302Y-130411525D01*
X71888620Y-130379155D01*
X71802934Y-130250626D01*
X71802866Y-130250285D01*
X71732239Y-130144585D01*
X71697547Y-130092546D01*
X71697309Y-130092308D01*
X71697119Y-130092023D01*
X71665536Y-130060440D01*
X74616000Y-130060440D01*
X74863765Y-130011157D01*
X75073809Y-129870809D01*
X75165000Y-129734332D01*
X75165000Y-134923847D01*
X75142765Y-135035630D01*
X75228705Y-135467680D01*
X75230854Y-135478484D01*
X75481711Y-135853919D01*
X75576482Y-135917243D01*
X77034759Y-137375521D01*
X77098081Y-137470289D01*
X77473515Y-137721146D01*
X77804587Y-137787000D01*
X77916369Y-137809235D01*
X78028151Y-137787000D01*
X78153343Y-137787000D01*
X78202663Y-137836320D01*
X78716119Y-138049000D01*
X79271881Y-138049000D01*
X79785337Y-137836320D01*
X80178320Y-137443337D01*
X80264000Y-137236487D01*
X80349680Y-137443337D01*
X80742663Y-137836320D01*
X81256119Y-138049000D01*
X81811881Y-138049000D01*
X82325337Y-137836320D01*
X82718320Y-137443337D01*
X82804000Y-137236487D01*
X82889680Y-137443337D01*
X83282663Y-137836320D01*
X83796119Y-138049000D01*
X84351881Y-138049000D01*
X84865337Y-137836320D01*
X85258320Y-137443337D01*
X85344000Y-137236487D01*
X85429680Y-137443337D01*
X85822663Y-137836320D01*
X86336119Y-138049000D01*
X86891881Y-138049000D01*
X87405337Y-137836320D01*
X87798320Y-137443337D01*
X87852284Y-137313055D01*
X87889680Y-137403337D01*
X88282663Y-137796320D01*
X88796119Y-138009000D01*
X89351881Y-138009000D01*
X89865337Y-137796320D01*
X90258320Y-137403337D01*
X90471000Y-136889881D01*
X90471000Y-136334119D01*
X90258320Y-135820663D01*
X89865337Y-135427680D01*
X89351881Y-135215000D01*
X88796119Y-135215000D01*
X88282663Y-135427680D01*
X87889680Y-135820663D01*
X87835716Y-135950945D01*
X87798320Y-135860663D01*
X87405337Y-135467680D01*
X86891881Y-135255000D01*
X86336119Y-135255000D01*
X85822663Y-135467680D01*
X85429680Y-135860663D01*
X85344000Y-136067513D01*
X85258320Y-135860663D01*
X84865337Y-135467680D01*
X84351881Y-135255000D01*
X83796119Y-135255000D01*
X83282663Y-135467680D01*
X82889680Y-135860663D01*
X82804000Y-136067513D01*
X82718320Y-135860663D01*
X82325337Y-135467680D01*
X81811881Y-135255000D01*
X81256119Y-135255000D01*
X80742663Y-135467680D01*
X80349680Y-135860663D01*
X80264000Y-136067513D01*
X80178320Y-135860663D01*
X79785337Y-135467680D01*
X79271881Y-135255000D01*
X78716119Y-135255000D01*
X78297782Y-135428280D01*
X77435000Y-134565499D01*
X77435000Y-129398711D01*
X77613720Y-129577431D01*
X77994126Y-129735000D01*
X78405874Y-129735000D01*
X78786280Y-129577431D01*
X79077431Y-129286280D01*
X79235000Y-128905874D01*
X79235000Y-128494126D01*
X79077431Y-128113720D01*
X78960000Y-127996289D01*
X78960000Y-126744450D01*
X79052071Y-126882244D01*
X79115530Y-126924646D01*
X82958728Y-130767846D01*
X82865000Y-130994126D01*
X82865000Y-131405874D01*
X83022569Y-131786280D01*
X83313720Y-132077431D01*
X83694126Y-132235000D01*
X84105874Y-132235000D01*
X84486280Y-132077431D01*
X84777431Y-131786280D01*
X84935000Y-131405874D01*
X84935000Y-131141334D01*
X85064561Y-131195000D01*
X85635439Y-131195000D01*
X86162862Y-130976534D01*
X86566534Y-130572862D01*
X86785000Y-130045439D01*
X86785000Y-129474561D01*
X86566534Y-128947138D01*
X86162862Y-128543466D01*
X85635439Y-128325000D01*
X85064561Y-128325000D01*
X84537138Y-128543466D01*
X84133466Y-128947138D01*
X83915000Y-129474561D01*
X83915000Y-129574512D01*
X80360000Y-126019514D01*
X80360000Y-125700000D01*
X85113378Y-125700000D01*
X85317885Y-126728126D01*
X85900271Y-127599729D01*
X86771874Y-128182115D01*
X87540479Y-128335000D01*
X100902040Y-128335000D01*
X101271874Y-128582115D01*
X102040479Y-128735000D01*
X102299999Y-128786622D01*
X102559519Y-128735000D01*
X109559521Y-128735000D01*
X110328126Y-128582115D01*
X111199729Y-127999729D01*
X111782115Y-127128126D01*
X111986622Y-126100000D01*
X111782115Y-125071874D01*
X111199729Y-124200271D01*
X110328126Y-123617885D01*
X109559521Y-123465000D01*
X103297960Y-123465000D01*
X102928126Y-123217885D01*
X102159521Y-123065000D01*
X101900000Y-123013378D01*
X101640479Y-123065000D01*
X87540479Y-123065000D01*
X86771874Y-123217885D01*
X85900271Y-123800271D01*
X85317885Y-124671874D01*
X85113378Y-125700000D01*
X80360000Y-125700000D01*
X80360000Y-123703711D01*
X80477431Y-123586280D01*
X80635000Y-123205874D01*
X80635000Y-122794126D01*
X80587728Y-122680000D01*
X137444789Y-122680000D01*
X137549259Y-122784470D01*
X137591661Y-122847929D01*
X137843053Y-123015904D01*
X138064738Y-123060000D01*
X138064742Y-123060000D01*
X138139589Y-123074888D01*
X138214436Y-123060000D01*
X141871728Y-123060000D01*
X141946575Y-123074888D01*
X142021422Y-123060000D01*
X142021427Y-123060000D01*
X142243112Y-123015904D01*
X142494504Y-122847929D01*
X142536906Y-122784470D01*
X143156798Y-122164579D01*
X143205461Y-122164579D01*
X143585867Y-122007010D01*
X143877018Y-121715859D01*
X144034587Y-121335453D01*
X144034587Y-121271990D01*
X144152864Y-121271990D01*
X144533270Y-121114421D01*
X144755699Y-120891992D01*
X144803474Y-120923915D01*
X144847283Y-120932629D01*
X145025160Y-120968011D01*
X145025163Y-120968011D01*
X145100011Y-120982899D01*
X145174860Y-120968011D01*
X147047151Y-120968009D01*
X147122002Y-120982898D01*
X147418539Y-120923913D01*
X147606474Y-120798339D01*
X147606475Y-120798338D01*
X147669931Y-120755938D01*
X147712331Y-120692482D01*
X149788815Y-118616000D01*
X153685555Y-118616000D01*
X153760402Y-118630888D01*
X153835249Y-118616000D01*
X153835254Y-118616000D01*
X154056939Y-118571904D01*
X154308331Y-118403929D01*
X154350733Y-118340470D01*
X154993998Y-117697205D01*
X155137712Y-117912288D01*
X155513146Y-118163146D01*
X155956000Y-118251235D01*
X156398854Y-118163146D01*
X156679523Y-117975608D01*
X157079518Y-117575613D01*
X157174288Y-117512290D01*
X157425145Y-117136856D01*
X157468282Y-116919991D01*
X157760001Y-116628273D01*
X157760001Y-126059234D01*
X157760001Y-126059234D01*
G37*
X157760001Y-126059234D02*
X157646026Y-125945259D01*
X156824569Y-125605000D01*
X155935431Y-125605000D01*
X155848535Y-125640994D01*
X155723984Y-125340300D01*
X155723984Y-122326143D01*
X155741321Y-122238983D01*
X155723984Y-122151823D01*
X155723984Y-122151819D01*
X155672636Y-121893674D01*
X155600599Y-121785864D01*
X155526408Y-121674829D01*
X155526407Y-121674828D01*
X155477033Y-121600935D01*
X155403140Y-121551561D01*
X154527431Y-120675853D01*
X154377431Y-120313720D01*
X154086280Y-120022569D01*
X153705874Y-119865000D01*
X153294126Y-119865000D01*
X152913720Y-120022569D01*
X152622569Y-120313720D01*
X152465000Y-120694126D01*
X152465000Y-121105874D01*
X152622569Y-121486280D01*
X152913720Y-121777431D01*
X153275853Y-121927431D01*
X153953985Y-122605564D01*
X153953984Y-125340300D01*
X153923440Y-125414040D01*
X153923440Y-123063000D01*
X153874157Y-122815235D01*
X153733809Y-122605191D01*
X153523765Y-122464843D01*
X153276000Y-122415560D01*
X145936000Y-122415560D01*
X145688235Y-122464843D01*
X145478191Y-122605191D01*
X145337843Y-122815235D01*
X145288560Y-123063000D01*
X145288560Y-126828988D01*
X144752548Y-127365000D01*
X114640479Y-127365000D01*
X113871874Y-127517885D01*
X113000271Y-128100271D01*
X112417885Y-128971874D01*
X112213378Y-130000000D01*
X112417885Y-131028126D01*
X113000271Y-131899729D01*
X113871874Y-132482115D01*
X114640479Y-132635000D01*
X136141456Y-132635000D01*
X135875289Y-132901167D01*
X135516000Y-133768567D01*
X135516000Y-134707433D01*
X135855891Y-135528001D01*
X114301970Y-135528001D01*
X113825056Y-135622865D01*
X113284232Y-135984232D01*
X112922865Y-136525056D01*
X112795970Y-137163001D01*
X112922865Y-137800946D01*
X113229595Y-138260000D01*
X72140000Y-138260000D01*
X72140000Y-131311199D01*
X72145431Y-131296042D01*
X72140000Y-131184444D01*
X72140000Y-131136967D01*
X72136941Y-131121589D01*
X72136179Y-131105928D01*
X72124665Y-131059873D01*
X72102867Y-130950285D01*
X72093921Y-130936896D01*
X72040082Y-130721541D01*
X72040132Y-130673364D01*
X72009486Y-130599161D01*
X72005603Y-130583627D01*
X71985469Y-130541007D01*
X71967476Y-130497439D01*
X71958594Y-130484116D01*
X71924302Y-130411525D01*
X71888620Y-130379155D01*
X71802934Y-130250626D01*
X71802866Y-130250285D01*
X71732239Y-130144585D01*
X71697547Y-130092546D01*
X71697309Y-130092308D01*
X71697119Y-130092023D01*
X71665536Y-130060440D01*
X74616000Y-130060440D01*
X74863765Y-130011157D01*
X75073809Y-129870809D01*
X75165000Y-129734332D01*
X75165000Y-134923847D01*
X75142765Y-135035630D01*
X75228705Y-135467680D01*
X75230854Y-135478484D01*
X75481711Y-135853919D01*
X75576482Y-135917243D01*
X77034759Y-137375521D01*
X77098081Y-137470289D01*
X77473515Y-137721146D01*
X77804587Y-137787000D01*
X77916369Y-137809235D01*
X78028151Y-137787000D01*
X78153343Y-137787000D01*
X78202663Y-137836320D01*
X78716119Y-138049000D01*
X79271881Y-138049000D01*
X79785337Y-137836320D01*
X80178320Y-137443337D01*
X80264000Y-137236487D01*
X80349680Y-137443337D01*
X80742663Y-137836320D01*
X81256119Y-138049000D01*
X81811881Y-138049000D01*
X82325337Y-137836320D01*
X82718320Y-137443337D01*
X82804000Y-137236487D01*
X82889680Y-137443337D01*
X83282663Y-137836320D01*
X83796119Y-138049000D01*
X84351881Y-138049000D01*
X84865337Y-137836320D01*
X85258320Y-137443337D01*
X85344000Y-137236487D01*
X85429680Y-137443337D01*
X85822663Y-137836320D01*
X86336119Y-138049000D01*
X86891881Y-138049000D01*
X87405337Y-137836320D01*
X87798320Y-137443337D01*
X87852284Y-137313055D01*
X87889680Y-137403337D01*
X88282663Y-137796320D01*
X88796119Y-138009000D01*
X89351881Y-138009000D01*
X89865337Y-137796320D01*
X90258320Y-137403337D01*
X90471000Y-136889881D01*
X90471000Y-136334119D01*
X90258320Y-135820663D01*
X89865337Y-135427680D01*
X89351881Y-135215000D01*
X88796119Y-135215000D01*
X88282663Y-135427680D01*
X87889680Y-135820663D01*
X87835716Y-135950945D01*
X87798320Y-135860663D01*
X87405337Y-135467680D01*
X86891881Y-135255000D01*
X86336119Y-135255000D01*
X85822663Y-135467680D01*
X85429680Y-135860663D01*
X85344000Y-136067513D01*
X85258320Y-135860663D01*
X84865337Y-135467680D01*
X84351881Y-135255000D01*
X83796119Y-135255000D01*
X83282663Y-135467680D01*
X82889680Y-135860663D01*
X82804000Y-136067513D01*
X82718320Y-135860663D01*
X82325337Y-135467680D01*
X81811881Y-135255000D01*
X81256119Y-135255000D01*
X80742663Y-135467680D01*
X80349680Y-135860663D01*
X80264000Y-136067513D01*
X80178320Y-135860663D01*
X79785337Y-135467680D01*
X79271881Y-135255000D01*
X78716119Y-135255000D01*
X78297782Y-135428280D01*
X77435000Y-134565499D01*
X77435000Y-129398711D01*
X77613720Y-129577431D01*
X77994126Y-129735000D01*
X78405874Y-129735000D01*
X78786280Y-129577431D01*
X79077431Y-129286280D01*
X79235000Y-128905874D01*
X79235000Y-128494126D01*
X79077431Y-128113720D01*
X78960000Y-127996289D01*
X78960000Y-126744450D01*
X79052071Y-126882244D01*
X79115530Y-126924646D01*
X82958728Y-130767846D01*
X82865000Y-130994126D01*
X82865000Y-131405874D01*
X83022569Y-131786280D01*
X83313720Y-132077431D01*
X83694126Y-132235000D01*
X84105874Y-132235000D01*
X84486280Y-132077431D01*
X84777431Y-131786280D01*
X84935000Y-131405874D01*
X84935000Y-131141334D01*
X85064561Y-131195000D01*
X85635439Y-131195000D01*
X86162862Y-130976534D01*
X86566534Y-130572862D01*
X86785000Y-130045439D01*
X86785000Y-129474561D01*
X86566534Y-128947138D01*
X86162862Y-128543466D01*
X85635439Y-128325000D01*
X85064561Y-128325000D01*
X84537138Y-128543466D01*
X84133466Y-128947138D01*
X83915000Y-129474561D01*
X83915000Y-129574512D01*
X80360000Y-126019514D01*
X80360000Y-125700000D01*
X85113378Y-125700000D01*
X85317885Y-126728126D01*
X85900271Y-127599729D01*
X86771874Y-128182115D01*
X87540479Y-128335000D01*
X100902040Y-128335000D01*
X101271874Y-128582115D01*
X102040479Y-128735000D01*
X102299999Y-128786622D01*
X102559519Y-128735000D01*
X109559521Y-128735000D01*
X110328126Y-128582115D01*
X111199729Y-127999729D01*
X111782115Y-127128126D01*
X111986622Y-126100000D01*
X111782115Y-125071874D01*
X111199729Y-124200271D01*
X110328126Y-123617885D01*
X109559521Y-123465000D01*
X103297960Y-123465000D01*
X102928126Y-123217885D01*
X102159521Y-123065000D01*
X101900000Y-123013378D01*
X101640479Y-123065000D01*
X87540479Y-123065000D01*
X86771874Y-123217885D01*
X85900271Y-123800271D01*
X85317885Y-124671874D01*
X85113378Y-125700000D01*
X80360000Y-125700000D01*
X80360000Y-123703711D01*
X80477431Y-123586280D01*
X80635000Y-123205874D01*
X80635000Y-122794126D01*
X80587728Y-122680000D01*
X137444789Y-122680000D01*
X137549259Y-122784470D01*
X137591661Y-122847929D01*
X137843053Y-123015904D01*
X138064738Y-123060000D01*
X138064742Y-123060000D01*
X138139589Y-123074888D01*
X138214436Y-123060000D01*
X141871728Y-123060000D01*
X141946575Y-123074888D01*
X142021422Y-123060000D01*
X142021427Y-123060000D01*
X142243112Y-123015904D01*
X142494504Y-122847929D01*
X142536906Y-122784470D01*
X143156798Y-122164579D01*
X143205461Y-122164579D01*
X143585867Y-122007010D01*
X143877018Y-121715859D01*
X144034587Y-121335453D01*
X144034587Y-121271990D01*
X144152864Y-121271990D01*
X144533270Y-121114421D01*
X144755699Y-120891992D01*
X144803474Y-120923915D01*
X144847283Y-120932629D01*
X145025160Y-120968011D01*
X145025163Y-120968011D01*
X145100011Y-120982899D01*
X145174860Y-120968011D01*
X147047151Y-120968009D01*
X147122002Y-120982898D01*
X147418539Y-120923913D01*
X147606474Y-120798339D01*
X147606475Y-120798338D01*
X147669931Y-120755938D01*
X147712331Y-120692482D01*
X149788815Y-118616000D01*
X153685555Y-118616000D01*
X153760402Y-118630888D01*
X153835249Y-118616000D01*
X153835254Y-118616000D01*
X154056939Y-118571904D01*
X154308331Y-118403929D01*
X154350733Y-118340470D01*
X154993998Y-117697205D01*
X155137712Y-117912288D01*
X155513146Y-118163146D01*
X155956000Y-118251235D01*
X156398854Y-118163146D01*
X156679523Y-117975608D01*
X157079518Y-117575613D01*
X157174288Y-117512290D01*
X157425145Y-117136856D01*
X157468282Y-116919991D01*
X157760001Y-116628273D01*
X157760001Y-126059234D01*
G36*
X89021231Y-82621231D02*
X88659864Y-83162055D01*
X88532969Y-83800000D01*
X88565001Y-83961036D01*
X88565000Y-108338970D01*
X88532969Y-108500000D01*
X88565000Y-108661030D01*
X88659864Y-109137944D01*
X89021231Y-109678769D01*
X89157750Y-109769988D01*
X97657746Y-118269985D01*
X97967546Y-118476987D01*
X89424519Y-118476987D01*
X89105874Y-118345000D01*
X88694126Y-118345000D01*
X88313720Y-118502569D01*
X88022569Y-118793720D01*
X87865000Y-119174126D01*
X87865000Y-119476990D01*
X87158701Y-119476990D01*
X86946280Y-119264569D01*
X86565874Y-119107000D01*
X86154126Y-119107000D01*
X85773720Y-119264569D01*
X85482569Y-119555720D01*
X85325000Y-119936126D01*
X85325000Y-120201990D01*
X84049554Y-120201990D01*
X84676711Y-119574833D01*
X85036000Y-118707433D01*
X85036000Y-118460654D01*
X85208667Y-118495000D01*
X85491333Y-118495000D01*
X85909909Y-118411740D01*
X86384577Y-118094577D01*
X86701740Y-117619909D01*
X86813113Y-117060000D01*
X86701740Y-116500091D01*
X86384577Y-116025423D01*
X85909909Y-115708260D01*
X85491333Y-115625000D01*
X85208667Y-115625000D01*
X84790091Y-115708260D01*
X84315423Y-116025423D01*
X84109361Y-116333817D01*
X84012833Y-116237289D01*
X83145433Y-115878000D01*
X82206567Y-115878000D01*
X81339167Y-116237289D01*
X80675289Y-116901167D01*
X80316000Y-117768567D01*
X80316000Y-118707433D01*
X80675289Y-119574833D01*
X81302446Y-120201990D01*
X79169794Y-120201990D01*
X77138332Y-118170529D01*
X77095930Y-118107070D01*
X76844538Y-117939095D01*
X76622853Y-117894999D01*
X76622848Y-117894999D01*
X76548001Y-117880111D01*
X76473154Y-117894999D01*
X75926845Y-117894999D01*
X75851998Y-117880111D01*
X75777151Y-117894999D01*
X75777147Y-117894999D01*
X75555462Y-117939095D01*
X75555460Y-117939096D01*
X75555461Y-117939096D01*
X75367525Y-118064670D01*
X75367523Y-118064672D01*
X75304070Y-118107070D01*
X75261672Y-118170523D01*
X73874198Y-119557998D01*
X73708126Y-119557998D01*
X73327720Y-119715567D01*
X73036569Y-120006718D01*
X72899188Y-120338386D01*
X71901000Y-119340199D01*
X71901000Y-119174126D01*
X71743431Y-118793720D01*
X71452280Y-118502569D01*
X71071874Y-118345000D01*
X70660126Y-118345000D01*
X70279720Y-118502569D01*
X69988569Y-118793720D01*
X69831000Y-119174126D01*
X69831000Y-119585874D01*
X69988569Y-119966280D01*
X70279720Y-120257431D01*
X70660126Y-120415000D01*
X70826199Y-120415000D01*
X71576198Y-121165000D01*
X65397000Y-121165000D01*
X65397000Y-120100281D01*
X65660839Y-119705418D01*
X65776092Y-119126000D01*
X65660839Y-118546582D01*
X65332625Y-118055375D01*
X65034239Y-117856000D01*
X65332625Y-117656625D01*
X65540178Y-117346000D01*
X75839153Y-117346000D01*
X75914000Y-117360888D01*
X75988847Y-117346000D01*
X75988852Y-117346000D01*
X76210537Y-117301904D01*
X76461929Y-117133929D01*
X76504331Y-117070470D01*
X78939802Y-114635000D01*
X79105874Y-114635000D01*
X79486280Y-114477431D01*
X79777431Y-114186280D01*
X79935000Y-113805874D01*
X79935000Y-113394126D01*
X79777431Y-113013720D01*
X79486280Y-112722569D01*
X79105874Y-112565000D01*
X78694126Y-112565000D01*
X78313720Y-112722569D01*
X78022569Y-113013720D01*
X77865000Y-113394126D01*
X77865000Y-113560198D01*
X75599199Y-115826000D01*
X71819486Y-115826000D01*
X73375488Y-114270000D01*
X75458289Y-114270000D01*
X75613720Y-114425431D01*
X75994126Y-114583000D01*
X76405874Y-114583000D01*
X76786280Y-114425431D01*
X77077431Y-114134280D01*
X77235000Y-113753874D01*
X77235000Y-113342126D01*
X77077431Y-112961720D01*
X76786280Y-112670569D01*
X76405874Y-112513000D01*
X75994126Y-112513000D01*
X75613720Y-112670569D01*
X75534289Y-112750000D01*
X73135531Y-112750000D01*
X73060684Y-112735112D01*
X72985837Y-112750000D01*
X72985833Y-112750000D01*
X72764148Y-112794096D01*
X72717729Y-112825112D01*
X72576211Y-112919671D01*
X72576209Y-112919673D01*
X72512756Y-112962071D01*
X72470358Y-113025524D01*
X70827155Y-114668729D01*
X70600874Y-114575000D01*
X70189126Y-114575000D01*
X69808720Y-114732569D01*
X69517569Y-115023720D01*
X69360000Y-115404126D01*
X69360000Y-115815874D01*
X69364194Y-115826000D01*
X65540178Y-115826000D01*
X65442295Y-115679508D01*
X67882557Y-113239248D01*
X67946010Y-113196850D01*
X67988408Y-113133397D01*
X67988410Y-113133395D01*
X68102884Y-112962072D01*
X68113985Y-112945458D01*
X68158081Y-112723773D01*
X68158081Y-112723769D01*
X68172969Y-112648922D01*
X68158081Y-112574075D01*
X68158081Y-111660000D01*
X71496289Y-111660000D01*
X71613720Y-111777431D01*
X71994126Y-111935000D01*
X72405874Y-111935000D01*
X72786280Y-111777431D01*
X73077431Y-111486280D01*
X73235000Y-111105874D01*
X73235000Y-110694126D01*
X73077431Y-110313720D01*
X72786280Y-110022569D01*
X72405874Y-109865000D01*
X71994126Y-109865000D01*
X71613720Y-110022569D01*
X71496289Y-110140000D01*
X67666567Y-110140000D01*
X70579441Y-107227126D01*
X76765000Y-107227126D01*
X76765000Y-107638874D01*
X76922569Y-108019280D01*
X77213720Y-108310431D01*
X77594126Y-108468000D01*
X78005874Y-108468000D01*
X78386280Y-108310431D01*
X78677431Y-108019280D01*
X78835000Y-107638874D01*
X78835000Y-107394126D01*
X78865000Y-107394126D01*
X78865000Y-107805874D01*
X79022569Y-108186280D01*
X79313720Y-108477431D01*
X79694126Y-108635000D01*
X80105874Y-108635000D01*
X80486280Y-108477431D01*
X80777431Y-108186280D01*
X80935000Y-107805874D01*
X80935000Y-107394126D01*
X80841271Y-107167845D01*
X81784473Y-106224644D01*
X81847929Y-106182244D01*
X82015904Y-105930852D01*
X82060000Y-105709167D01*
X82060000Y-105709162D01*
X82074888Y-105634315D01*
X82060000Y-105559468D01*
X82060000Y-101203711D01*
X82077431Y-101186280D01*
X82235000Y-100805874D01*
X82235000Y-100394126D01*
X82077431Y-100013720D01*
X81786280Y-99722569D01*
X81405874Y-99565000D01*
X80994126Y-99565000D01*
X80613720Y-99722569D01*
X80322569Y-100013720D01*
X80165000Y-100394126D01*
X80165000Y-100805874D01*
X80322569Y-101186280D01*
X80540001Y-101403712D01*
X80540000Y-105319513D01*
X79415528Y-106443986D01*
X79352072Y-106486386D01*
X79184096Y-106737778D01*
X79155686Y-106880603D01*
X79022569Y-107013720D01*
X78865000Y-107394126D01*
X78835000Y-107394126D01*
X78835000Y-107227126D01*
X78677431Y-106846720D01*
X78560000Y-106729289D01*
X78560000Y-99114801D01*
X78839802Y-98835000D01*
X79005874Y-98835000D01*
X79386280Y-98677431D01*
X79677431Y-98386280D01*
X79835000Y-98005874D01*
X79835000Y-97594126D01*
X79677431Y-97213720D01*
X79386280Y-96922569D01*
X79005874Y-96765000D01*
X78594126Y-96765000D01*
X78213720Y-96922569D01*
X77922569Y-97213720D01*
X77765000Y-97594126D01*
X77765000Y-97760198D01*
X77315528Y-98209671D01*
X77252072Y-98252071D01*
X77209672Y-98315527D01*
X77209671Y-98315528D01*
X77084097Y-98503463D01*
X77025112Y-98800000D01*
X77040001Y-98874852D01*
X77040000Y-106729289D01*
X76922569Y-106846720D01*
X76765000Y-107227126D01*
X70579441Y-107227126D01*
X74164156Y-103642411D01*
X74238049Y-103593038D01*
X74306259Y-103490956D01*
X74419737Y-103321124D01*
X74433652Y-103300299D01*
X74485000Y-103042154D01*
X74485000Y-103042150D01*
X74502337Y-102954990D01*
X74485000Y-102867830D01*
X74485000Y-98368007D01*
X74635000Y-98005874D01*
X74635000Y-97594126D01*
X74477431Y-97213720D01*
X74186280Y-96922569D01*
X73805874Y-96765000D01*
X73394126Y-96765000D01*
X73013720Y-96922569D01*
X72722569Y-97213720D01*
X72565000Y-97594126D01*
X72565000Y-98005874D01*
X72715001Y-98368009D01*
X72715000Y-102588410D01*
X66330842Y-108972569D01*
X65968709Y-109122569D01*
X65689388Y-109401890D01*
X65776092Y-108966000D01*
X65660839Y-108386582D01*
X65332625Y-107895375D01*
X65034239Y-107696000D01*
X65332625Y-107496625D01*
X65660839Y-107005418D01*
X65776092Y-106426000D01*
X65660839Y-105846582D01*
X65332625Y-105355375D01*
X65034239Y-105156000D01*
X65332625Y-104956625D01*
X65660839Y-104465418D01*
X65776092Y-103886000D01*
X65660839Y-103306582D01*
X65332625Y-102815375D01*
X65314381Y-102803184D01*
X65359765Y-102794157D01*
X65569809Y-102653809D01*
X65710157Y-102443765D01*
X65759440Y-102196000D01*
X65759440Y-100496000D01*
X65710157Y-100248235D01*
X65569809Y-100038191D01*
X65359765Y-99897843D01*
X65112000Y-99848560D01*
X63412000Y-99848560D01*
X63164235Y-99897843D01*
X63140000Y-99914036D01*
X63140000Y-93233990D01*
X72770000Y-93233990D01*
X72770000Y-93962010D01*
X73048601Y-94634612D01*
X73563388Y-95149399D01*
X74235990Y-95428000D01*
X74964010Y-95428000D01*
X75636612Y-95149399D01*
X76151399Y-94634612D01*
X76430000Y-93962010D01*
X76430000Y-93233990D01*
X76151399Y-92561388D01*
X75636612Y-92046601D01*
X74964010Y-91768000D01*
X74235990Y-91768000D01*
X73563388Y-92046601D01*
X73048601Y-92561388D01*
X72770000Y-93233990D01*
X63140000Y-93233990D01*
X63140000Y-85870767D01*
X63483974Y-86214741D01*
X64305431Y-86555000D01*
X65194569Y-86555000D01*
X66016026Y-86214741D01*
X66644741Y-85586026D01*
X66882560Y-85011881D01*
X66882560Y-88773000D01*
X66931843Y-89020765D01*
X67072191Y-89230809D01*
X67282235Y-89371157D01*
X67530000Y-89420440D01*
X74870000Y-89420440D01*
X75117765Y-89371157D01*
X75327809Y-89230809D01*
X75468157Y-89020765D01*
X75517440Y-88773000D01*
X75517440Y-87233000D01*
X79097972Y-87233000D01*
X79259002Y-87265031D01*
X79420032Y-87233000D01*
X79420033Y-87233000D01*
X79896947Y-87138136D01*
X80437771Y-86776769D01*
X80528990Y-86640250D01*
X84834251Y-82334990D01*
X89449621Y-82334990D01*
X89021231Y-82621231D01*
X89021231Y-82621231D01*
G37*
X89021231Y-82621231D02*
X88659864Y-83162055D01*
X88532969Y-83800000D01*
X88565001Y-83961036D01*
X88565000Y-108338970D01*
X88532969Y-108500000D01*
X88565000Y-108661030D01*
X88659864Y-109137944D01*
X89021231Y-109678769D01*
X89157750Y-109769988D01*
X97657746Y-118269985D01*
X97967546Y-118476987D01*
X89424519Y-118476987D01*
X89105874Y-118345000D01*
X88694126Y-118345000D01*
X88313720Y-118502569D01*
X88022569Y-118793720D01*
X87865000Y-119174126D01*
X87865000Y-119476990D01*
X87158701Y-119476990D01*
X86946280Y-119264569D01*
X86565874Y-119107000D01*
X86154126Y-119107000D01*
X85773720Y-119264569D01*
X85482569Y-119555720D01*
X85325000Y-119936126D01*
X85325000Y-120201990D01*
X84049554Y-120201990D01*
X84676711Y-119574833D01*
X85036000Y-118707433D01*
X85036000Y-118460654D01*
X85208667Y-118495000D01*
X85491333Y-118495000D01*
X85909909Y-118411740D01*
X86384577Y-118094577D01*
X86701740Y-117619909D01*
X86813113Y-117060000D01*
X86701740Y-116500091D01*
X86384577Y-116025423D01*
X85909909Y-115708260D01*
X85491333Y-115625000D01*
X85208667Y-115625000D01*
X84790091Y-115708260D01*
X84315423Y-116025423D01*
X84109361Y-116333817D01*
X84012833Y-116237289D01*
X83145433Y-115878000D01*
X82206567Y-115878000D01*
X81339167Y-116237289D01*
X80675289Y-116901167D01*
X80316000Y-117768567D01*
X80316000Y-118707433D01*
X80675289Y-119574833D01*
X81302446Y-120201990D01*
X79169794Y-120201990D01*
X77138332Y-118170529D01*
X77095930Y-118107070D01*
X76844538Y-117939095D01*
X76622853Y-117894999D01*
X76622848Y-117894999D01*
X76548001Y-117880111D01*
X76473154Y-117894999D01*
X75926845Y-117894999D01*
X75851998Y-117880111D01*
X75777151Y-117894999D01*
X75777147Y-117894999D01*
X75555462Y-117939095D01*
X75555460Y-117939096D01*
X75555461Y-117939096D01*
X75367525Y-118064670D01*
X75367523Y-118064672D01*
X75304070Y-118107070D01*
X75261672Y-118170523D01*
X73874198Y-119557998D01*
X73708126Y-119557998D01*
X73327720Y-119715567D01*
X73036569Y-120006718D01*
X72899188Y-120338386D01*
X71901000Y-119340199D01*
X71901000Y-119174126D01*
X71743431Y-118793720D01*
X71452280Y-118502569D01*
X71071874Y-118345000D01*
X70660126Y-118345000D01*
X70279720Y-118502569D01*
X69988569Y-118793720D01*
X69831000Y-119174126D01*
X69831000Y-119585874D01*
X69988569Y-119966280D01*
X70279720Y-120257431D01*
X70660126Y-120415000D01*
X70826199Y-120415000D01*
X71576198Y-121165000D01*
X65397000Y-121165000D01*
X65397000Y-120100281D01*
X65660839Y-119705418D01*
X65776092Y-119126000D01*
X65660839Y-118546582D01*
X65332625Y-118055375D01*
X65034239Y-117856000D01*
X65332625Y-117656625D01*
X65540178Y-117346000D01*
X75839153Y-117346000D01*
X75914000Y-117360888D01*
X75988847Y-117346000D01*
X75988852Y-117346000D01*
X76210537Y-117301904D01*
X76461929Y-117133929D01*
X76504331Y-117070470D01*
X78939802Y-114635000D01*
X79105874Y-114635000D01*
X79486280Y-114477431D01*
X79777431Y-114186280D01*
X79935000Y-113805874D01*
X79935000Y-113394126D01*
X79777431Y-113013720D01*
X79486280Y-112722569D01*
X79105874Y-112565000D01*
X78694126Y-112565000D01*
X78313720Y-112722569D01*
X78022569Y-113013720D01*
X77865000Y-113394126D01*
X77865000Y-113560198D01*
X75599199Y-115826000D01*
X71819486Y-115826000D01*
X73375488Y-114270000D01*
X75458289Y-114270000D01*
X75613720Y-114425431D01*
X75994126Y-114583000D01*
X76405874Y-114583000D01*
X76786280Y-114425431D01*
X77077431Y-114134280D01*
X77235000Y-113753874D01*
X77235000Y-113342126D01*
X77077431Y-112961720D01*
X76786280Y-112670569D01*
X76405874Y-112513000D01*
X75994126Y-112513000D01*
X75613720Y-112670569D01*
X75534289Y-112750000D01*
X73135531Y-112750000D01*
X73060684Y-112735112D01*
X72985837Y-112750000D01*
X72985833Y-112750000D01*
X72764148Y-112794096D01*
X72717729Y-112825112D01*
X72576211Y-112919671D01*
X72576209Y-112919673D01*
X72512756Y-112962071D01*
X72470358Y-113025524D01*
X70827155Y-114668729D01*
X70600874Y-114575000D01*
X70189126Y-114575000D01*
X69808720Y-114732569D01*
X69517569Y-115023720D01*
X69360000Y-115404126D01*
X69360000Y-115815874D01*
X69364194Y-115826000D01*
X65540178Y-115826000D01*
X65442295Y-115679508D01*
X67882557Y-113239248D01*
X67946010Y-113196850D01*
X67988408Y-113133397D01*
X67988410Y-113133395D01*
X68102884Y-112962072D01*
X68113985Y-112945458D01*
X68158081Y-112723773D01*
X68158081Y-112723769D01*
X68172969Y-112648922D01*
X68158081Y-112574075D01*
X68158081Y-111660000D01*
X71496289Y-111660000D01*
X71613720Y-111777431D01*
X71994126Y-111935000D01*
X72405874Y-111935000D01*
X72786280Y-111777431D01*
X73077431Y-111486280D01*
X73235000Y-111105874D01*
X73235000Y-110694126D01*
X73077431Y-110313720D01*
X72786280Y-110022569D01*
X72405874Y-109865000D01*
X71994126Y-109865000D01*
X71613720Y-110022569D01*
X71496289Y-110140000D01*
X67666567Y-110140000D01*
X70579441Y-107227126D01*
X76765000Y-107227126D01*
X76765000Y-107638874D01*
X76922569Y-108019280D01*
X77213720Y-108310431D01*
X77594126Y-108468000D01*
X78005874Y-108468000D01*
X78386280Y-108310431D01*
X78677431Y-108019280D01*
X78835000Y-107638874D01*
X78835000Y-107394126D01*
X78865000Y-107394126D01*
X78865000Y-107805874D01*
X79022569Y-108186280D01*
X79313720Y-108477431D01*
X79694126Y-108635000D01*
X80105874Y-108635000D01*
X80486280Y-108477431D01*
X80777431Y-108186280D01*
X80935000Y-107805874D01*
X80935000Y-107394126D01*
X80841271Y-107167845D01*
X81784473Y-106224644D01*
X81847929Y-106182244D01*
X82015904Y-105930852D01*
X82060000Y-105709167D01*
X82060000Y-105709162D01*
X82074888Y-105634315D01*
X82060000Y-105559468D01*
X82060000Y-101203711D01*
X82077431Y-101186280D01*
X82235000Y-100805874D01*
X82235000Y-100394126D01*
X82077431Y-100013720D01*
X81786280Y-99722569D01*
X81405874Y-99565000D01*
X80994126Y-99565000D01*
X80613720Y-99722569D01*
X80322569Y-100013720D01*
X80165000Y-100394126D01*
X80165000Y-100805874D01*
X80322569Y-101186280D01*
X80540001Y-101403712D01*
X80540000Y-105319513D01*
X79415528Y-106443986D01*
X79352072Y-106486386D01*
X79184096Y-106737778D01*
X79155686Y-106880603D01*
X79022569Y-107013720D01*
X78865000Y-107394126D01*
X78835000Y-107394126D01*
X78835000Y-107227126D01*
X78677431Y-106846720D01*
X78560000Y-106729289D01*
X78560000Y-99114801D01*
X78839802Y-98835000D01*
X79005874Y-98835000D01*
X79386280Y-98677431D01*
X79677431Y-98386280D01*
X79835000Y-98005874D01*
X79835000Y-97594126D01*
X79677431Y-97213720D01*
X79386280Y-96922569D01*
X79005874Y-96765000D01*
X78594126Y-96765000D01*
X78213720Y-96922569D01*
X77922569Y-97213720D01*
X77765000Y-97594126D01*
X77765000Y-97760198D01*
X77315528Y-98209671D01*
X77252072Y-98252071D01*
X77209672Y-98315527D01*
X77209671Y-98315528D01*
X77084097Y-98503463D01*
X77025112Y-98800000D01*
X77040001Y-98874852D01*
X77040000Y-106729289D01*
X76922569Y-106846720D01*
X76765000Y-107227126D01*
X70579441Y-107227126D01*
X74164156Y-103642411D01*
X74238049Y-103593038D01*
X74306259Y-103490956D01*
X74419737Y-103321124D01*
X74433652Y-103300299D01*
X74485000Y-103042154D01*
X74485000Y-103042150D01*
X74502337Y-102954990D01*
X74485000Y-102867830D01*
X74485000Y-98368007D01*
X74635000Y-98005874D01*
X74635000Y-97594126D01*
X74477431Y-97213720D01*
X74186280Y-96922569D01*
X73805874Y-96765000D01*
X73394126Y-96765000D01*
X73013720Y-96922569D01*
X72722569Y-97213720D01*
X72565000Y-97594126D01*
X72565000Y-98005874D01*
X72715001Y-98368009D01*
X72715000Y-102588410D01*
X66330842Y-108972569D01*
X65968709Y-109122569D01*
X65689388Y-109401890D01*
X65776092Y-108966000D01*
X65660839Y-108386582D01*
X65332625Y-107895375D01*
X65034239Y-107696000D01*
X65332625Y-107496625D01*
X65660839Y-107005418D01*
X65776092Y-106426000D01*
X65660839Y-105846582D01*
X65332625Y-105355375D01*
X65034239Y-105156000D01*
X65332625Y-104956625D01*
X65660839Y-104465418D01*
X65776092Y-103886000D01*
X65660839Y-103306582D01*
X65332625Y-102815375D01*
X65314381Y-102803184D01*
X65359765Y-102794157D01*
X65569809Y-102653809D01*
X65710157Y-102443765D01*
X65759440Y-102196000D01*
X65759440Y-100496000D01*
X65710157Y-100248235D01*
X65569809Y-100038191D01*
X65359765Y-99897843D01*
X65112000Y-99848560D01*
X63412000Y-99848560D01*
X63164235Y-99897843D01*
X63140000Y-99914036D01*
X63140000Y-93233990D01*
X72770000Y-93233990D01*
X72770000Y-93962010D01*
X73048601Y-94634612D01*
X73563388Y-95149399D01*
X74235990Y-95428000D01*
X74964010Y-95428000D01*
X75636612Y-95149399D01*
X76151399Y-94634612D01*
X76430000Y-93962010D01*
X76430000Y-93233990D01*
X76151399Y-92561388D01*
X75636612Y-92046601D01*
X74964010Y-91768000D01*
X74235990Y-91768000D01*
X73563388Y-92046601D01*
X73048601Y-92561388D01*
X72770000Y-93233990D01*
X63140000Y-93233990D01*
X63140000Y-85870767D01*
X63483974Y-86214741D01*
X64305431Y-86555000D01*
X65194569Y-86555000D01*
X66016026Y-86214741D01*
X66644741Y-85586026D01*
X66882560Y-85011881D01*
X66882560Y-88773000D01*
X66931843Y-89020765D01*
X67072191Y-89230809D01*
X67282235Y-89371157D01*
X67530000Y-89420440D01*
X74870000Y-89420440D01*
X75117765Y-89371157D01*
X75327809Y-89230809D01*
X75468157Y-89020765D01*
X75517440Y-88773000D01*
X75517440Y-87233000D01*
X79097972Y-87233000D01*
X79259002Y-87265031D01*
X79420032Y-87233000D01*
X79420033Y-87233000D01*
X79896947Y-87138136D01*
X80437771Y-86776769D01*
X80528990Y-86640250D01*
X84834251Y-82334990D01*
X89449621Y-82334990D01*
X89021231Y-82621231D01*
G36*
X91900271Y-89895731D02*
X92120287Y-90042741D01*
X113171260Y-111093715D01*
X113318268Y-111313728D01*
X114150789Y-111870000D01*
X114189871Y-111896114D01*
X115217997Y-112100621D01*
X115477518Y-112048999D01*
X117422547Y-112048999D01*
X118638556Y-113265009D01*
X115969839Y-113265009D01*
X115894991Y-113250121D01*
X115820143Y-113265009D01*
X115820139Y-113265009D01*
X115598454Y-113309105D01*
X115347062Y-113477080D01*
X115304662Y-113540536D01*
X115240198Y-113605000D01*
X115074126Y-113605000D01*
X114693720Y-113762569D01*
X114402569Y-114053720D01*
X114245000Y-114434126D01*
X114245000Y-114627001D01*
X101344000Y-114627001D01*
X101344000Y-112717711D01*
X101461431Y-112600280D01*
X101619000Y-112219874D01*
X101619000Y-111808126D01*
X101461431Y-111427720D01*
X101170280Y-111136569D01*
X100789874Y-110979000D01*
X100378126Y-110979000D01*
X99997720Y-111136569D01*
X99706569Y-111427720D01*
X99549000Y-111808126D01*
X99549000Y-112219874D01*
X99706569Y-112600280D01*
X99824001Y-112717712D01*
X99824000Y-115139153D01*
X99809112Y-115214000D01*
X99824000Y-115288847D01*
X99824000Y-115288851D01*
X99868096Y-115510536D01*
X100036071Y-115761929D01*
X100099529Y-115804330D01*
X100166671Y-115871473D01*
X100209072Y-115934930D01*
X100460464Y-116102905D01*
X100682149Y-116147001D01*
X100682153Y-116147001D01*
X100757000Y-116161889D01*
X100831847Y-116147001D01*
X102089000Y-116147001D01*
X102089000Y-116317875D01*
X102246569Y-116698281D01*
X102537720Y-116989432D01*
X102918126Y-117147001D01*
X103329874Y-117147001D01*
X103507704Y-117073341D01*
X103638570Y-117389280D01*
X103929721Y-117680431D01*
X104310127Y-117838000D01*
X104721875Y-117838000D01*
X105102281Y-117680431D01*
X105220931Y-117561781D01*
X105899304Y-117560606D01*
X105899304Y-117729689D01*
X106056873Y-118110095D01*
X106348024Y-118401246D01*
X106530879Y-118476987D01*
X99432452Y-118476987D01*
X99878768Y-118178768D01*
X100240135Y-117637945D01*
X100367030Y-116999999D01*
X100240135Y-116362054D01*
X99969985Y-115957746D01*
X91835000Y-107822762D01*
X91835000Y-89798046D01*
X91900271Y-89895731D01*
X91900271Y-89895731D01*
G37*
X91900271Y-89895731D02*
X92120287Y-90042741D01*
X113171260Y-111093715D01*
X113318268Y-111313728D01*
X114150789Y-111870000D01*
X114189871Y-111896114D01*
X115217997Y-112100621D01*
X115477518Y-112048999D01*
X117422547Y-112048999D01*
X118638556Y-113265009D01*
X115969839Y-113265009D01*
X115894991Y-113250121D01*
X115820143Y-113265009D01*
X115820139Y-113265009D01*
X115598454Y-113309105D01*
X115347062Y-113477080D01*
X115304662Y-113540536D01*
X115240198Y-113605000D01*
X115074126Y-113605000D01*
X114693720Y-113762569D01*
X114402569Y-114053720D01*
X114245000Y-114434126D01*
X114245000Y-114627001D01*
X101344000Y-114627001D01*
X101344000Y-112717711D01*
X101461431Y-112600280D01*
X101619000Y-112219874D01*
X101619000Y-111808126D01*
X101461431Y-111427720D01*
X101170280Y-111136569D01*
X100789874Y-110979000D01*
X100378126Y-110979000D01*
X99997720Y-111136569D01*
X99706569Y-111427720D01*
X99549000Y-111808126D01*
X99549000Y-112219874D01*
X99706569Y-112600280D01*
X99824001Y-112717712D01*
X99824000Y-115139153D01*
X99809112Y-115214000D01*
X99824000Y-115288847D01*
X99824000Y-115288851D01*
X99868096Y-115510536D01*
X100036071Y-115761929D01*
X100099529Y-115804330D01*
X100166671Y-115871473D01*
X100209072Y-115934930D01*
X100460464Y-116102905D01*
X100682149Y-116147001D01*
X100682153Y-116147001D01*
X100757000Y-116161889D01*
X100831847Y-116147001D01*
X102089000Y-116147001D01*
X102089000Y-116317875D01*
X102246569Y-116698281D01*
X102537720Y-116989432D01*
X102918126Y-117147001D01*
X103329874Y-117147001D01*
X103507704Y-117073341D01*
X103638570Y-117389280D01*
X103929721Y-117680431D01*
X104310127Y-117838000D01*
X104721875Y-117838000D01*
X105102281Y-117680431D01*
X105220931Y-117561781D01*
X105899304Y-117560606D01*
X105899304Y-117729689D01*
X106056873Y-118110095D01*
X106348024Y-118401246D01*
X106530879Y-118476987D01*
X99432452Y-118476987D01*
X99878768Y-118178768D01*
X100240135Y-117637945D01*
X100367030Y-116999999D01*
X100240135Y-116362054D01*
X99969985Y-115957746D01*
X91835000Y-107822762D01*
X91835000Y-89798046D01*
X91900271Y-89895731D01*
G36*
X64389000Y-113919000D02*
X64409000Y-113919000D01*
X64409000Y-114173000D01*
X64389000Y-114173000D01*
X64389000Y-114193000D01*
X64135000Y-114193000D01*
X64135000Y-114173000D01*
X64115000Y-114173000D01*
X64115000Y-113919000D01*
X64135000Y-113919000D01*
X64135000Y-113899000D01*
X64389000Y-113899000D01*
X64389000Y-113919000D01*
X64389000Y-113919000D01*
G37*
X64389000Y-113919000D02*
X64409000Y-113919000D01*
X64409000Y-114173000D01*
X64389000Y-114173000D01*
X64389000Y-114193000D01*
X64135000Y-114193000D01*
X64135000Y-114173000D01*
X64115000Y-114173000D01*
X64115000Y-113919000D01*
X64135000Y-113919000D01*
X64135000Y-113899000D01*
X64389000Y-113899000D01*
X64389000Y-113919000D01*
G36*
X65519989Y-109794126D02*
X65519989Y-110205874D01*
X65677558Y-110586280D01*
X65968709Y-110877431D01*
X66349115Y-111035000D01*
X66638082Y-111035000D01*
X66638081Y-112334118D01*
X65580353Y-113391847D01*
X65533645Y-113279076D01*
X65143358Y-112850817D01*
X65013522Y-112789843D01*
X65332625Y-112576625D01*
X65660839Y-112085418D01*
X65776092Y-111506000D01*
X65660839Y-110926582D01*
X65332625Y-110435375D01*
X65034239Y-110236000D01*
X65332625Y-110036625D01*
X65561304Y-109694383D01*
X65519989Y-109794126D01*
X65519989Y-109794126D01*
G37*
X65519989Y-109794126D02*
X65519989Y-110205874D01*
X65677558Y-110586280D01*
X65968709Y-110877431D01*
X66349115Y-111035000D01*
X66638082Y-111035000D01*
X66638081Y-112334118D01*
X65580353Y-113391847D01*
X65533645Y-113279076D01*
X65143358Y-112850817D01*
X65013522Y-112789843D01*
X65332625Y-112576625D01*
X65660839Y-112085418D01*
X65776092Y-111506000D01*
X65660839Y-110926582D01*
X65332625Y-110435375D01*
X65034239Y-110236000D01*
X65332625Y-110036625D01*
X65561304Y-109694383D01*
X65519989Y-109794126D01*
G36*
X153355748Y-111745858D02*
X153341605Y-111760000D01*
X153355748Y-111774143D01*
X153176143Y-111953748D01*
X153162000Y-111939605D01*
X153147858Y-111953748D01*
X152968253Y-111774143D01*
X152982395Y-111760000D01*
X152968253Y-111745858D01*
X153147858Y-111566253D01*
X153162000Y-111580395D01*
X153176143Y-111566253D01*
X153355748Y-111745858D01*
X153355748Y-111745858D01*
G37*
X153355748Y-111745858D02*
X153341605Y-111760000D01*
X153355748Y-111774143D01*
X153176143Y-111953748D01*
X153162000Y-111939605D01*
X153147858Y-111953748D01*
X152968253Y-111774143D01*
X152982395Y-111760000D01*
X152968253Y-111745858D01*
X153147858Y-111566253D01*
X153162000Y-111580395D01*
X153176143Y-111566253D01*
X153355748Y-111745858D01*
G36*
X101079111Y-88392000D02*
X101094000Y-88466852D01*
X101094001Y-89212288D01*
X100976569Y-89329720D01*
X100819000Y-89710126D01*
X100819000Y-90121874D01*
X100976569Y-90502280D01*
X101267720Y-90793431D01*
X101648126Y-90951000D01*
X102059874Y-90951000D01*
X102440280Y-90793431D01*
X102731431Y-90502280D01*
X102889000Y-90121874D01*
X102889000Y-89710126D01*
X102731431Y-89329720D01*
X102614000Y-89212289D01*
X102614000Y-88967945D01*
X102655929Y-88939929D01*
X102698331Y-88876471D01*
X102734791Y-88840010D01*
X103105000Y-88840010D01*
X103105000Y-89105874D01*
X103262569Y-89486280D01*
X103553720Y-89777431D01*
X103934126Y-89935000D01*
X104345874Y-89935000D01*
X104726280Y-89777431D01*
X105017431Y-89486280D01*
X105098724Y-89290020D01*
X126569219Y-89290020D01*
X131613670Y-94334472D01*
X131656071Y-94397929D01*
X131907463Y-94565904D01*
X132129148Y-94610000D01*
X132129153Y-94610000D01*
X132204000Y-94624888D01*
X132278847Y-94610000D01*
X132997762Y-94610000D01*
X132768959Y-94862577D01*
X132608096Y-95250961D01*
X132730085Y-95473000D01*
X133873000Y-95473000D01*
X133873000Y-95453000D01*
X134127000Y-95453000D01*
X134127000Y-95473000D01*
X134147000Y-95473000D01*
X134147000Y-95727000D01*
X134127000Y-95727000D01*
X134127000Y-96870629D01*
X134349041Y-96991914D01*
X134365001Y-96984360D01*
X134365001Y-97270154D01*
X134350113Y-97345001D01*
X134365001Y-97419848D01*
X134365001Y-97419852D01*
X134409097Y-97641537D01*
X134577072Y-97892930D01*
X134640531Y-97935332D01*
X135014670Y-98309471D01*
X135057072Y-98372930D01*
X135234498Y-98491482D01*
X135152193Y-98731036D01*
X135182518Y-99221413D01*
X135311836Y-99533617D01*
X135537265Y-99583130D01*
X136220395Y-98900000D01*
X136206253Y-98885858D01*
X136385858Y-98706253D01*
X136400000Y-98720395D01*
X136414143Y-98706253D01*
X136593748Y-98885858D01*
X136579605Y-98900000D01*
X137262735Y-99583130D01*
X137488164Y-99533617D01*
X137647807Y-99068964D01*
X137617482Y-98578587D01*
X137592046Y-98517179D01*
X137807930Y-98372930D01*
X137850332Y-98309471D01*
X137928318Y-98231485D01*
X137991777Y-98189083D01*
X138159752Y-97937691D01*
X138203848Y-97716006D01*
X138203848Y-97716001D01*
X138218736Y-97641154D01*
X138205806Y-97576152D01*
X141250721Y-97576152D01*
X140059336Y-98767538D01*
X139893263Y-98767538D01*
X139512857Y-98925107D01*
X139221706Y-99216258D01*
X139064137Y-99596664D01*
X139064137Y-100008412D01*
X139221706Y-100388818D01*
X139416324Y-100583436D01*
X139364738Y-100635022D01*
X139228222Y-100726239D01*
X138866854Y-101267063D01*
X138771990Y-101743977D01*
X138739959Y-101905008D01*
X138771990Y-102066038D01*
X138771990Y-102175773D01*
X137547440Y-103400323D01*
X137547440Y-103000000D01*
X137498157Y-102752235D01*
X137357809Y-102542191D01*
X137224282Y-102452970D01*
X137278430Y-102398822D01*
X137162737Y-102283129D01*
X137388164Y-102233617D01*
X137547807Y-101768964D01*
X137517482Y-101278587D01*
X137388164Y-100966383D01*
X137162735Y-100916870D01*
X136479605Y-101600000D01*
X136493748Y-101614143D01*
X136314143Y-101793748D01*
X136300000Y-101779605D01*
X136285858Y-101793748D01*
X136106253Y-101614143D01*
X136120395Y-101600000D01*
X135437265Y-100916870D01*
X135211836Y-100966383D01*
X135052193Y-101431036D01*
X135082518Y-101921413D01*
X135211836Y-102233617D01*
X135437263Y-102283129D01*
X135321570Y-102398822D01*
X135375718Y-102452970D01*
X135242191Y-102542191D01*
X135101843Y-102752235D01*
X135052560Y-103000000D01*
X135052560Y-104200000D01*
X135101843Y-104447765D01*
X135242191Y-104657809D01*
X135452235Y-104798157D01*
X135700000Y-104847440D01*
X136100324Y-104847440D01*
X134005594Y-106942170D01*
X133240635Y-106942170D01*
X133339955Y-106702391D01*
X133339955Y-106051947D01*
X133091041Y-105451016D01*
X132631108Y-104991083D01*
X132030177Y-104742169D01*
X131379733Y-104742169D01*
X130778802Y-104991083D01*
X130318869Y-105451016D01*
X130069955Y-106051947D01*
X130069955Y-106702391D01*
X130169275Y-106942170D01*
X126123705Y-106942170D01*
X125646791Y-107037034D01*
X125105967Y-107398401D01*
X125076721Y-107442170D01*
X124034613Y-107442170D01*
X123922830Y-107419935D01*
X123811047Y-107442170D01*
X123479975Y-107508024D01*
X123137755Y-107736688D01*
X123571121Y-107303322D01*
X123820035Y-106702391D01*
X123820035Y-106051947D01*
X123571121Y-105451016D01*
X123111188Y-104991083D01*
X122510257Y-104742169D01*
X121859813Y-104742169D01*
X121258882Y-104991083D01*
X120798949Y-105451016D01*
X120550035Y-106051947D01*
X120550035Y-106702391D01*
X120798949Y-107303322D01*
X121258882Y-107763255D01*
X121859813Y-108012169D01*
X122510257Y-108012169D01*
X123097956Y-107768736D01*
X123041221Y-107853646D01*
X121860660Y-109034208D01*
X120560737Y-107734285D01*
X120413728Y-107514270D01*
X119542125Y-106931884D01*
X118773520Y-106778999D01*
X118513999Y-106727377D01*
X118254478Y-106778999D01*
X116309450Y-106778999D01*
X113499072Y-103968621D01*
X130729488Y-103968621D01*
X130828151Y-104235476D01*
X131437876Y-104461997D01*
X132087875Y-104437945D01*
X132576679Y-104235476D01*
X132675342Y-103968621D01*
X131702415Y-102995694D01*
X130729488Y-103968621D01*
X113499072Y-103968621D01*
X112082001Y-102551550D01*
X130056507Y-102551550D01*
X130080559Y-103201549D01*
X130283028Y-103690353D01*
X130549883Y-103789016D01*
X131522810Y-102816089D01*
X131882020Y-102816089D01*
X132854947Y-103789016D01*
X133121802Y-103690353D01*
X133348323Y-103080628D01*
X133324271Y-102430629D01*
X133121802Y-101941825D01*
X132854947Y-101843162D01*
X131882020Y-102816089D01*
X131522810Y-102816089D01*
X130549883Y-101843162D01*
X130283028Y-101941825D01*
X130056507Y-102551550D01*
X112082001Y-102551550D01*
X111194008Y-101663557D01*
X130729488Y-101663557D01*
X131702415Y-102636484D01*
X132675342Y-101663557D01*
X132576679Y-101396702D01*
X131966954Y-101170181D01*
X131316955Y-101194233D01*
X130828151Y-101396702D01*
X130729488Y-101663557D01*
X111194008Y-101663557D01*
X108457698Y-98927247D01*
X120552575Y-98927247D01*
X120552575Y-99577691D01*
X120801489Y-100178622D01*
X121261422Y-100638555D01*
X121862353Y-100887469D01*
X122512797Y-100887469D01*
X123113728Y-100638555D01*
X123573661Y-100178622D01*
X123822575Y-99577691D01*
X123822575Y-98929787D01*
X130069955Y-98929787D01*
X130069955Y-99580231D01*
X130318869Y-100181162D01*
X130778802Y-100641095D01*
X131379733Y-100890009D01*
X132030177Y-100890009D01*
X132398933Y-100737265D01*
X135616870Y-100737265D01*
X136300000Y-101420395D01*
X136983130Y-100737265D01*
X136933617Y-100511836D01*
X136468964Y-100352193D01*
X135978587Y-100382518D01*
X135666383Y-100511836D01*
X135616870Y-100737265D01*
X132398933Y-100737265D01*
X132631108Y-100641095D01*
X133091041Y-100181162D01*
X133264359Y-99762735D01*
X135716870Y-99762735D01*
X135766383Y-99988164D01*
X136231036Y-100147807D01*
X136721413Y-100117482D01*
X137033617Y-99988164D01*
X137083130Y-99762735D01*
X136400000Y-99079605D01*
X135716870Y-99762735D01*
X133264359Y-99762735D01*
X133339955Y-99580231D01*
X133339955Y-98929787D01*
X133091041Y-98328856D01*
X132631108Y-97868923D01*
X132030177Y-97620009D01*
X131379733Y-97620009D01*
X130778802Y-97868923D01*
X130318869Y-98328856D01*
X130069955Y-98929787D01*
X123822575Y-98929787D01*
X123822575Y-98927247D01*
X123573661Y-98326316D01*
X123113728Y-97866383D01*
X122512797Y-97617469D01*
X121862353Y-97617469D01*
X121261422Y-97866383D01*
X120801489Y-98326316D01*
X120552575Y-98927247D01*
X108457698Y-98927247D01*
X104845012Y-95314561D01*
X119865000Y-95314561D01*
X119865000Y-95885439D01*
X120083466Y-96412862D01*
X120487138Y-96816534D01*
X121014561Y-97035000D01*
X121585439Y-97035000D01*
X122112862Y-96816534D01*
X122516534Y-96412862D01*
X122708655Y-95949039D01*
X132608096Y-95949039D01*
X132768959Y-96337423D01*
X133144866Y-96752389D01*
X133650959Y-96991914D01*
X133873000Y-96870629D01*
X133873000Y-95727000D01*
X132730085Y-95727000D01*
X132608096Y-95949039D01*
X122708655Y-95949039D01*
X122735000Y-95885439D01*
X122735000Y-95314561D01*
X122516534Y-94787138D01*
X122112862Y-94383466D01*
X121585439Y-94165000D01*
X121014561Y-94165000D01*
X120487138Y-94383466D01*
X120083466Y-94787138D01*
X119865000Y-95314561D01*
X104845012Y-95314561D01*
X102492258Y-92961807D01*
X122621797Y-92961807D01*
X122915508Y-93614776D01*
X123436742Y-94105642D01*
X123998195Y-94338195D01*
X124283000Y-94221432D01*
X124283000Y-92677000D01*
X124537000Y-92677000D01*
X124537000Y-94221432D01*
X124821805Y-94338195D01*
X125383258Y-94105642D01*
X125904492Y-93614776D01*
X126198203Y-92961807D01*
X126081858Y-92677000D01*
X124537000Y-92677000D01*
X124283000Y-92677000D01*
X122738142Y-92677000D01*
X122621797Y-92961807D01*
X102492258Y-92961807D01*
X101668644Y-92138193D01*
X122621797Y-92138193D01*
X122738142Y-92423000D01*
X124283000Y-92423000D01*
X124283000Y-90878568D01*
X124537000Y-90878568D01*
X124537000Y-92423000D01*
X126081858Y-92423000D01*
X126198203Y-92138193D01*
X125904492Y-91485224D01*
X125383258Y-90994358D01*
X124821805Y-90761805D01*
X124537000Y-90878568D01*
X124283000Y-90878568D01*
X123998195Y-90761805D01*
X123436742Y-90994358D01*
X122915508Y-91485224D01*
X122621797Y-92138193D01*
X101668644Y-92138193D01*
X100239081Y-90708630D01*
X100445431Y-90502280D01*
X100603000Y-90121874D01*
X100603000Y-89710126D01*
X100592404Y-89684544D01*
X100596888Y-89662001D01*
X100582000Y-89587154D01*
X100582000Y-88390000D01*
X101079509Y-88390000D01*
X101079111Y-88392000D01*
X101079111Y-88392000D01*
G37*
X101079111Y-88392000D02*
X101094000Y-88466852D01*
X101094001Y-89212288D01*
X100976569Y-89329720D01*
X100819000Y-89710126D01*
X100819000Y-90121874D01*
X100976569Y-90502280D01*
X101267720Y-90793431D01*
X101648126Y-90951000D01*
X102059874Y-90951000D01*
X102440280Y-90793431D01*
X102731431Y-90502280D01*
X102889000Y-90121874D01*
X102889000Y-89710126D01*
X102731431Y-89329720D01*
X102614000Y-89212289D01*
X102614000Y-88967945D01*
X102655929Y-88939929D01*
X102698331Y-88876471D01*
X102734791Y-88840010D01*
X103105000Y-88840010D01*
X103105000Y-89105874D01*
X103262569Y-89486280D01*
X103553720Y-89777431D01*
X103934126Y-89935000D01*
X104345874Y-89935000D01*
X104726280Y-89777431D01*
X105017431Y-89486280D01*
X105098724Y-89290020D01*
X126569219Y-89290020D01*
X131613670Y-94334472D01*
X131656071Y-94397929D01*
X131907463Y-94565904D01*
X132129148Y-94610000D01*
X132129153Y-94610000D01*
X132204000Y-94624888D01*
X132278847Y-94610000D01*
X132997762Y-94610000D01*
X132768959Y-94862577D01*
X132608096Y-95250961D01*
X132730085Y-95473000D01*
X133873000Y-95473000D01*
X133873000Y-95453000D01*
X134127000Y-95453000D01*
X134127000Y-95473000D01*
X134147000Y-95473000D01*
X134147000Y-95727000D01*
X134127000Y-95727000D01*
X134127000Y-96870629D01*
X134349041Y-96991914D01*
X134365001Y-96984360D01*
X134365001Y-97270154D01*
X134350113Y-97345001D01*
X134365001Y-97419848D01*
X134365001Y-97419852D01*
X134409097Y-97641537D01*
X134577072Y-97892930D01*
X134640531Y-97935332D01*
X135014670Y-98309471D01*
X135057072Y-98372930D01*
X135234498Y-98491482D01*
X135152193Y-98731036D01*
X135182518Y-99221413D01*
X135311836Y-99533617D01*
X135537265Y-99583130D01*
X136220395Y-98900000D01*
X136206253Y-98885858D01*
X136385858Y-98706253D01*
X136400000Y-98720395D01*
X136414143Y-98706253D01*
X136593748Y-98885858D01*
X136579605Y-98900000D01*
X137262735Y-99583130D01*
X137488164Y-99533617D01*
X137647807Y-99068964D01*
X137617482Y-98578587D01*
X137592046Y-98517179D01*
X137807930Y-98372930D01*
X137850332Y-98309471D01*
X137928318Y-98231485D01*
X137991777Y-98189083D01*
X138159752Y-97937691D01*
X138203848Y-97716006D01*
X138203848Y-97716001D01*
X138218736Y-97641154D01*
X138205806Y-97576152D01*
X141250721Y-97576152D01*
X140059336Y-98767538D01*
X139893263Y-98767538D01*
X139512857Y-98925107D01*
X139221706Y-99216258D01*
X139064137Y-99596664D01*
X139064137Y-100008412D01*
X139221706Y-100388818D01*
X139416324Y-100583436D01*
X139364738Y-100635022D01*
X139228222Y-100726239D01*
X138866854Y-101267063D01*
X138771990Y-101743977D01*
X138739959Y-101905008D01*
X138771990Y-102066038D01*
X138771990Y-102175773D01*
X137547440Y-103400323D01*
X137547440Y-103000000D01*
X137498157Y-102752235D01*
X137357809Y-102542191D01*
X137224282Y-102452970D01*
X137278430Y-102398822D01*
X137162737Y-102283129D01*
X137388164Y-102233617D01*
X137547807Y-101768964D01*
X137517482Y-101278587D01*
X137388164Y-100966383D01*
X137162735Y-100916870D01*
X136479605Y-101600000D01*
X136493748Y-101614143D01*
X136314143Y-101793748D01*
X136300000Y-101779605D01*
X136285858Y-101793748D01*
X136106253Y-101614143D01*
X136120395Y-101600000D01*
X135437265Y-100916870D01*
X135211836Y-100966383D01*
X135052193Y-101431036D01*
X135082518Y-101921413D01*
X135211836Y-102233617D01*
X135437263Y-102283129D01*
X135321570Y-102398822D01*
X135375718Y-102452970D01*
X135242191Y-102542191D01*
X135101843Y-102752235D01*
X135052560Y-103000000D01*
X135052560Y-104200000D01*
X135101843Y-104447765D01*
X135242191Y-104657809D01*
X135452235Y-104798157D01*
X135700000Y-104847440D01*
X136100324Y-104847440D01*
X134005594Y-106942170D01*
X133240635Y-106942170D01*
X133339955Y-106702391D01*
X133339955Y-106051947D01*
X133091041Y-105451016D01*
X132631108Y-104991083D01*
X132030177Y-104742169D01*
X131379733Y-104742169D01*
X130778802Y-104991083D01*
X130318869Y-105451016D01*
X130069955Y-106051947D01*
X130069955Y-106702391D01*
X130169275Y-106942170D01*
X126123705Y-106942170D01*
X125646791Y-107037034D01*
X125105967Y-107398401D01*
X125076721Y-107442170D01*
X124034613Y-107442170D01*
X123922830Y-107419935D01*
X123811047Y-107442170D01*
X123479975Y-107508024D01*
X123137755Y-107736688D01*
X123571121Y-107303322D01*
X123820035Y-106702391D01*
X123820035Y-106051947D01*
X123571121Y-105451016D01*
X123111188Y-104991083D01*
X122510257Y-104742169D01*
X121859813Y-104742169D01*
X121258882Y-104991083D01*
X120798949Y-105451016D01*
X120550035Y-106051947D01*
X120550035Y-106702391D01*
X120798949Y-107303322D01*
X121258882Y-107763255D01*
X121859813Y-108012169D01*
X122510257Y-108012169D01*
X123097956Y-107768736D01*
X123041221Y-107853646D01*
X121860660Y-109034208D01*
X120560737Y-107734285D01*
X120413728Y-107514270D01*
X119542125Y-106931884D01*
X118773520Y-106778999D01*
X118513999Y-106727377D01*
X118254478Y-106778999D01*
X116309450Y-106778999D01*
X113499072Y-103968621D01*
X130729488Y-103968621D01*
X130828151Y-104235476D01*
X131437876Y-104461997D01*
X132087875Y-104437945D01*
X132576679Y-104235476D01*
X132675342Y-103968621D01*
X131702415Y-102995694D01*
X130729488Y-103968621D01*
X113499072Y-103968621D01*
X112082001Y-102551550D01*
X130056507Y-102551550D01*
X130080559Y-103201549D01*
X130283028Y-103690353D01*
X130549883Y-103789016D01*
X131522810Y-102816089D01*
X131882020Y-102816089D01*
X132854947Y-103789016D01*
X133121802Y-103690353D01*
X133348323Y-103080628D01*
X133324271Y-102430629D01*
X133121802Y-101941825D01*
X132854947Y-101843162D01*
X131882020Y-102816089D01*
X131522810Y-102816089D01*
X130549883Y-101843162D01*
X130283028Y-101941825D01*
X130056507Y-102551550D01*
X112082001Y-102551550D01*
X111194008Y-101663557D01*
X130729488Y-101663557D01*
X131702415Y-102636484D01*
X132675342Y-101663557D01*
X132576679Y-101396702D01*
X131966954Y-101170181D01*
X131316955Y-101194233D01*
X130828151Y-101396702D01*
X130729488Y-101663557D01*
X111194008Y-101663557D01*
X108457698Y-98927247D01*
X120552575Y-98927247D01*
X120552575Y-99577691D01*
X120801489Y-100178622D01*
X121261422Y-100638555D01*
X121862353Y-100887469D01*
X122512797Y-100887469D01*
X123113728Y-100638555D01*
X123573661Y-100178622D01*
X123822575Y-99577691D01*
X123822575Y-98929787D01*
X130069955Y-98929787D01*
X130069955Y-99580231D01*
X130318869Y-100181162D01*
X130778802Y-100641095D01*
X131379733Y-100890009D01*
X132030177Y-100890009D01*
X132398933Y-100737265D01*
X135616870Y-100737265D01*
X136300000Y-101420395D01*
X136983130Y-100737265D01*
X136933617Y-100511836D01*
X136468964Y-100352193D01*
X135978587Y-100382518D01*
X135666383Y-100511836D01*
X135616870Y-100737265D01*
X132398933Y-100737265D01*
X132631108Y-100641095D01*
X133091041Y-100181162D01*
X133264359Y-99762735D01*
X135716870Y-99762735D01*
X135766383Y-99988164D01*
X136231036Y-100147807D01*
X136721413Y-100117482D01*
X137033617Y-99988164D01*
X137083130Y-99762735D01*
X136400000Y-99079605D01*
X135716870Y-99762735D01*
X133264359Y-99762735D01*
X133339955Y-99580231D01*
X133339955Y-98929787D01*
X133091041Y-98328856D01*
X132631108Y-97868923D01*
X132030177Y-97620009D01*
X131379733Y-97620009D01*
X130778802Y-97868923D01*
X130318869Y-98328856D01*
X130069955Y-98929787D01*
X123822575Y-98929787D01*
X123822575Y-98927247D01*
X123573661Y-98326316D01*
X123113728Y-97866383D01*
X122512797Y-97617469D01*
X121862353Y-97617469D01*
X121261422Y-97866383D01*
X120801489Y-98326316D01*
X120552575Y-98927247D01*
X108457698Y-98927247D01*
X104845012Y-95314561D01*
X119865000Y-95314561D01*
X119865000Y-95885439D01*
X120083466Y-96412862D01*
X120487138Y-96816534D01*
X121014561Y-97035000D01*
X121585439Y-97035000D01*
X122112862Y-96816534D01*
X122516534Y-96412862D01*
X122708655Y-95949039D01*
X132608096Y-95949039D01*
X132768959Y-96337423D01*
X133144866Y-96752389D01*
X133650959Y-96991914D01*
X133873000Y-96870629D01*
X133873000Y-95727000D01*
X132730085Y-95727000D01*
X132608096Y-95949039D01*
X122708655Y-95949039D01*
X122735000Y-95885439D01*
X122735000Y-95314561D01*
X122516534Y-94787138D01*
X122112862Y-94383466D01*
X121585439Y-94165000D01*
X121014561Y-94165000D01*
X120487138Y-94383466D01*
X120083466Y-94787138D01*
X119865000Y-95314561D01*
X104845012Y-95314561D01*
X102492258Y-92961807D01*
X122621797Y-92961807D01*
X122915508Y-93614776D01*
X123436742Y-94105642D01*
X123998195Y-94338195D01*
X124283000Y-94221432D01*
X124283000Y-92677000D01*
X124537000Y-92677000D01*
X124537000Y-94221432D01*
X124821805Y-94338195D01*
X125383258Y-94105642D01*
X125904492Y-93614776D01*
X126198203Y-92961807D01*
X126081858Y-92677000D01*
X124537000Y-92677000D01*
X124283000Y-92677000D01*
X122738142Y-92677000D01*
X122621797Y-92961807D01*
X102492258Y-92961807D01*
X101668644Y-92138193D01*
X122621797Y-92138193D01*
X122738142Y-92423000D01*
X124283000Y-92423000D01*
X124283000Y-90878568D01*
X124537000Y-90878568D01*
X124537000Y-92423000D01*
X126081858Y-92423000D01*
X126198203Y-92138193D01*
X125904492Y-91485224D01*
X125383258Y-90994358D01*
X124821805Y-90761805D01*
X124537000Y-90878568D01*
X124283000Y-90878568D01*
X123998195Y-90761805D01*
X123436742Y-90994358D01*
X122915508Y-91485224D01*
X122621797Y-92138193D01*
X101668644Y-92138193D01*
X100239081Y-90708630D01*
X100445431Y-90502280D01*
X100603000Y-90121874D01*
X100603000Y-89710126D01*
X100592404Y-89684544D01*
X100596888Y-89662001D01*
X100582000Y-89587154D01*
X100582000Y-88390000D01*
X101079509Y-88390000D01*
X101079111Y-88392000D01*
G36*
X148760001Y-80813952D02*
X148749104Y-80853743D01*
X148760001Y-80940185D01*
X148760001Y-80963033D01*
X148767866Y-81002571D01*
X148772910Y-81042587D01*
X148780139Y-81064273D01*
X148797134Y-81149715D01*
X148820053Y-81184016D01*
X148887334Y-81385858D01*
X148899378Y-81429838D01*
X148907226Y-81445534D01*
X148912776Y-81462184D01*
X148935359Y-81501800D01*
X148989086Y-81609254D01*
X148997134Y-81649716D01*
X149045535Y-81722153D01*
X149055756Y-81742595D01*
X149080480Y-81774452D01*
X149081221Y-81775560D01*
X146190000Y-81775560D01*
X146126776Y-81788136D01*
X146335000Y-81285439D01*
X146335000Y-80714561D01*
X146116534Y-80187138D01*
X145712862Y-79783466D01*
X145185439Y-79565000D01*
X144614561Y-79565000D01*
X144087138Y-79783466D01*
X143683466Y-80187138D01*
X143465000Y-80714561D01*
X143465000Y-81285439D01*
X143683466Y-81812862D01*
X144087138Y-82216534D01*
X144614561Y-82435000D01*
X145185439Y-82435000D01*
X145572024Y-82274871D01*
X145542560Y-82423000D01*
X145542560Y-83365000D01*
X124338969Y-83365000D01*
X123862055Y-83459864D01*
X123321231Y-83821231D01*
X122959864Y-84362055D01*
X122832969Y-85000000D01*
X122959864Y-85637945D01*
X123321231Y-86178769D01*
X123862055Y-86540136D01*
X124338969Y-86635000D01*
X145542560Y-86635000D01*
X145542560Y-88773000D01*
X145591843Y-89020765D01*
X145732191Y-89230809D01*
X145942235Y-89371157D01*
X146190000Y-89420440D01*
X153025951Y-89420440D01*
X151477750Y-90968642D01*
X151341231Y-91059861D01*
X150979864Y-91600686D01*
X150891929Y-92042765D01*
X150852969Y-92238630D01*
X150885000Y-92399660D01*
X150885001Y-93938420D01*
X150832969Y-94200000D01*
X150959865Y-94837945D01*
X151321232Y-95378768D01*
X151761559Y-95672986D01*
X151621864Y-95882055D01*
X151494969Y-96520000D01*
X151621864Y-97157945D01*
X151983231Y-97698769D01*
X152321530Y-97924813D01*
X151977680Y-98268663D01*
X151814128Y-98663512D01*
X151609966Y-98170620D01*
X151009380Y-97570034D01*
X150224678Y-97245000D01*
X149375322Y-97245000D01*
X148590620Y-97570034D01*
X147990034Y-98170620D01*
X147665000Y-98955322D01*
X147665000Y-99797196D01*
X143031334Y-95163531D01*
X142988932Y-95100072D01*
X142737540Y-94932097D01*
X142515855Y-94888001D01*
X142515850Y-94888001D01*
X142441003Y-94873113D01*
X142366156Y-94888001D01*
X140150109Y-94888001D01*
X140490000Y-94067433D01*
X140490000Y-94049041D01*
X143508086Y-94049041D01*
X143747611Y-94555134D01*
X144162577Y-94931041D01*
X144550961Y-95091904D01*
X144773000Y-94969915D01*
X144773000Y-93827000D01*
X143629371Y-93827000D01*
X143508086Y-94049041D01*
X140490000Y-94049041D01*
X140490000Y-93350959D01*
X143508086Y-93350959D01*
X143629371Y-93573000D01*
X144773000Y-93573000D01*
X144773000Y-92430085D01*
X145027000Y-92430085D01*
X145027000Y-93573000D01*
X145047000Y-93573000D01*
X145047000Y-93827000D01*
X145027000Y-93827000D01*
X145027000Y-94969915D01*
X145249039Y-95091904D01*
X145637423Y-94931041D01*
X146052389Y-94555134D01*
X146291914Y-94049041D01*
X146170630Y-93827002D01*
X146335000Y-93827002D01*
X146335000Y-93798720D01*
X146481711Y-94018289D01*
X146857145Y-94269146D01*
X147188217Y-94335000D01*
X148365000Y-94335000D01*
X148365000Y-95261782D01*
X148430854Y-95592854D01*
X148681711Y-95968289D01*
X149057145Y-96219146D01*
X149500000Y-96307235D01*
X149942854Y-96219146D01*
X150318289Y-95968289D01*
X150569146Y-95592855D01*
X150635000Y-95261783D01*
X150635000Y-93861781D01*
X150657235Y-93749999D01*
X150629594Y-93611041D01*
X150569146Y-93307145D01*
X150318289Y-92931711D01*
X150223520Y-92868389D01*
X149831612Y-92476481D01*
X149768289Y-92381711D01*
X149392855Y-92130854D01*
X149061783Y-92065000D01*
X148950000Y-92042765D01*
X148838217Y-92065000D01*
X147188217Y-92065000D01*
X146857145Y-92130854D01*
X146481711Y-92381711D01*
X146230854Y-92757145D01*
X146165758Y-93084404D01*
X146052389Y-92844866D01*
X145637423Y-92468959D01*
X145249039Y-92308096D01*
X145027000Y-92430085D01*
X144773000Y-92430085D01*
X144550961Y-92308096D01*
X144162577Y-92468959D01*
X143747611Y-92844866D01*
X143508086Y-93350959D01*
X140490000Y-93350959D01*
X140490000Y-93128567D01*
X140130711Y-92261167D01*
X139466833Y-91597289D01*
X138599433Y-91238000D01*
X137660567Y-91238000D01*
X136793167Y-91597289D01*
X136734454Y-91656002D01*
X136672389Y-91524866D01*
X136257423Y-91148959D01*
X135869039Y-90988096D01*
X135647000Y-91110085D01*
X135647000Y-92253000D01*
X135667000Y-92253000D01*
X135667000Y-92507000D01*
X135647000Y-92507000D01*
X135647000Y-92527000D01*
X135393000Y-92527000D01*
X135393000Y-92507000D01*
X135373000Y-92507000D01*
X135373000Y-92253000D01*
X135393000Y-92253000D01*
X135393000Y-91110085D01*
X135170961Y-90988096D01*
X134782577Y-91148959D01*
X134367611Y-91524866D01*
X134169101Y-91944299D01*
X129370331Y-87145530D01*
X129327929Y-87082071D01*
X129076537Y-86914096D01*
X128854852Y-86870000D01*
X128854847Y-86870000D01*
X128780000Y-86855112D01*
X128705153Y-86870000D01*
X99896852Y-86870000D01*
X99822000Y-86855111D01*
X99747148Y-86870000D01*
X99525463Y-86914096D01*
X99274071Y-87082071D01*
X99106096Y-87333463D01*
X99047111Y-87630000D01*
X99062000Y-87704852D01*
X99062001Y-89005316D01*
X98981720Y-89038569D01*
X98775370Y-89244919D01*
X96435000Y-86904550D01*
X96435000Y-86740490D01*
X96282115Y-85971885D01*
X95923381Y-85435000D01*
X107961031Y-85435000D01*
X108437945Y-85340136D01*
X108978769Y-84978769D01*
X109340136Y-84437945D01*
X109467031Y-83800000D01*
X109340136Y-83162055D01*
X108978769Y-82621231D01*
X108550379Y-82334990D01*
X108722752Y-82334990D01*
X110457746Y-84069985D01*
X110862054Y-84340136D01*
X111500000Y-84467031D01*
X112137945Y-84340136D01*
X112678769Y-83978769D01*
X113040136Y-83437945D01*
X113167031Y-82800000D01*
X113040136Y-82162054D01*
X112769985Y-81757746D01*
X110669978Y-79657740D01*
X110578759Y-79521221D01*
X110524545Y-79484996D01*
X122575000Y-79484996D01*
X122575000Y-80215004D01*
X122854362Y-80889444D01*
X123370556Y-81405638D01*
X124044996Y-81685000D01*
X124775004Y-81685000D01*
X125449444Y-81405638D01*
X125965638Y-80889444D01*
X126245000Y-80215004D01*
X126245000Y-79484996D01*
X125965638Y-78810556D01*
X125890082Y-78735000D01*
X134435604Y-78735000D01*
X134303466Y-78867138D01*
X134085000Y-79394561D01*
X134085000Y-79965439D01*
X134303466Y-80492862D01*
X134707138Y-80896534D01*
X135234561Y-81115000D01*
X135805439Y-81115000D01*
X136332862Y-80896534D01*
X136736534Y-80492862D01*
X136955000Y-79965439D01*
X136955000Y-79394561D01*
X136736534Y-78867138D01*
X136604396Y-78735000D01*
X141963217Y-78735000D01*
X142075000Y-78757235D01*
X142186783Y-78735000D01*
X142517855Y-78669146D01*
X142893289Y-78418289D01*
X142956612Y-78323519D01*
X143375608Y-77904524D01*
X143563145Y-77623854D01*
X143651235Y-77181001D01*
X143563145Y-76738146D01*
X143312288Y-76362712D01*
X142936854Y-76111855D01*
X142493999Y-76023765D01*
X142051146Y-76111855D01*
X141770476Y-76299392D01*
X141604868Y-76465000D01*
X124588217Y-76465000D01*
X124257145Y-76530854D01*
X123881711Y-76781711D01*
X123630854Y-77157145D01*
X123542765Y-77600000D01*
X123630854Y-78042855D01*
X123706051Y-78155395D01*
X123370556Y-78294362D01*
X122854362Y-78810556D01*
X122575000Y-79484996D01*
X110524545Y-79484996D01*
X110037935Y-79159854D01*
X109561021Y-79064990D01*
X109561020Y-79064990D01*
X109399990Y-79032959D01*
X109238960Y-79064990D01*
X84800554Y-79064990D01*
X84930711Y-78934833D01*
X85290000Y-78067433D01*
X85290000Y-77128567D01*
X84930711Y-76261167D01*
X84523061Y-75853517D01*
X84709000Y-75575239D01*
X84908375Y-75873625D01*
X85399582Y-76201839D01*
X85832744Y-76288000D01*
X86125256Y-76288000D01*
X86558418Y-76201839D01*
X87049625Y-75873625D01*
X87061816Y-75855381D01*
X87070843Y-75900765D01*
X87211191Y-76110809D01*
X87421235Y-76251157D01*
X87669000Y-76300440D01*
X89369000Y-76300440D01*
X89616765Y-76251157D01*
X89826809Y-76110809D01*
X89967157Y-75900765D01*
X90016440Y-75653000D01*
X90016440Y-73953000D01*
X89967157Y-73705235D01*
X89923568Y-73640000D01*
X148760000Y-73640000D01*
X148760001Y-80813952D01*
X148760001Y-80813952D01*
G37*
X148760001Y-80813952D02*
X148749104Y-80853743D01*
X148760001Y-80940185D01*
X148760001Y-80963033D01*
X148767866Y-81002571D01*
X148772910Y-81042587D01*
X148780139Y-81064273D01*
X148797134Y-81149715D01*
X148820053Y-81184016D01*
X148887334Y-81385858D01*
X148899378Y-81429838D01*
X148907226Y-81445534D01*
X148912776Y-81462184D01*
X148935359Y-81501800D01*
X148989086Y-81609254D01*
X148997134Y-81649716D01*
X149045535Y-81722153D01*
X149055756Y-81742595D01*
X149080480Y-81774452D01*
X149081221Y-81775560D01*
X146190000Y-81775560D01*
X146126776Y-81788136D01*
X146335000Y-81285439D01*
X146335000Y-80714561D01*
X146116534Y-80187138D01*
X145712862Y-79783466D01*
X145185439Y-79565000D01*
X144614561Y-79565000D01*
X144087138Y-79783466D01*
X143683466Y-80187138D01*
X143465000Y-80714561D01*
X143465000Y-81285439D01*
X143683466Y-81812862D01*
X144087138Y-82216534D01*
X144614561Y-82435000D01*
X145185439Y-82435000D01*
X145572024Y-82274871D01*
X145542560Y-82423000D01*
X145542560Y-83365000D01*
X124338969Y-83365000D01*
X123862055Y-83459864D01*
X123321231Y-83821231D01*
X122959864Y-84362055D01*
X122832969Y-85000000D01*
X122959864Y-85637945D01*
X123321231Y-86178769D01*
X123862055Y-86540136D01*
X124338969Y-86635000D01*
X145542560Y-86635000D01*
X145542560Y-88773000D01*
X145591843Y-89020765D01*
X145732191Y-89230809D01*
X145942235Y-89371157D01*
X146190000Y-89420440D01*
X153025951Y-89420440D01*
X151477750Y-90968642D01*
X151341231Y-91059861D01*
X150979864Y-91600686D01*
X150891929Y-92042765D01*
X150852969Y-92238630D01*
X150885000Y-92399660D01*
X150885001Y-93938420D01*
X150832969Y-94200000D01*
X150959865Y-94837945D01*
X151321232Y-95378768D01*
X151761559Y-95672986D01*
X151621864Y-95882055D01*
X151494969Y-96520000D01*
X151621864Y-97157945D01*
X151983231Y-97698769D01*
X152321530Y-97924813D01*
X151977680Y-98268663D01*
X151814128Y-98663512D01*
X151609966Y-98170620D01*
X151009380Y-97570034D01*
X150224678Y-97245000D01*
X149375322Y-97245000D01*
X148590620Y-97570034D01*
X147990034Y-98170620D01*
X147665000Y-98955322D01*
X147665000Y-99797196D01*
X143031334Y-95163531D01*
X142988932Y-95100072D01*
X142737540Y-94932097D01*
X142515855Y-94888001D01*
X142515850Y-94888001D01*
X142441003Y-94873113D01*
X142366156Y-94888001D01*
X140150109Y-94888001D01*
X140490000Y-94067433D01*
X140490000Y-94049041D01*
X143508086Y-94049041D01*
X143747611Y-94555134D01*
X144162577Y-94931041D01*
X144550961Y-95091904D01*
X144773000Y-94969915D01*
X144773000Y-93827000D01*
X143629371Y-93827000D01*
X143508086Y-94049041D01*
X140490000Y-94049041D01*
X140490000Y-93350959D01*
X143508086Y-93350959D01*
X143629371Y-93573000D01*
X144773000Y-93573000D01*
X144773000Y-92430085D01*
X145027000Y-92430085D01*
X145027000Y-93573000D01*
X145047000Y-93573000D01*
X145047000Y-93827000D01*
X145027000Y-93827000D01*
X145027000Y-94969915D01*
X145249039Y-95091904D01*
X145637423Y-94931041D01*
X146052389Y-94555134D01*
X146291914Y-94049041D01*
X146170630Y-93827002D01*
X146335000Y-93827002D01*
X146335000Y-93798720D01*
X146481711Y-94018289D01*
X146857145Y-94269146D01*
X147188217Y-94335000D01*
X148365000Y-94335000D01*
X148365000Y-95261782D01*
X148430854Y-95592854D01*
X148681711Y-95968289D01*
X149057145Y-96219146D01*
X149500000Y-96307235D01*
X149942854Y-96219146D01*
X150318289Y-95968289D01*
X150569146Y-95592855D01*
X150635000Y-95261783D01*
X150635000Y-93861781D01*
X150657235Y-93749999D01*
X150629594Y-93611041D01*
X150569146Y-93307145D01*
X150318289Y-92931711D01*
X150223520Y-92868389D01*
X149831612Y-92476481D01*
X149768289Y-92381711D01*
X149392855Y-92130854D01*
X149061783Y-92065000D01*
X148950000Y-92042765D01*
X148838217Y-92065000D01*
X147188217Y-92065000D01*
X146857145Y-92130854D01*
X146481711Y-92381711D01*
X146230854Y-92757145D01*
X146165758Y-93084404D01*
X146052389Y-92844866D01*
X145637423Y-92468959D01*
X145249039Y-92308096D01*
X145027000Y-92430085D01*
X144773000Y-92430085D01*
X144550961Y-92308096D01*
X144162577Y-92468959D01*
X143747611Y-92844866D01*
X143508086Y-93350959D01*
X140490000Y-93350959D01*
X140490000Y-93128567D01*
X140130711Y-92261167D01*
X139466833Y-91597289D01*
X138599433Y-91238000D01*
X137660567Y-91238000D01*
X136793167Y-91597289D01*
X136734454Y-91656002D01*
X136672389Y-91524866D01*
X136257423Y-91148959D01*
X135869039Y-90988096D01*
X135647000Y-91110085D01*
X135647000Y-92253000D01*
X135667000Y-92253000D01*
X135667000Y-92507000D01*
X135647000Y-92507000D01*
X135647000Y-92527000D01*
X135393000Y-92527000D01*
X135393000Y-92507000D01*
X135373000Y-92507000D01*
X135373000Y-92253000D01*
X135393000Y-92253000D01*
X135393000Y-91110085D01*
X135170961Y-90988096D01*
X134782577Y-91148959D01*
X134367611Y-91524866D01*
X134169101Y-91944299D01*
X129370331Y-87145530D01*
X129327929Y-87082071D01*
X129076537Y-86914096D01*
X128854852Y-86870000D01*
X128854847Y-86870000D01*
X128780000Y-86855112D01*
X128705153Y-86870000D01*
X99896852Y-86870000D01*
X99822000Y-86855111D01*
X99747148Y-86870000D01*
X99525463Y-86914096D01*
X99274071Y-87082071D01*
X99106096Y-87333463D01*
X99047111Y-87630000D01*
X99062000Y-87704852D01*
X99062001Y-89005316D01*
X98981720Y-89038569D01*
X98775370Y-89244919D01*
X96435000Y-86904550D01*
X96435000Y-86740490D01*
X96282115Y-85971885D01*
X95923381Y-85435000D01*
X107961031Y-85435000D01*
X108437945Y-85340136D01*
X108978769Y-84978769D01*
X109340136Y-84437945D01*
X109467031Y-83800000D01*
X109340136Y-83162055D01*
X108978769Y-82621231D01*
X108550379Y-82334990D01*
X108722752Y-82334990D01*
X110457746Y-84069985D01*
X110862054Y-84340136D01*
X111500000Y-84467031D01*
X112137945Y-84340136D01*
X112678769Y-83978769D01*
X113040136Y-83437945D01*
X113167031Y-82800000D01*
X113040136Y-82162054D01*
X112769985Y-81757746D01*
X110669978Y-79657740D01*
X110578759Y-79521221D01*
X110524545Y-79484996D01*
X122575000Y-79484996D01*
X122575000Y-80215004D01*
X122854362Y-80889444D01*
X123370556Y-81405638D01*
X124044996Y-81685000D01*
X124775004Y-81685000D01*
X125449444Y-81405638D01*
X125965638Y-80889444D01*
X126245000Y-80215004D01*
X126245000Y-79484996D01*
X125965638Y-78810556D01*
X125890082Y-78735000D01*
X134435604Y-78735000D01*
X134303466Y-78867138D01*
X134085000Y-79394561D01*
X134085000Y-79965439D01*
X134303466Y-80492862D01*
X134707138Y-80896534D01*
X135234561Y-81115000D01*
X135805439Y-81115000D01*
X136332862Y-80896534D01*
X136736534Y-80492862D01*
X136955000Y-79965439D01*
X136955000Y-79394561D01*
X136736534Y-78867138D01*
X136604396Y-78735000D01*
X141963217Y-78735000D01*
X142075000Y-78757235D01*
X142186783Y-78735000D01*
X142517855Y-78669146D01*
X142893289Y-78418289D01*
X142956612Y-78323519D01*
X143375608Y-77904524D01*
X143563145Y-77623854D01*
X143651235Y-77181001D01*
X143563145Y-76738146D01*
X143312288Y-76362712D01*
X142936854Y-76111855D01*
X142493999Y-76023765D01*
X142051146Y-76111855D01*
X141770476Y-76299392D01*
X141604868Y-76465000D01*
X124588217Y-76465000D01*
X124257145Y-76530854D01*
X123881711Y-76781711D01*
X123630854Y-77157145D01*
X123542765Y-77600000D01*
X123630854Y-78042855D01*
X123706051Y-78155395D01*
X123370556Y-78294362D01*
X122854362Y-78810556D01*
X122575000Y-79484996D01*
X110524545Y-79484996D01*
X110037935Y-79159854D01*
X109561021Y-79064990D01*
X109561020Y-79064990D01*
X109399990Y-79032959D01*
X109238960Y-79064990D01*
X84800554Y-79064990D01*
X84930711Y-78934833D01*
X85290000Y-78067433D01*
X85290000Y-77128567D01*
X84930711Y-76261167D01*
X84523061Y-75853517D01*
X84709000Y-75575239D01*
X84908375Y-75873625D01*
X85399582Y-76201839D01*
X85832744Y-76288000D01*
X86125256Y-76288000D01*
X86558418Y-76201839D01*
X87049625Y-75873625D01*
X87061816Y-75855381D01*
X87070843Y-75900765D01*
X87211191Y-76110809D01*
X87421235Y-76251157D01*
X87669000Y-76300440D01*
X89369000Y-76300440D01*
X89616765Y-76251157D01*
X89826809Y-76110809D01*
X89967157Y-75900765D01*
X90016440Y-75653000D01*
X90016440Y-73953000D01*
X89967157Y-73705235D01*
X89923568Y-73640000D01*
X148760000Y-73640000D01*
X148760001Y-80813952D01*
G36*
X78486000Y-74676000D02*
X78506000Y-74676000D01*
X78506000Y-74930000D01*
X78486000Y-74930000D01*
X78486000Y-76123155D01*
X78715890Y-76244476D01*
X79125924Y-76074645D01*
X79554183Y-75684358D01*
X79615157Y-75554522D01*
X79828375Y-75873625D01*
X80319582Y-76201839D01*
X80752744Y-76288000D01*
X80918174Y-76288000D01*
X80570000Y-77128567D01*
X80570000Y-78067433D01*
X80929289Y-78934833D01*
X81593167Y-79598711D01*
X82460567Y-79958000D01*
X82586763Y-79958000D01*
X78581764Y-83963000D01*
X75517440Y-83963000D01*
X75517440Y-82423000D01*
X75468157Y-82175235D01*
X75327809Y-81965191D01*
X75117765Y-81824843D01*
X74870000Y-81775560D01*
X71741050Y-81775560D01*
X71780960Y-81724136D01*
X71797119Y-81707977D01*
X71819521Y-81674450D01*
X71844244Y-81642595D01*
X71854464Y-81622155D01*
X71902866Y-81549717D01*
X71910915Y-81509253D01*
X71918815Y-81493453D01*
X71924302Y-81488475D01*
X71975623Y-81379836D01*
X72000622Y-81329838D01*
X72002525Y-81322888D01*
X72005603Y-81316373D01*
X72019160Y-81262144D01*
X72050896Y-81146259D01*
X72049969Y-81138909D01*
X72093921Y-80963104D01*
X72102867Y-80949715D01*
X72124665Y-80840127D01*
X72136179Y-80794072D01*
X72136941Y-80778411D01*
X72140000Y-80763033D01*
X72140000Y-80715556D01*
X72145431Y-80603958D01*
X72140000Y-80588801D01*
X72140000Y-75771295D01*
X72208375Y-75873625D01*
X72699582Y-76201839D01*
X73132744Y-76288000D01*
X73425256Y-76288000D01*
X73858418Y-76201839D01*
X74349625Y-75873625D01*
X74549000Y-75575239D01*
X74748375Y-75873625D01*
X75239582Y-76201839D01*
X75672744Y-76288000D01*
X75965256Y-76288000D01*
X76398418Y-76201839D01*
X76889625Y-75873625D01*
X77102843Y-75554522D01*
X77163817Y-75684358D01*
X77592076Y-76074645D01*
X78002110Y-76244476D01*
X78232000Y-76123155D01*
X78232000Y-74930000D01*
X78212000Y-74930000D01*
X78212000Y-74676000D01*
X78232000Y-74676000D01*
X78232000Y-74656000D01*
X78486000Y-74656000D01*
X78486000Y-74676000D01*
X78486000Y-74676000D01*
G37*
X78486000Y-74676000D02*
X78506000Y-74676000D01*
X78506000Y-74930000D01*
X78486000Y-74930000D01*
X78486000Y-76123155D01*
X78715890Y-76244476D01*
X79125924Y-76074645D01*
X79554183Y-75684358D01*
X79615157Y-75554522D01*
X79828375Y-75873625D01*
X80319582Y-76201839D01*
X80752744Y-76288000D01*
X80918174Y-76288000D01*
X80570000Y-77128567D01*
X80570000Y-78067433D01*
X80929289Y-78934833D01*
X81593167Y-79598711D01*
X82460567Y-79958000D01*
X82586763Y-79958000D01*
X78581764Y-83963000D01*
X75517440Y-83963000D01*
X75517440Y-82423000D01*
X75468157Y-82175235D01*
X75327809Y-81965191D01*
X75117765Y-81824843D01*
X74870000Y-81775560D01*
X71741050Y-81775560D01*
X71780960Y-81724136D01*
X71797119Y-81707977D01*
X71819521Y-81674450D01*
X71844244Y-81642595D01*
X71854464Y-81622155D01*
X71902866Y-81549717D01*
X71910915Y-81509253D01*
X71918815Y-81493453D01*
X71924302Y-81488475D01*
X71975623Y-81379836D01*
X72000622Y-81329838D01*
X72002525Y-81322888D01*
X72005603Y-81316373D01*
X72019160Y-81262144D01*
X72050896Y-81146259D01*
X72049969Y-81138909D01*
X72093921Y-80963104D01*
X72102867Y-80949715D01*
X72124665Y-80840127D01*
X72136179Y-80794072D01*
X72136941Y-80778411D01*
X72140000Y-80763033D01*
X72140000Y-80715556D01*
X72145431Y-80603958D01*
X72140000Y-80588801D01*
X72140000Y-75771295D01*
X72208375Y-75873625D01*
X72699582Y-76201839D01*
X73132744Y-76288000D01*
X73425256Y-76288000D01*
X73858418Y-76201839D01*
X74349625Y-75873625D01*
X74549000Y-75575239D01*
X74748375Y-75873625D01*
X75239582Y-76201839D01*
X75672744Y-76288000D01*
X75965256Y-76288000D01*
X76398418Y-76201839D01*
X76889625Y-75873625D01*
X77102843Y-75554522D01*
X77163817Y-75684358D01*
X77592076Y-76074645D01*
X78002110Y-76244476D01*
X78232000Y-76123155D01*
X78232000Y-74930000D01*
X78212000Y-74930000D01*
X78212000Y-74676000D01*
X78232000Y-74676000D01*
X78232000Y-74656000D01*
X78486000Y-74656000D01*
X78486000Y-74676000D01*
G04 #@! TD*
M02*
