G04 #@! TF.GenerationSoftware,KiCad,Pcbnew,(5.0.2)-1*
G04 #@! TF.CreationDate,2019-08-17T15:57:11+01:00*
G04 #@! TF.ProjectId,SoliCamb Rev 4 PCB,536f6c69-4361-46d6-9220-526576203420,rev?*
G04 #@! TF.SameCoordinates,Original*
G04 #@! TF.FileFunction,Other,User*
%FSLAX46Y46*%
G04 Gerber Fmt 4.6, Leading zero omitted, Abs format (unit mm)*
G04 Created by KiCad (PCBNEW (5.0.2)-1) date 8/17/2019 3:57:11 PM*
%MOMM*%
%LPD*%
G01*
G04 APERTURE LIST*
%ADD10C,0.050000*%
G04 APERTURE END LIST*
D10*
G04 #@! TO.C,BT2*
X71500000Y-81918000D02*
X67030000Y-81918000D01*
X67030000Y-81918000D02*
X67030000Y-89278000D01*
X67030000Y-89278000D02*
X71500000Y-89278000D01*
X154030000Y-89278000D02*
X149560000Y-89278000D01*
X149560000Y-81918000D02*
X154030000Y-81918000D01*
X71500000Y-96428000D02*
X71500000Y-89278000D01*
X71500000Y-74768000D02*
X71500000Y-81918000D01*
X149560000Y-96428000D02*
X149560000Y-89278000D01*
X71500000Y-96428000D02*
X149560000Y-96428000D01*
X71500000Y-74768000D02*
X149560000Y-74768000D01*
X149560000Y-74768000D02*
X149560000Y-81918000D01*
X154030000Y-81918000D02*
X154030000Y-89278000D01*
G04 #@! TO.C,BT1*
X66776000Y-129918000D02*
X66776000Y-122558000D01*
X71246000Y-137068000D02*
X71246000Y-129918000D01*
X149306000Y-137068000D02*
X71246000Y-137068000D01*
X149306000Y-115408000D02*
X71246000Y-115408000D01*
X71246000Y-115408000D02*
X71246000Y-122558000D01*
X149306000Y-137068000D02*
X149306000Y-129918000D01*
X149306000Y-115408000D02*
X149306000Y-122558000D01*
X71246000Y-129918000D02*
X66776000Y-129918000D01*
X66776000Y-122558000D02*
X71246000Y-122558000D01*
X153776000Y-122558000D02*
X149306000Y-122558000D01*
X153776000Y-129918000D02*
X153776000Y-122558000D01*
X149306000Y-129918000D02*
X153776000Y-129918000D01*
G04 #@! TO.C,U4*
X66062000Y-99546000D02*
X66062000Y-120896000D01*
X66062000Y-120896000D02*
X62462000Y-120896000D01*
X62462000Y-120896000D02*
X62462000Y-99546000D01*
X62462000Y-99546000D02*
X66062000Y-99546000D01*
G04 #@! TD*
M02*
