G04 #@! TF.GenerationSoftware,KiCad,Pcbnew,(5.0.2)-1*
G04 #@! TF.CreationDate,2019-08-17T15:57:11+01:00*
G04 #@! TF.ProjectId,SoliCamb Rev 4 PCB,536f6c69-4361-46d6-9220-526576203420,rev?*
G04 #@! TF.SameCoordinates,Original*
G04 #@! TF.FileFunction,Other,Fab,Bot*
%FSLAX46Y46*%
G04 Gerber Fmt 4.6, Leading zero omitted, Abs format (unit mm)*
G04 Created by KiCad (PCBNEW (5.0.2)-1) date 8/17/2019 3:57:11 PM*
%MOMM*%
%LPD*%
G01*
G04 APERTURE LIST*
%ADD10C,0.100000*%
%ADD11C,0.150000*%
G04 APERTURE END LIST*
D10*
G04 #@! TO.C,BT2*
X149060000Y-95928000D02*
X149060000Y-75268000D01*
X77162500Y-95928000D02*
X149060000Y-95928000D01*
X72000000Y-90765500D02*
X72000000Y-75268000D01*
X72000000Y-75268000D02*
X149060000Y-75268000D01*
X77162500Y-95928000D02*
X72000000Y-90765500D01*
G04 #@! TO.C,BT1*
X143643500Y-115908000D02*
X148806000Y-121070500D01*
X148806000Y-136568000D02*
X71746000Y-136568000D01*
X148806000Y-121070500D02*
X148806000Y-136568000D01*
X143643500Y-115908000D02*
X71746000Y-115908000D01*
X71746000Y-115908000D02*
X71746000Y-136568000D01*
G04 #@! TO.C,U4*
X64897000Y-100076000D02*
X62992000Y-100076000D01*
X62992000Y-100076000D02*
X62992000Y-120396000D01*
X62992000Y-120396000D02*
X65532000Y-120396000D01*
X65532000Y-120396000D02*
X65532000Y-100711000D01*
X65532000Y-100711000D02*
X64897000Y-100076000D01*
G04 #@! TD*
G04 #@! TO.C,BT2*
D11*
X111315714Y-85526571D02*
X111172857Y-85574190D01*
X111125238Y-85621809D01*
X111077619Y-85717047D01*
X111077619Y-85859904D01*
X111125238Y-85955142D01*
X111172857Y-86002761D01*
X111268095Y-86050380D01*
X111649047Y-86050380D01*
X111649047Y-85050380D01*
X111315714Y-85050380D01*
X111220476Y-85098000D01*
X111172857Y-85145619D01*
X111125238Y-85240857D01*
X111125238Y-85336095D01*
X111172857Y-85431333D01*
X111220476Y-85478952D01*
X111315714Y-85526571D01*
X111649047Y-85526571D01*
X110791904Y-85050380D02*
X110220476Y-85050380D01*
X110506190Y-86050380D02*
X110506190Y-85050380D01*
X109934761Y-85145619D02*
X109887142Y-85098000D01*
X109791904Y-85050380D01*
X109553809Y-85050380D01*
X109458571Y-85098000D01*
X109410952Y-85145619D01*
X109363333Y-85240857D01*
X109363333Y-85336095D01*
X109410952Y-85478952D01*
X109982380Y-86050380D01*
X109363333Y-86050380D01*
G04 #@! TO.C,BT1*
X113235714Y-126478571D02*
X113092857Y-126526190D01*
X113045238Y-126573809D01*
X112997619Y-126669047D01*
X112997619Y-126811904D01*
X113045238Y-126907142D01*
X113092857Y-126954761D01*
X113188095Y-127002380D01*
X113569047Y-127002380D01*
X113569047Y-126002380D01*
X113235714Y-126002380D01*
X113140476Y-126050000D01*
X113092857Y-126097619D01*
X113045238Y-126192857D01*
X113045238Y-126288095D01*
X113092857Y-126383333D01*
X113140476Y-126430952D01*
X113235714Y-126478571D01*
X113569047Y-126478571D01*
X112711904Y-126002380D02*
X112140476Y-126002380D01*
X112426190Y-127002380D02*
X112426190Y-126002380D01*
X111283333Y-127002380D02*
X111854761Y-127002380D01*
X111569047Y-127002380D02*
X111569047Y-126002380D01*
X111664285Y-126145238D01*
X111759523Y-126240476D01*
X111854761Y-126288095D01*
G04 #@! TO.C,U4*
X65119142Y-121908380D02*
X65452476Y-121432190D01*
X65690571Y-121908380D02*
X65690571Y-120908380D01*
X65309619Y-120908380D01*
X65214380Y-120956000D01*
X65166761Y-121003619D01*
X65119142Y-121098857D01*
X65119142Y-121241714D01*
X65166761Y-121336952D01*
X65214380Y-121384571D01*
X65309619Y-121432190D01*
X65690571Y-121432190D01*
X64357238Y-121384571D02*
X64690571Y-121384571D01*
X64690571Y-121908380D02*
X64690571Y-120908380D01*
X64214380Y-120908380D01*
X63833428Y-121908380D02*
X63833428Y-120908380D01*
X63357238Y-121908380D02*
X63357238Y-120908380D01*
X63119142Y-120908380D01*
X62976285Y-120956000D01*
X62881047Y-121051238D01*
X62833428Y-121146476D01*
X62785809Y-121336952D01*
X62785809Y-121479809D01*
X62833428Y-121670285D01*
X62881047Y-121765523D01*
X62976285Y-121860761D01*
X63119142Y-121908380D01*
X63357238Y-121908380D01*
X63714380Y-109474095D02*
X64523904Y-109474095D01*
X64619142Y-109521714D01*
X64666761Y-109569333D01*
X64714380Y-109664571D01*
X64714380Y-109855047D01*
X64666761Y-109950285D01*
X64619142Y-109997904D01*
X64523904Y-110045523D01*
X63714380Y-110045523D01*
X64047714Y-110950285D02*
X64714380Y-110950285D01*
X63666761Y-110712190D02*
X64381047Y-110474095D01*
X64381047Y-111093142D01*
G04 #@! TO.C,U9*
X137807380Y-104688095D02*
X138616904Y-104688095D01*
X138712142Y-104735714D01*
X138759761Y-104783333D01*
X138807380Y-104878571D01*
X138807380Y-105069047D01*
X138759761Y-105164285D01*
X138712142Y-105211904D01*
X138616904Y-105259523D01*
X137807380Y-105259523D01*
X138759761Y-105688095D02*
X138807380Y-105830952D01*
X138807380Y-106069047D01*
X138759761Y-106164285D01*
X138712142Y-106211904D01*
X138616904Y-106259523D01*
X138521666Y-106259523D01*
X138426428Y-106211904D01*
X138378809Y-106164285D01*
X138331190Y-106069047D01*
X138283571Y-105878571D01*
X138235952Y-105783333D01*
X138188333Y-105735714D01*
X138093095Y-105688095D01*
X137997857Y-105688095D01*
X137902619Y-105735714D01*
X137855000Y-105783333D01*
X137807380Y-105878571D01*
X137807380Y-106116666D01*
X137855000Y-106259523D01*
X138283571Y-107021428D02*
X138331190Y-107164285D01*
X138378809Y-107211904D01*
X138474047Y-107259523D01*
X138616904Y-107259523D01*
X138712142Y-107211904D01*
X138759761Y-107164285D01*
X138807380Y-107069047D01*
X138807380Y-106688095D01*
X137807380Y-106688095D01*
X137807380Y-107021428D01*
X137855000Y-107116666D01*
X137902619Y-107164285D01*
X137997857Y-107211904D01*
X138093095Y-107211904D01*
X138188333Y-107164285D01*
X138235952Y-107116666D01*
X138283571Y-107021428D01*
X138283571Y-106688095D01*
G04 #@! TD*
M02*
