M48
;DRILL file {KiCad (5.0.2)-1} date 8/17/2019 3:57:25 PM
;FORMAT={-:-/ absolute / inch / decimal}
FMAT,2
INCH,TZ
T1C0.0157
T2C0.0236
T3C0.0300
T4C0.0315
T5C0.0394
T6C0.0472
T7C0.0925
%
G90
G05
T1
X2.6203Y-4.3307
X2.7Y-3.7696
X2.7209Y-4.89
X2.7209Y-5.0274
X2.7715Y-4.5516
X2.79Y-4.7
X2.7954Y-4.9646
X2.8Y-3.87
X2.8425Y-4.3661
X2.89Y-4.9646
X2.89Y-5.06
X2.8976Y-3.8504
X2.91Y-4.7478
X3.Y-4.4704
X3.Y-4.7
X3.063Y-4.2296
X3.0787Y-4.8425
X3.0787Y-5.0669
X3.1024Y-3.8504
X3.1063Y-4.4724
X3.1339Y-4.8425
X3.1457Y-4.2362
X3.1969Y-3.9606
X3.2008Y-3.1654
X3.2028Y-3.6311
X3.3031Y-5.1654
X3.3386Y-3.2809
X3.4Y-4.73
X3.4305Y-3.2809
X3.4305Y-3.4777
X3.4567Y-4.9488
X3.4803Y-5.252
X3.5Y-4.7
X3.6417Y-3.689
X3.6929Y-3.4252
X3.7044Y-3.6263
X3.8189Y-3.4173
X3.8465Y-3.3898
X3.8504Y-3.4488
X3.874Y-3.4173
X3.8858Y-4.6063
X3.92Y-3.54
X3.96Y-4.41
X4.01Y-3.54
X4.0118Y-4.8425
X4.06Y-4.5713
X4.0827Y-3.2992
X4.0832Y-5.1767
X4.1Y-3.5
X4.1148Y-4.5985
X4.1693Y-3.2992
X4.21Y-4.6269
X4.2441Y-3.2992
X4.3031Y-4.9646
X4.31Y-4.6485
X4.3898Y-3.2598
X4.4094Y-3.6181
X4.5064Y-5.4001
X4.5236Y-5.1181
X4.53Y-4.8915
X4.5386Y-4.5134
X4.5551Y-5.4001
X4.6063Y-5.4001
X4.7559Y-4.3976
X4.9016Y-3.3465
X4.9094Y-3.0551
X4.9126Y-4.3319
X4.9154Y-4.5067
X4.9569Y-4.4286
X5.11Y-2.945
X5.1872Y-3.6368
X5.189Y-4.949
X5.2559Y-3.0551
X5.2693Y-4.4028
X5.3236Y-4.1645
X5.3922Y-5.4001
X5.455Y-2.9448
X5.4606Y-5.4001
X5.5157Y-3.9292
X5.5315Y-5.4001
X5.5401Y-4.1378
X5.5513Y-4.7676
X5.5906Y-4.7706
X5.5917Y-4.0392
X5.61Y-3.0386
X5.6135Y-3.8117
X5.6299Y-4.7689
X5.6413Y-4.7017
X5.6466Y-3.8447
X5.6623Y-4.475
X5.6657Y-4.5143
X5.6672Y-4.7337
X5.6767Y-3.9083
X5.7992Y-3.6693
X5.81Y-2.9498
X5.8271Y-4.2592
X5.861Y-4.7791
X5.875Y-4.315
X5.8858Y-3.7461
X5.9272Y-4.3157
X6.0039Y-3.7087
X6.0433Y-4.7598
X6.096Y-4.957
X6.14Y-4.61
X6.198Y-4.4165
T2
X5.3661Y-4.
X5.3661Y-4.0787
X5.3701Y-3.815
X5.3701Y-3.8937
T3
X6.03Y-3.8
X6.03Y-3.9
X6.03Y-4.
X6.03Y-4.1
X6.03Y-4.2
X6.03Y-4.3
X6.03Y-4.4
X6.03Y-4.5
X5.6339Y-4.0138
X5.6339Y-4.0925
X5.6339Y-4.1713
X5.6339Y-4.25
X5.6339Y-4.3287
X5.6929Y-4.0335
X5.6929Y-4.1319
X5.6929Y-4.2106
X5.6929Y-4.3091
X5.7598Y-4.0138
X5.7598Y-4.0925
X5.7598Y-4.1713
X5.7598Y-4.25
X5.7598Y-4.3287
X5.8189Y-4.0335
X5.8189Y-4.1319
X5.8189Y-4.2106
X5.8189Y-4.3091
X3.11Y-5.38
X3.21Y-5.38
X3.31Y-5.38
X3.41Y-5.38
X3.5069Y-5.3784
T4
X4.9039Y-4.4043
X5.4039Y-4.4043
X5.3354Y-3.137
X5.3354Y-3.637
X6.1567Y-3.524
X6.1567Y-4.024
X5.7047Y-3.189
X5.7047Y-3.689
X3.3602Y-4.6087
X3.3602Y-5.1087
X4.7756Y-3.7638
X5.2756Y-3.7638
T5
X2.53Y-3.99
X2.53Y-4.09
X2.53Y-4.19
X2.53Y-4.29
X2.53Y-4.39
X2.53Y-4.49
X2.53Y-4.59
X2.53Y-4.69
X2.885Y-2.945
X2.985Y-2.945
X3.085Y-2.945
X3.185Y-2.945
X3.285Y-2.945
X3.385Y-2.945
X3.485Y-2.945
T6
X4.898Y-3.1437
X4.898Y-3.6437
X4.8104Y-4.1881
X4.8105Y-3.9076
X5.1851Y-4.0479
X5.1852Y-3.9077
X5.1852Y-4.1881
T7
X5.8976Y-3.9126
X5.898Y-4.4295
T0
M30
